  0
SECTION
  2
HEADER
  9
$ANGBASE
  50
0.0
  9
$ANGDIR
  70
1
  9
$MEASUREMENT
  70
0
  0
ENDSEC
  0
SECTION
  2
TABLES
  0
TABLE
  2
LTYPE
  70
4
  0
LTYPE
  5
40F
  2
CONTINUOUS
  70
0
  3
Solid line
  72
65
  73
0
  40
0.0
  0
LTYPE
  5
410
  2
DASHDOT
 70
0
  3
Dash Dot ____ _ ____ _
 72
65
 73
4
 40
2.0
 49
1.25
 49
-0.25
 49
0.25
 49
-0.25
  0
LTYPE
  5
411
  2
DASHED
 70
0
  3
Dashed __ __ __ __ __
 72
65
 73
2
 40
0.75
 49
0.5
 49
-0.25
  0
LTYPE
  5
43B
  2
DOTTED
 70
0
  3
Dotted .  .  .  .
 72
65
 73
2
 40
0.2
 49
0.0
 49
-0.2
  0
ENDTAB
  0
TABLE
  2
STYLE
  70
4
  0
STYLE
  2
KICAD
  70
0
  40
0
  41
1
  42
1
  50
0
  71
0
  3
isocp.shx
  0
STYLE
  2
KICADB
  70
0
  40
0
  41
1
  42
1
  50
0
  71
0
  3
isocp.shx
  0
STYLE
  2
KICADI
  70
0
  40
0
  41
1
  42
1
  50
15
  71
0
  3
isocp.shx
  0
STYLE
  2
KICADBI
  70
0
  40
0
  41
1
  42
1
  50
15
  71
0
  3
isocp.shx
  0
ENDTAB
  0
TABLE
  2
LAYER
  70
1
  0
LAYER
  2
BLACK
  70
0
  62
7
  6
CONTINUOUS
  0
ENDTAB
  0
ENDSEC
  0
SECTION
  2
ENTITIES
0
LINE
8
BLACK
6
CONTINUOUS
10
0.71
20
0.205
11
0.645
21
0.205
0
LINE
8
BLACK
6
CONTINUOUS
10
0.645
20
0.205
11
0.645
21
0.27
0
LINE
8
BLACK
6
CONTINUOUS
10
0.645
20
0.27
11
0.71
21
0.27
0
LINE
8
BLACK
6
CONTINUOUS
10
0.71
20
0.27
11
0.71
21
0.205
0
LINE
8
BLACK
6
CONTINUOUS
10
0.8099999999999999
20
0.205
11
0.745
21
0.205
0
LINE
8
BLACK
6
CONTINUOUS
10
0.745
20
0.205
11
0.745
21
0.27
0
LINE
8
BLACK
6
CONTINUOUS
10
0.745
20
0.27
11
0.8099999999999999
21
0.27
0
LINE
8
BLACK
6
CONTINUOUS
10
0.8099999999999999
20
0.27
11
0.8099999999999999
21
0.205
0
LINE
8
BLACK
6
CONTINUOUS
10
0.91
20
0.205
11
0.845
21
0.205
0
LINE
8
BLACK
6
CONTINUOUS
10
0.845
20
0.205
11
0.845
21
0.27
0
LINE
8
BLACK
6
CONTINUOUS
10
0.845
20
0.27
11
0.91
21
0.27
0
LINE
8
BLACK
6
CONTINUOUS
10
0.91
20
0.27
11
0.91
21
0.205
0
LINE
8
BLACK
6
CONTINUOUS
10
0.71
20
0.305
11
0.645
21
0.305
0
LINE
8
BLACK
6
CONTINUOUS
10
0.645
20
0.305
11
0.645
21
0.37
0
LINE
8
BLACK
6
CONTINUOUS
10
0.645
20
0.37
11
0.71
21
0.37
0
LINE
8
BLACK
6
CONTINUOUS
10
0.71
20
0.37
11
0.71
21
0.305
0
LINE
8
BLACK
6
CONTINUOUS
10
0.8099999999999999
20
0.305
11
0.745
21
0.305
0
LINE
8
BLACK
6
CONTINUOUS
10
0.745
20
0.305
11
0.745
21
0.37
0
LINE
8
BLACK
6
CONTINUOUS
10
0.745
20
0.37
11
0.8099999999999999
21
0.37
0
LINE
8
BLACK
6
CONTINUOUS
10
0.8099999999999999
20
0.37
11
0.8099999999999999
21
0.305
0
LINE
8
BLACK
6
CONTINUOUS
10
0.91
20
0.305
11
0.845
21
0.305
0
LINE
8
BLACK
6
CONTINUOUS
10
0.845
20
0.305
11
0.845
21
0.37
0
LINE
8
BLACK
6
CONTINUOUS
10
0.845
20
0.37
11
0.91
21
0.37
0
LINE
8
BLACK
6
CONTINUOUS
10
0.91
20
0.37
11
0.91
21
0.305
0
LINE
8
BLACK
6
CONTINUOUS
10
0.2197842125984252
20
0.3164414566929134
11
0.232697125984252
21
0.3134941732283464
0
LINE
8
BLACK
6
CONTINUOUS
10
0.232697125984252
20
0.3134941732283464
11
0.2451988188976378
21
0.3091196456692913
0
LINE
8
BLACK
6
CONTINUOUS
10
0.2451988188976378
20
0.3091196456692913
11
0.2571321653543307
21
0.3033728346456693
0
LINE
8
BLACK
6
CONTINUOUS
10
0.2571321653543307
20
0.3033728346456693
11
0.2683470078740157
21
0.2963261023622047
0
LINE
8
BLACK
6
CONTINUOUS
10
0.2683470078740157
20
0.2963261023622047
11
0.2787023622047244
21
0.2880679527559055
0
LINE
8
BLACK
6
CONTINUOUS
10
0.2787023622047244
20
0.2880679527559055
11
0.2880679527559055
21
0.2787023622047244
0
LINE
8
BLACK
6
CONTINUOUS
10
0.2880679527559055
20
0.2787023622047244
11
0.2963261023622047
21
0.2683470078740157
0
LINE
8
BLACK
6
CONTINUOUS
10
0.2963261023622047
20
0.2683470078740157
11
0.3033728346456693
21
0.2571321653543307
0
LINE
8
BLACK
6
CONTINUOUS
10
0.3033728346456693
20
0.2571321653543307
11
0.3091196456692913
21
0.2451988188976378
0
LINE
8
BLACK
6
CONTINUOUS
10
0.3091196456692913
20
0.2451988188976378
11
0.3134941732283464
21
0.232697125984252
0
LINE
8
BLACK
6
CONTINUOUS
10
0.3134941732283464
20
0.232697125984252
11
0.3164414566929134
21
0.2197842125984252
0
LINE
8
BLACK
6
CONTINUOUS
10
0.3164414566929134
20
0.2197842125984252
11
0.3179244094488189
21
0.2066224803149606
0
LINE
8
BLACK
6
CONTINUOUS
10
0.3179244094488189
20
0.2066224803149606
11
0.3179244094488189
21
0.1933775196850394
0
LINE
8
BLACK
6
CONTINUOUS
10
0.3179244094488189
20
0.1933775196850394
11
0.3164414566929134
21
0.1802157874015748
0
LINE
8
BLACK
6
CONTINUOUS
10
0.3164414566929134
20
0.1802157874015748
11
0.3134941732283464
21
0.167302874015748
0
LINE
8
BLACK
6
CONTINUOUS
10
0.3134941732283464
20
0.167302874015748
11
0.3091196456692913
21
0.1548011811023622
0
LINE
8
BLACK
6
CONTINUOUS
10
0.3091196456692913
20
0.1548011811023622
11
0.3033728346456693
21
0.1428678346456693
0
LINE
8
BLACK
6
CONTINUOUS
10
0.3033728346456693
20
0.1428678346456693
11
0.2963261023622047
21
0.1316529921259842
0
LINE
8
BLACK
6
CONTINUOUS
10
0.2963261023622047
20
0.1316529921259842
11
0.2880679527559055
21
0.1212976377952756
0
LINE
8
BLACK
6
CONTINUOUS
10
0.2880679527559055
20
0.1212976377952756
11
0.2787023622047244
21
0.1119320472440945
0
LINE
8
BLACK
6
CONTINUOUS
10
0.2787023622047244
20
0.1119320472440945
11
0.2683470078740157
21
0.1036738976377953
0
LINE
8
BLACK
6
CONTINUOUS
10
0.2683470078740157
20
0.1036738976377953
11
0.2571321653543307
21
0.0966271653543307
0
LINE
8
BLACK
6
CONTINUOUS
10
0.2571321653543307
20
0.0966271653543307
11
0.2451988188976378
21
0.0908803543307087
0
LINE
8
BLACK
6
CONTINUOUS
10
0.2451988188976378
20
0.0908803543307087
11
0.232697125984252
21
0.0865058267716535
0
LINE
8
BLACK
6
CONTINUOUS
10
0.232697125984252
20
0.0865058267716535
11
0.2197842125984252
21
0.0835585433070866
0
LINE
8
BLACK
6
CONTINUOUS
10
0.2197842125984252
20
0.0835585433070866
11
0.2066224803149606
21
0.0820755905511811
0
LINE
8
BLACK
6
CONTINUOUS
10
0.2066224803149606
20
0.0820755905511811
11
0.1933775196850394
21
0.0820755905511811
0
LINE
8
BLACK
6
CONTINUOUS
10
0.1933775196850394
20
0.0820755905511811
11
0.1802157874015748
21
0.0835585433070866
0
LINE
8
BLACK
6
CONTINUOUS
10
0.1802157874015748
20
0.0835585433070866
11
0.167302874015748
21
0.0865058267716535
0
LINE
8
BLACK
6
CONTINUOUS
10
0.167302874015748
20
0.0865058267716535
11
0.1548011811023622
21
0.0908803543307087
0
LINE
8
BLACK
6
CONTINUOUS
10
0.1548011811023622
20
0.0908803543307087
11
0.1428678346456693
21
0.0966271653543307
0
LINE
8
BLACK
6
CONTINUOUS
10
0.1428678346456693
20
0.0966271653543307
11
0.1316529921259842
21
0.1036738976377953
0
LINE
8
BLACK
6
CONTINUOUS
10
0.1316529921259842
20
0.1036738976377953
11
0.1212976377952756
21
0.1119320472440945
0
LINE
8
BLACK
6
CONTINUOUS
10
0.1212976377952756
20
0.1119320472440945
11
0.1119320472440945
21
0.1212976377952756
0
LINE
8
BLACK
6
CONTINUOUS
10
0.1119320472440945
20
0.1212976377952756
11
0.1036738976377953
21
0.1316529921259842
0
LINE
8
BLACK
6
CONTINUOUS
10
0.1036738976377953
20
0.1316529921259842
11
0.0966271653543307
21
0.1428678346456693
0
LINE
8
BLACK
6
CONTINUOUS
10
0.0966271653543307
20
0.1428678346456693
11
0.0908803543307087
21
0.1548011811023622
0
LINE
8
BLACK
6
CONTINUOUS
10
0.0908803543307087
20
0.1548011811023622
11
0.0865058267716535
21
0.167302874015748
0
LINE
8
BLACK
6
CONTINUOUS
10
0.0865058267716535
20
0.167302874015748
11
0.0835585433070866
21
0.1802157874015748
0
LINE
8
BLACK
6
CONTINUOUS
10
0.0835585433070866
20
0.1802157874015748
11
0.0820755905511811
21
0.1933775196850394
0
LINE
8
BLACK
6
CONTINUOUS
10
0.0820755905511811
20
0.1933775196850394
11
0.0820755905511811
21
0.2066224803149606
0
LINE
8
BLACK
6
CONTINUOUS
10
0.0820755905511811
20
0.2066224803149606
11
0.0835585433070866
21
0.2197842125984252
0
LINE
8
BLACK
6
CONTINUOUS
10
0.0835585433070866
20
0.2197842125984252
11
0.0865058267716535
21
0.232697125984252
0
LINE
8
BLACK
6
CONTINUOUS
10
0.0865058267716535
20
0.232697125984252
11
0.0908803543307087
21
0.2451988188976378
0
LINE
8
BLACK
6
CONTINUOUS
10
0.0908803543307087
20
0.2451988188976378
11
0.0966271653543307
21
0.2571321653543307
0
LINE
8
BLACK
6
CONTINUOUS
10
0.0966271653543307
20
0.2571321653543307
11
0.1036738976377953
21
0.2683470078740157
0
LINE
8
BLACK
6
CONTINUOUS
10
0.1036738976377953
20
0.2683470078740157
11
0.1119320472440945
21
0.2787023622047244
0
LINE
8
BLACK
6
CONTINUOUS
10
0.1119320472440945
20
0.2787023622047244
11
0.1212976377952756
21
0.2880679527559055
0
LINE
8
BLACK
6
CONTINUOUS
10
0.1212976377952756
20
0.2880679527559055
11
0.1316529921259842
21
0.2963261023622047
0
LINE
8
BLACK
6
CONTINUOUS
10
0.1316529921259842
20
0.2963261023622047
11
0.1428678346456693
21
0.3033728346456693
0
LINE
8
BLACK
6
CONTINUOUS
10
0.1428678346456693
20
0.3033728346456693
11
0.1548011811023622
21
0.3091196456692913
0
LINE
8
BLACK
6
CONTINUOUS
10
0.1548011811023622
20
0.3091196456692913
11
0.167302874015748
21
0.3134941732283464
0
LINE
8
BLACK
6
CONTINUOUS
10
0.167302874015748
20
0.3134941732283464
11
0.1802157874015748
21
0.3164414566929134
0
LINE
8
BLACK
6
CONTINUOUS
10
0.1802157874015748
20
0.3164414566929134
11
0.1933775196850394
21
0.3179244094488189
0
LINE
8
BLACK
6
CONTINUOUS
10
0.1933775196850394
20
0.3179244094488189
11
0.2066224803149606
21
0.3179244094488189
0
LINE
8
BLACK
6
CONTINUOUS
10
0.2066224803149606
20
0.3179244094488189
11
0.2197842125984252
21
0.3164414566929134
0
LINE
8
BLACK
6
CONTINUOUS
10
1.4197842125984252
20
0.3164414566929134
11
1.432697125984252
21
0.3134941732283464
0
LINE
8
BLACK
6
CONTINUOUS
10
1.432697125984252
20
0.3134941732283464
11
1.4451988188976377
21
0.3091196456692913
0
LINE
8
BLACK
6
CONTINUOUS
10
1.4451988188976377
20
0.3091196456692913
11
1.4571321653543308
21
0.3033728346456693
0
LINE
8
BLACK
6
CONTINUOUS
10
1.4571321653543308
20
0.3033728346456693
11
1.4683470078740157
21
0.2963261023622047
0
LINE
8
BLACK
6
CONTINUOUS
10
1.4683470078740157
20
0.2963261023622047
11
1.4787023622047244
21
0.2880679527559055
0
LINE
8
BLACK
6
CONTINUOUS
10
1.4787023622047244
20
0.2880679527559055
11
1.4880679527559055
21
0.2787023622047244
0
LINE
8
BLACK
6
CONTINUOUS
10
1.4880679527559055
20
0.2787023622047244
11
1.4963261023622048
21
0.2683470078740157
0
LINE
8
BLACK
6
CONTINUOUS
10
1.4963261023622048
20
0.2683470078740157
11
1.5033728346456692
21
0.2571321653543307
0
LINE
8
BLACK
6
CONTINUOUS
10
1.5033728346456692
20
0.2571321653543307
11
1.5091196456692912
21
0.2451988188976378
0
LINE
8
BLACK
6
CONTINUOUS
10
1.5091196456692912
20
0.2451988188976378
11
1.5134941732283465
21
0.232697125984252
0
LINE
8
BLACK
6
CONTINUOUS
10
1.5134941732283465
20
0.232697125984252
11
1.5164414566929134
21
0.2197842125984252
0
LINE
8
BLACK
6
CONTINUOUS
10
1.5164414566929134
20
0.2197842125984252
11
1.5179244094488189
21
0.2066224803149606
0
LINE
8
BLACK
6
CONTINUOUS
10
1.5179244094488189
20
0.2066224803149606
11
1.5179244094488189
21
0.1933775196850394
0
LINE
8
BLACK
6
CONTINUOUS
10
1.5179244094488189
20
0.1933775196850394
11
1.5164414566929134
21
0.1802157874015748
0
LINE
8
BLACK
6
CONTINUOUS
10
1.5164414566929134
20
0.1802157874015748
11
1.5134941732283465
21
0.167302874015748
0
LINE
8
BLACK
6
CONTINUOUS
10
1.5134941732283465
20
0.167302874015748
11
1.5091196456692912
21
0.1548011811023622
0
LINE
8
BLACK
6
CONTINUOUS
10
1.5091196456692912
20
0.1548011811023622
11
1.5033728346456692
21
0.1428678346456693
0
LINE
8
BLACK
6
CONTINUOUS
10
1.5033728346456692
20
0.1428678346456693
11
1.4963261023622048
21
0.1316529921259842
0
LINE
8
BLACK
6
CONTINUOUS
10
1.4963261023622048
20
0.1316529921259842
11
1.4880679527559055
21
0.1212976377952756
0
LINE
8
BLACK
6
CONTINUOUS
10
1.4880679527559055
20
0.1212976377952756
11
1.4787023622047244
21
0.1119320472440945
0
LINE
8
BLACK
6
CONTINUOUS
10
1.4787023622047244
20
0.1119320472440945
11
1.4683470078740157
21
0.1036738976377953
0
LINE
8
BLACK
6
CONTINUOUS
10
1.4683470078740157
20
0.1036738976377953
11
1.4571321653543308
21
0.0966271653543307
0
LINE
8
BLACK
6
CONTINUOUS
10
1.4571321653543308
20
0.0966271653543307
11
1.4451988188976377
21
0.0908803543307087
0
LINE
8
BLACK
6
CONTINUOUS
10
1.4451988188976377
20
0.0908803543307087
11
1.432697125984252
21
0.0865058267716535
0
LINE
8
BLACK
6
CONTINUOUS
10
1.432697125984252
20
0.0865058267716535
11
1.4197842125984252
21
0.0835585433070866
0
LINE
8
BLACK
6
CONTINUOUS
10
1.4197842125984252
20
0.0835585433070866
11
1.4066224803149605
21
0.0820755905511811
0
LINE
8
BLACK
6
CONTINUOUS
10
1.4066224803149605
20
0.0820755905511811
11
1.3933775196850393
21
0.0820755905511811
0
LINE
8
BLACK
6
CONTINUOUS
10
1.3933775196850393
20
0.0820755905511811
11
1.3802157874015748
21
0.0835585433070866
0
LINE
8
BLACK
6
CONTINUOUS
10
1.3802157874015748
20
0.0835585433070866
11
1.367302874015748
21
0.0865058267716535
0
LINE
8
BLACK
6
CONTINUOUS
10
1.367302874015748
20
0.0865058267716535
11
1.3548011811023621
21
0.0908803543307087
0
LINE
8
BLACK
6
CONTINUOUS
10
1.3548011811023621
20
0.0908803543307087
11
1.3428678346456693
21
0.0966271653543307
0
LINE
8
BLACK
6
CONTINUOUS
10
1.3428678346456693
20
0.0966271653543307
11
1.3316529921259843
21
0.1036738976377953
0
LINE
8
BLACK
6
CONTINUOUS
10
1.3316529921259843
20
0.1036738976377953
11
1.3212976377952756
21
0.1119320472440945
0
LINE
8
BLACK
6
CONTINUOUS
10
1.3212976377952756
20
0.1119320472440945
11
1.3119320472440945
21
0.1212976377952756
0
LINE
8
BLACK
6
CONTINUOUS
10
1.3119320472440945
20
0.1212976377952756
11
1.3036738976377953
21
0.1316529921259842
0
LINE
8
BLACK
6
CONTINUOUS
10
1.3036738976377953
20
0.1316529921259842
11
1.2966271653543306
21
0.1428678346456693
0
LINE
8
BLACK
6
CONTINUOUS
10
1.2966271653543306
20
0.1428678346456693
11
1.2908803543307086
21
0.1548011811023622
0
LINE
8
BLACK
6
CONTINUOUS
10
1.2908803543307086
20
0.1548011811023622
11
1.2865058267716536
21
0.167302874015748
0
LINE
8
BLACK
6
CONTINUOUS
10
1.2865058267716536
20
0.167302874015748
11
1.2835585433070866
21
0.1802157874015748
0
LINE
8
BLACK
6
CONTINUOUS
10
1.2835585433070866
20
0.1802157874015748
11
1.2820755905511811
21
0.1933775196850394
0
LINE
8
BLACK
6
CONTINUOUS
10
1.2820755905511811
20
0.1933775196850394
11
1.2820755905511811
21
0.2066224803149606
0
LINE
8
BLACK
6
CONTINUOUS
10
1.2820755905511811
20
0.2066224803149606
11
1.2835585433070866
21
0.2197842125984252
0
LINE
8
BLACK
6
CONTINUOUS
10
1.2835585433070866
20
0.2197842125984252
11
1.2865058267716536
21
0.232697125984252
0
LINE
8
BLACK
6
CONTINUOUS
10
1.2865058267716536
20
0.232697125984252
11
1.2908803543307086
21
0.2451988188976378
0
LINE
8
BLACK
6
CONTINUOUS
10
1.2908803543307086
20
0.2451988188976378
11
1.2966271653543306
21
0.2571321653543307
0
LINE
8
BLACK
6
CONTINUOUS
10
1.2966271653543306
20
0.2571321653543307
11
1.3036738976377953
21
0.2683470078740157
0
LINE
8
BLACK
6
CONTINUOUS
10
1.3036738976377953
20
0.2683470078740157
11
1.3119320472440945
21
0.2787023622047244
0
LINE
8
BLACK
6
CONTINUOUS
10
1.3119320472440945
20
0.2787023622047244
11
1.3212976377952756
21
0.2880679527559055
0
LINE
8
BLACK
6
CONTINUOUS
10
1.3212976377952756
20
0.2880679527559055
11
1.3316529921259843
21
0.2963261023622047
0
LINE
8
BLACK
6
CONTINUOUS
10
1.3316529921259843
20
0.2963261023622047
11
1.3428678346456693
21
0.3033728346456693
0
LINE
8
BLACK
6
CONTINUOUS
10
1.3428678346456693
20
0.3033728346456693
11
1.3548011811023621
21
0.3091196456692913
0
LINE
8
BLACK
6
CONTINUOUS
10
1.3548011811023621
20
0.3091196456692913
11
1.367302874015748
21
0.3134941732283464
0
LINE
8
BLACK
6
CONTINUOUS
10
1.367302874015748
20
0.3134941732283464
11
1.3802157874015748
21
0.3164414566929134
0
LINE
8
BLACK
6
CONTINUOUS
10
1.3802157874015748
20
0.3164414566929134
11
1.3933775196850393
21
0.3179244094488189
0
LINE
8
BLACK
6
CONTINUOUS
10
1.3933775196850393
20
0.3179244094488189
11
1.4066224803149605
21
0.3179244094488189
0
LINE
8
BLACK
6
CONTINUOUS
10
1.4066224803149605
20
0.3179244094488189
11
1.4197842125984252
21
0.3164414566929134
0
LINE
8
BLACK
6
CONTINUOUS
10
1.1117139370078739
20
1.509208464566929
11
1.1135480708661416
21
1.5070992519685038
0
LINE
8
BLACK
6
CONTINUOUS
10
1.1135480708661416
20
1.5070992519685038
11
1.1139999999999999
21
1.5050305905511812
0
LINE
8
BLACK
6
CONTINUOUS
10
1.1139999999999999
20
1.5050305905511812
11
1.1139999999999999
21
1.2636817322834646
0
LINE
8
BLACK
6
CONTINUOUS
10
1.1139999999999999
20
1.2636817322834646
11
1.1132125196850393
21
1.2609998031496064
0
LINE
8
BLACK
6
CONTINUOUS
10
1.1132125196850393
20
1.2609998031496064
11
1.1111000787401575
21
1.2591693700787401
0
LINE
8
BLACK
6
CONTINUOUS
10
1.1111000787401575
20
1.2591693700787401
11
1.1107732283464566
21
1.2590339763779528
0
LINE
8
BLACK
6
CONTINUOUS
10
1.1107732283464566
20
1.2590339763779528
11
1.1056500393700788
21
1.2571231889763779
0
LINE
8
BLACK
6
CONTINUOUS
10
1.1056500393700788
20
1.2571231889763779
11
1.1034273228346456
21
1.2554592913385827
0
LINE
8
BLACK
6
CONTINUOUS
10
1.1034273228346456
20
1.2554592913385827
11
1.1012045669291339
21
1.2537953937007873
0
LINE
8
BLACK
6
CONTINUOUS
10
1.1012045669291339
20
1.2537953937007873
11
1.0978767716535434
21
1.2493498818897637
0
LINE
8
BLACK
6
CONTINUOUS
10
1.0978767716535434
20
1.2493498818897637
11
1.0959362598425197
21
1.2441470866141733
0
LINE
8
BLACK
6
CONTINUOUS
10
1.0959362598425197
20
1.2441470866141733
11
1.0956889763779527
21
1.2418473228346456
0
LINE
8
BLACK
6
CONTINUOUS
10
1.0956889763779527
20
1.2418473228346456
11
1.0956889763779527
21
1.0881532677165353
0
LINE
8
BLACK
6
CONTINUOUS
10
1.0956889763779527
20
1.0881532677165353
11
1.0956890551181102
21
1.0881524409448819
0
LINE
8
BLACK
6
CONTINUOUS
10
1.0956890551181102
20
1.0881524409448819
11
1.0959361811023622
21
1.0858531889763778
0
LINE
8
BLACK
6
CONTINUOUS
10
1.0959361811023622
20
1.0858531889763778
11
1.0959362598425197
21
1.0858529133858268
0
LINE
8
BLACK
6
CONTINUOUS
10
1.0959362598425197
20
1.0858529133858268
11
1.0978767716535434
21
1.0806500787401574
0
LINE
8
BLACK
6
CONTINUOUS
10
1.0978767716535434
20
1.0806500787401574
11
1.1012045669291339
21
1.0762045669291338
0
LINE
8
BLACK
6
CONTINUOUS
10
1.1012045669291339
20
1.0762045669291338
11
1.1056500393700788
21
1.0728767716535432
0
LINE
8
BLACK
6
CONTINUOUS
10
1.1056500393700788
20
1.0728767716535432
11
1.1107729133858268
21
1.0709661023622048
0
LINE
8
BLACK
6
CONTINUOUS
10
1.1107729133858268
20
1.0709661023622048
11
1.1130105511811024
21
1.0692910236220472
0
LINE
8
BLACK
6
CONTINUOUS
10
1.1130105511811024
20
1.0692910236220472
11
1.1139873622047243
21
1.066672125984252
0
LINE
8
BLACK
6
CONTINUOUS
10
1.1139873622047243
20
1.066672125984252
11
1.1139999999999999
21
1.0663182283464567
0
LINE
8
BLACK
6
CONTINUOUS
10
1.1139999999999999
20
1.0663182283464567
11
1.1139999999999999
21
1.0620000000000001
0
LINE
8
BLACK
6
CONTINUOUS
10
1.1139999999999999
20
1.0620000000000001
11
1.4675252755905512
21
1.0620000000000001
0
LINE
8
BLACK
6
CONTINUOUS
10
1.4675252755905512
20
1.0620000000000001
11
1.4702072047244095
21
1.0612125196850393
0
LINE
8
BLACK
6
CONTINUOUS
10
1.4702072047244095
20
1.0612125196850393
11
1.4720376377952755
21
1.0591000787401574
0
LINE
8
BLACK
6
CONTINUOUS
10
1.4720376377952755
20
1.0591000787401574
11
1.4724858661417322
21
1.0570252755905511
0
LINE
8
BLACK
6
CONTINUOUS
10
1.4724858661417322
20
1.0570252755905511
11
1.4720140551181102
21
0.8909465354330709
0
LINE
8
BLACK
6
CONTINUOUS
10
1.4720140551181102
20
0.8909465354330709
11
1.4712189763779526
21
0.8882668503937008
0
LINE
8
BLACK
6
CONTINUOUS
10
1.4712189763779526
20
0.8882668503937008
11
1.4691013385826772
21
0.8864424409448819
0
LINE
8
BLACK
6
CONTINUOUS
10
1.4691013385826772
20
0.8864424409448819
11
1.4670534645669291
21
0.886
0
LINE
8
BLACK
6
CONTINUOUS
10
1.4670534645669291
20
0.886
11
0.9613175196850393
21
0.886
0
LINE
8
BLACK
6
CONTINUOUS
10
0.9613175196850393
20
0.886
11
0.9586355905511811
21
0.8867874803149606
0
LINE
8
BLACK
6
CONTINUOUS
10
0.9586355905511811
20
0.8867874803149606
11
0.9575129133858268
21
0.8877774015748031
0
LINE
8
BLACK
6
CONTINUOUS
10
0.9575129133858268
20
0.8877774015748031
11
0.9361560236220472
21
0.9133033464566929
0
LINE
8
BLACK
6
CONTINUOUS
10
0.9361560236220472
20
0.9133033464566929
11
0.9350390157480315
21
0.9158656299212599
0
LINE
8
BLACK
6
CONTINUOUS
10
0.9350390157480315
20
0.9158656299212599
11
0.9349999999999999
21
0.9164865748031495
0
LINE
8
BLACK
6
CONTINUOUS
10
0.9349999999999999
20
0.9164865748031495
11
0.9349999999999999
21
1.5047331102362205
0
LINE
8
BLACK
6
CONTINUOUS
10
0.9349999999999999
20
1.5047331102362205
11
0.9357874803149606
21
1.5074150393700787
0
LINE
8
BLACK
6
CONTINUOUS
10
0.9357874803149606
20
1.5074150393700787
11
0.9378999212598425
21
1.5092454724409448
0
LINE
8
BLACK
6
CONTINUOUS
10
0.9378999212598425
20
1.5092454724409448
11
0.9399518897637795
21
1.5096937401574804
0
LINE
8
BLACK
6
CONTINUOUS
10
0.9399518897637795
20
1.5096937401574804
11
1.1090306299212598
21
1.5099912204724408
0
LINE
8
BLACK
6
CONTINUOUS
10
1.1090306299212598
20
1.5099912204724408
11
1.1117139370078739
21
1.509208464566929
0
LINE
8
BLACK
6
CONTINUOUS
10
0.2856496062992126
20
1.0275000000000001
11
0.1356496062992126
21
1.0275000000000001
0
LINE
8
BLACK
6
CONTINUOUS
10
0.1356496062992126
20
1.0275000000000001
11
0.1356496062992126
21
1.1775
0
LINE
8
BLACK
6
CONTINUOUS
10
0.1356496062992126
20
1.1775
11
0.2856496062992126
21
1.1775
0
LINE
8
BLACK
6
CONTINUOUS
10
0.2856496062992126
20
1.1775
11
0.2856496062992126
21
1.0275000000000001
0
LINE
8
BLACK
6
CONTINUOUS
10
0.4825
20
1.0275000000000001
11
0.3325
21
1.0275000000000001
0
LINE
8
BLACK
6
CONTINUOUS
10
0.3325
20
1.0275000000000001
11
0.3325
21
1.1775
0
LINE
8
BLACK
6
CONTINUOUS
10
0.3325
20
1.1775
11
0.4825
21
1.1775
0
LINE
8
BLACK
6
CONTINUOUS
10
0.4825
20
1.1775
11
0.4825
21
1.0275000000000001
0
LINE
8
BLACK
6
CONTINUOUS
10
0.2197842125984252
20
1.5164414566929134
11
0.232697125984252
21
1.5134941732283465
0
LINE
8
BLACK
6
CONTINUOUS
10
0.232697125984252
20
1.5134941732283465
11
0.2451988188976378
21
1.5091196456692912
0
LINE
8
BLACK
6
CONTINUOUS
10
0.2451988188976378
20
1.5091196456692912
11
0.2571321653543307
21
1.5033728346456692
0
LINE
8
BLACK
6
CONTINUOUS
10
0.2571321653543307
20
1.5033728346456692
11
0.2683470078740157
21
1.4963261023622048
0
LINE
8
BLACK
6
CONTINUOUS
10
0.2683470078740157
20
1.4963261023622048
11
0.2787023622047244
21
1.4880679527559055
0
LINE
8
BLACK
6
CONTINUOUS
10
0.2787023622047244
20
1.4880679527559055
11
0.2880679527559055
21
1.4787023622047244
0
LINE
8
BLACK
6
CONTINUOUS
10
0.2880679527559055
20
1.4787023622047244
11
0.2963261023622047
21
1.4683470078740157
0
LINE
8
BLACK
6
CONTINUOUS
10
0.2963261023622047
20
1.4683470078740157
11
0.3033728346456693
21
1.4571321653543308
0
LINE
8
BLACK
6
CONTINUOUS
10
0.3033728346456693
20
1.4571321653543308
11
0.3091196456692913
21
1.4451988188976377
0
LINE
8
BLACK
6
CONTINUOUS
10
0.3091196456692913
20
1.4451988188976377
11
0.3134941732283464
21
1.432697125984252
0
LINE
8
BLACK
6
CONTINUOUS
10
0.3134941732283464
20
1.432697125984252
11
0.3164414566929134
21
1.4197842125984252
0
LINE
8
BLACK
6
CONTINUOUS
10
0.3164414566929134
20
1.4197842125984252
11
0.3179244094488189
21
1.4066224803149605
0
LINE
8
BLACK
6
CONTINUOUS
10
0.3179244094488189
20
1.4066224803149605
11
0.3179244094488189
21
1.3933775196850393
0
LINE
8
BLACK
6
CONTINUOUS
10
0.3179244094488189
20
1.3933775196850393
11
0.3164414566929134
21
1.3802157874015748
0
LINE
8
BLACK
6
CONTINUOUS
10
0.3164414566929134
20
1.3802157874015748
11
0.3134941732283464
21
1.367302874015748
0
LINE
8
BLACK
6
CONTINUOUS
10
0.3134941732283464
20
1.367302874015748
11
0.3091196456692913
21
1.3548011811023621
0
LINE
8
BLACK
6
CONTINUOUS
10
0.3091196456692913
20
1.3548011811023621
11
0.3033728346456693
21
1.3428678346456693
0
LINE
8
BLACK
6
CONTINUOUS
10
0.3033728346456693
20
1.3428678346456693
11
0.2963261023622047
21
1.3316529921259843
0
LINE
8
BLACK
6
CONTINUOUS
10
0.2963261023622047
20
1.3316529921259843
11
0.2880679527559055
21
1.3212976377952756
0
LINE
8
BLACK
6
CONTINUOUS
10
0.2880679527559055
20
1.3212976377952756
11
0.2787023622047244
21
1.3119320472440945
0
LINE
8
BLACK
6
CONTINUOUS
10
0.2787023622047244
20
1.3119320472440945
11
0.2683470078740157
21
1.3036738976377953
0
LINE
8
BLACK
6
CONTINUOUS
10
0.2683470078740157
20
1.3036738976377953
11
0.2571321653543307
21
1.2966271653543306
0
LINE
8
BLACK
6
CONTINUOUS
10
0.2571321653543307
20
1.2966271653543306
11
0.2451988188976378
21
1.2908803543307086
0
LINE
8
BLACK
6
CONTINUOUS
10
0.2451988188976378
20
1.2908803543307086
11
0.232697125984252
21
1.2865058267716536
0
LINE
8
BLACK
6
CONTINUOUS
10
0.232697125984252
20
1.2865058267716536
11
0.2197842125984252
21
1.2835585433070866
0
LINE
8
BLACK
6
CONTINUOUS
10
0.2197842125984252
20
1.2835585433070866
11
0.2066224803149606
21
1.2820755905511811
0
LINE
8
BLACK
6
CONTINUOUS
10
0.2066224803149606
20
1.2820755905511811
11
0.1933775196850394
21
1.2820755905511811
0
LINE
8
BLACK
6
CONTINUOUS
10
0.1933775196850394
20
1.2820755905511811
11
0.1802157874015748
21
1.2835585433070866
0
LINE
8
BLACK
6
CONTINUOUS
10
0.1802157874015748
20
1.2835585433070866
11
0.167302874015748
21
1.2865058267716536
0
LINE
8
BLACK
6
CONTINUOUS
10
0.167302874015748
20
1.2865058267716536
11
0.1548011811023622
21
1.2908803543307086
0
LINE
8
BLACK
6
CONTINUOUS
10
0.1548011811023622
20
1.2908803543307086
11
0.1428678346456693
21
1.2966271653543306
0
LINE
8
BLACK
6
CONTINUOUS
10
0.1428678346456693
20
1.2966271653543306
11
0.1316529921259842
21
1.3036738976377953
0
LINE
8
BLACK
6
CONTINUOUS
10
0.1316529921259842
20
1.3036738976377953
11
0.1212976377952756
21
1.3119320472440945
0
LINE
8
BLACK
6
CONTINUOUS
10
0.1212976377952756
20
1.3119320472440945
11
0.1119320472440945
21
1.3212976377952756
0
LINE
8
BLACK
6
CONTINUOUS
10
0.1119320472440945
20
1.3212976377952756
11
0.1036738976377953
21
1.3316529921259843
0
LINE
8
BLACK
6
CONTINUOUS
10
0.1036738976377953
20
1.3316529921259843
11
0.0966271653543307
21
1.3428678346456693
0
LINE
8
BLACK
6
CONTINUOUS
10
0.0966271653543307
20
1.3428678346456693
11
0.0908803543307087
21
1.3548011811023621
0
LINE
8
BLACK
6
CONTINUOUS
10
0.0908803543307087
20
1.3548011811023621
11
0.0865058267716535
21
1.367302874015748
0
LINE
8
BLACK
6
CONTINUOUS
10
0.0865058267716535
20
1.367302874015748
11
0.0835585433070866
21
1.3802157874015748
0
LINE
8
BLACK
6
CONTINUOUS
10
0.0835585433070866
20
1.3802157874015748
11
0.0820755905511811
21
1.3933775196850393
0
LINE
8
BLACK
6
CONTINUOUS
10
0.0820755905511811
20
1.3933775196850393
11
0.0820755905511811
21
1.4066224803149605
0
LINE
8
BLACK
6
CONTINUOUS
10
0.0820755905511811
20
1.4066224803149605
11
0.0835585433070866
21
1.4197842125984252
0
LINE
8
BLACK
6
CONTINUOUS
10
0.0835585433070866
20
1.4197842125984252
11
0.0865058267716535
21
1.432697125984252
0
LINE
8
BLACK
6
CONTINUOUS
10
0.0865058267716535
20
1.432697125984252
11
0.0908803543307087
21
1.4451988188976377
0
LINE
8
BLACK
6
CONTINUOUS
10
0.0908803543307087
20
1.4451988188976377
11
0.0966271653543307
21
1.4571321653543308
0
LINE
8
BLACK
6
CONTINUOUS
10
0.0966271653543307
20
1.4571321653543308
11
0.1036738976377953
21
1.4683470078740157
0
LINE
8
BLACK
6
CONTINUOUS
10
0.1036738976377953
20
1.4683470078740157
11
0.1119320472440945
21
1.4787023622047244
0
LINE
8
BLACK
6
CONTINUOUS
10
0.1119320472440945
20
1.4787023622047244
11
0.1212976377952756
21
1.4880679527559055
0
LINE
8
BLACK
6
CONTINUOUS
10
0.1212976377952756
20
1.4880679527559055
11
0.1316529921259842
21
1.4963261023622048
0
LINE
8
BLACK
6
CONTINUOUS
10
0.1316529921259842
20
1.4963261023622048
11
0.1428678346456693
21
1.5033728346456692
0
LINE
8
BLACK
6
CONTINUOUS
10
0.1428678346456693
20
1.5033728346456692
11
0.1548011811023622
21
1.5091196456692912
0
LINE
8
BLACK
6
CONTINUOUS
10
0.1548011811023622
20
1.5091196456692912
11
0.167302874015748
21
1.5134941732283465
0
LINE
8
BLACK
6
CONTINUOUS
10
0.167302874015748
20
1.5134941732283465
11
0.1802157874015748
21
1.5164414566929134
0
LINE
8
BLACK
6
CONTINUOUS
10
0.1802157874015748
20
1.5164414566929134
11
0.1933775196850394
21
1.5179244094488189
0
LINE
8
BLACK
6
CONTINUOUS
10
0.1933775196850394
20
1.5179244094488189
11
0.2066224803149606
21
1.5179244094488189
0
LINE
8
BLACK
6
CONTINUOUS
10
0.2066224803149606
20
1.5179244094488189
11
0.2197842125984252
21
1.5164414566929134
0
LINE
8
BLACK
6
CONTINUOUS
10
1.4197842125984252
20
1.5164414566929134
11
1.432697125984252
21
1.5134941732283465
0
LINE
8
BLACK
6
CONTINUOUS
10
1.432697125984252
20
1.5134941732283465
11
1.4451988188976377
21
1.5091196456692912
0
LINE
8
BLACK
6
CONTINUOUS
10
1.4451988188976377
20
1.5091196456692912
11
1.4571321653543308
21
1.5033728346456692
0
LINE
8
BLACK
6
CONTINUOUS
10
1.4571321653543308
20
1.5033728346456692
11
1.4683470078740157
21
1.4963261023622048
0
LINE
8
BLACK
6
CONTINUOUS
10
1.4683470078740157
20
1.4963261023622048
11
1.4787023622047244
21
1.4880679527559055
0
LINE
8
BLACK
6
CONTINUOUS
10
1.4787023622047244
20
1.4880679527559055
11
1.4880679527559055
21
1.4787023622047244
0
LINE
8
BLACK
6
CONTINUOUS
10
1.4880679527559055
20
1.4787023622047244
11
1.4963261023622048
21
1.4683470078740157
0
LINE
8
BLACK
6
CONTINUOUS
10
1.4963261023622048
20
1.4683470078740157
11
1.5033728346456692
21
1.4571321653543308
0
LINE
8
BLACK
6
CONTINUOUS
10
1.5033728346456692
20
1.4571321653543308
11
1.5091196456692912
21
1.4451988188976377
0
LINE
8
BLACK
6
CONTINUOUS
10
1.5091196456692912
20
1.4451988188976377
11
1.5134941732283465
21
1.432697125984252
0
LINE
8
BLACK
6
CONTINUOUS
10
1.5134941732283465
20
1.432697125984252
11
1.5164414566929134
21
1.4197842125984252
0
LINE
8
BLACK
6
CONTINUOUS
10
1.5164414566929134
20
1.4197842125984252
11
1.5179244094488189
21
1.4066224803149605
0
LINE
8
BLACK
6
CONTINUOUS
10
1.5179244094488189
20
1.4066224803149605
11
1.5179244094488189
21
1.3933775196850393
0
LINE
8
BLACK
6
CONTINUOUS
10
1.5179244094488189
20
1.3933775196850393
11
1.5164414566929134
21
1.3802157874015748
0
LINE
8
BLACK
6
CONTINUOUS
10
1.5164414566929134
20
1.3802157874015748
11
1.5134941732283465
21
1.367302874015748
0
LINE
8
BLACK
6
CONTINUOUS
10
1.5134941732283465
20
1.367302874015748
11
1.5091196456692912
21
1.3548011811023621
0
LINE
8
BLACK
6
CONTINUOUS
10
1.5091196456692912
20
1.3548011811023621
11
1.5033728346456692
21
1.3428678346456693
0
LINE
8
BLACK
6
CONTINUOUS
10
1.5033728346456692
20
1.3428678346456693
11
1.4963261023622048
21
1.3316529921259843
0
LINE
8
BLACK
6
CONTINUOUS
10
1.4963261023622048
20
1.3316529921259843
11
1.4880679527559055
21
1.3212976377952756
0
LINE
8
BLACK
6
CONTINUOUS
10
1.4880679527559055
20
1.3212976377952756
11
1.4787023622047244
21
1.3119320472440945
0
LINE
8
BLACK
6
CONTINUOUS
10
1.4787023622047244
20
1.3119320472440945
11
1.4683470078740157
21
1.3036738976377953
0
LINE
8
BLACK
6
CONTINUOUS
10
1.4683470078740157
20
1.3036738976377953
11
1.4571321653543308
21
1.2966271653543306
0
LINE
8
BLACK
6
CONTINUOUS
10
1.4571321653543308
20
1.2966271653543306
11
1.4451988188976377
21
1.2908803543307086
0
LINE
8
BLACK
6
CONTINUOUS
10
1.4451988188976377
20
1.2908803543307086
11
1.432697125984252
21
1.2865058267716536
0
LINE
8
BLACK
6
CONTINUOUS
10
1.432697125984252
20
1.2865058267716536
11
1.4197842125984252
21
1.2835585433070866
0
LINE
8
BLACK
6
CONTINUOUS
10
1.4197842125984252
20
1.2835585433070866
11
1.4066224803149605
21
1.2820755905511811
0
LINE
8
BLACK
6
CONTINUOUS
10
1.4066224803149605
20
1.2820755905511811
11
1.3933775196850393
21
1.2820755905511811
0
LINE
8
BLACK
6
CONTINUOUS
10
1.3933775196850393
20
1.2820755905511811
11
1.3802157874015748
21
1.2835585433070866
0
LINE
8
BLACK
6
CONTINUOUS
10
1.3802157874015748
20
1.2835585433070866
11
1.367302874015748
21
1.2865058267716536
0
LINE
8
BLACK
6
CONTINUOUS
10
1.367302874015748
20
1.2865058267716536
11
1.3548011811023621
21
1.2908803543307086
0
LINE
8
BLACK
6
CONTINUOUS
10
1.3548011811023621
20
1.2908803543307086
11
1.3428678346456693
21
1.2966271653543306
0
LINE
8
BLACK
6
CONTINUOUS
10
1.3428678346456693
20
1.2966271653543306
11
1.3316529921259843
21
1.3036738976377953
0
LINE
8
BLACK
6
CONTINUOUS
10
1.3316529921259843
20
1.3036738976377953
11
1.3212976377952756
21
1.3119320472440945
0
LINE
8
BLACK
6
CONTINUOUS
10
1.3212976377952756
20
1.3119320472440945
11
1.3119320472440945
21
1.3212976377952756
0
LINE
8
BLACK
6
CONTINUOUS
10
1.3119320472440945
20
1.3212976377952756
11
1.3036738976377953
21
1.3316529921259843
0
LINE
8
BLACK
6
CONTINUOUS
10
1.3036738976377953
20
1.3316529921259843
11
1.2966271653543306
21
1.3428678346456693
0
LINE
8
BLACK
6
CONTINUOUS
10
1.2966271653543306
20
1.3428678346456693
11
1.2908803543307086
21
1.3548011811023621
0
LINE
8
BLACK
6
CONTINUOUS
10
1.2908803543307086
20
1.3548011811023621
11
1.2865058267716536
21
1.367302874015748
0
LINE
8
BLACK
6
CONTINUOUS
10
1.2865058267716536
20
1.367302874015748
11
1.2835585433070866
21
1.3802157874015748
0
LINE
8
BLACK
6
CONTINUOUS
10
1.2835585433070866
20
1.3802157874015748
11
1.2820755905511811
21
1.3933775196850393
0
LINE
8
BLACK
6
CONTINUOUS
10
1.2820755905511811
20
1.3933775196850393
11
1.2820755905511811
21
1.4066224803149605
0
LINE
8
BLACK
6
CONTINUOUS
10
1.2820755905511811
20
1.4066224803149605
11
1.2835585433070866
21
1.4197842125984252
0
LINE
8
BLACK
6
CONTINUOUS
10
1.2835585433070866
20
1.4197842125984252
11
1.2865058267716536
21
1.432697125984252
0
LINE
8
BLACK
6
CONTINUOUS
10
1.2865058267716536
20
1.432697125984252
11
1.2908803543307086
21
1.4451988188976377
0
LINE
8
BLACK
6
CONTINUOUS
10
1.2908803543307086
20
1.4451988188976377
11
1.2966271653543306
21
1.4571321653543308
0
LINE
8
BLACK
6
CONTINUOUS
10
1.2966271653543306
20
1.4571321653543308
11
1.3036738976377953
21
1.4683470078740157
0
LINE
8
BLACK
6
CONTINUOUS
10
1.3036738976377953
20
1.4683470078740157
11
1.3119320472440945
21
1.4787023622047244
0
LINE
8
BLACK
6
CONTINUOUS
10
1.3119320472440945
20
1.4787023622047244
11
1.3212976377952756
21
1.4880679527559055
0
LINE
8
BLACK
6
CONTINUOUS
10
1.3212976377952756
20
1.4880679527559055
11
1.3316529921259843
21
1.4963261023622048
0
LINE
8
BLACK
6
CONTINUOUS
10
1.3316529921259843
20
1.4963261023622048
11
1.3428678346456693
21
1.5033728346456692
0
LINE
8
BLACK
6
CONTINUOUS
10
1.3428678346456693
20
1.5033728346456692
11
1.3548011811023621
21
1.5091196456692912
0
LINE
8
BLACK
6
CONTINUOUS
10
1.3548011811023621
20
1.5091196456692912
11
1.367302874015748
21
1.5134941732283465
0
LINE
8
BLACK
6
CONTINUOUS
10
1.367302874015748
20
1.5134941732283465
11
1.3802157874015748
21
1.5164414566929134
0
LINE
8
BLACK
6
CONTINUOUS
10
1.3802157874015748
20
1.5164414566929134
11
1.3933775196850393
21
1.5179244094488189
0
LINE
8
BLACK
6
CONTINUOUS
10
1.3933775196850393
20
1.5179244094488189
11
1.4066224803149605
21
1.5179244094488189
0
LINE
8
BLACK
6
CONTINUOUS
10
1.4066224803149605
20
1.5179244094488189
11
1.4197842125984252
21
1.5164414566929134
0
LINE
8
BLACK
6
CONTINUOUS
10
0.5575
20
1.3225
11
0.4925
21
1.3225
0
LINE
8
BLACK
6
CONTINUOUS
10
0.4925
20
1.3225
11
0.4925
21
1.3875
0
LINE
8
BLACK
6
CONTINUOUS
10
0.4925
20
1.3875
11
0.5575
21
1.3875
0
LINE
8
BLACK
6
CONTINUOUS
10
0.5575
20
1.3875
11
0.5575
21
1.3225
0
LINE
8
BLACK
6
CONTINUOUS
10
0.6575
20
1.3225
11
0.5925
21
1.3225
0
LINE
8
BLACK
6
CONTINUOUS
10
0.5925
20
1.3225
11
0.5925
21
1.3875
0
LINE
8
BLACK
6
CONTINUOUS
10
0.5925
20
1.3875
11
0.6575
21
1.3875
0
LINE
8
BLACK
6
CONTINUOUS
10
0.6575
20
1.3875
11
0.6575
21
1.3225
0
LINE
8
BLACK
6
CONTINUOUS
10
0.5575
20
1.4224999999999999
11
0.4925
21
1.4224999999999999
0
LINE
8
BLACK
6
CONTINUOUS
10
0.4925
20
1.4224999999999999
11
0.4925
21
1.4875
0
LINE
8
BLACK
6
CONTINUOUS
10
0.4925
20
1.4875
11
0.5575
21
1.4875
0
LINE
8
BLACK
6
CONTINUOUS
10
0.5575
20
1.4875
11
0.5575
21
1.4224999999999999
0
LINE
8
BLACK
6
CONTINUOUS
10
0.6575
20
1.4224999999999999
11
0.5925
21
1.4224999999999999
0
LINE
8
BLACK
6
CONTINUOUS
10
0.5925
20
1.4224999999999999
11
0.5925
21
1.4875
0
LINE
8
BLACK
6
CONTINUOUS
10
0.5925
20
1.4875
11
0.6575
21
1.4875
0
LINE
8
BLACK
6
CONTINUOUS
10
0.6575
20
1.4875
11
0.6575
21
1.4224999999999999
0
LINE
8
BLACK
6
CONTINUOUS
10
1.5679378346456692
20
1.5694290551181103
11
1.5697682677165354
21
1.5673166141732282
0
LINE
8
BLACK
6
CONTINUOUS
10
1.5697682677165354
20
1.5673166141732282
11
1.5702165354330708
21
1.5652559055118109
0
LINE
8
BLACK
6
CONTINUOUS
10
1.5702165354330708
20
1.5652559055118109
11
1.5702165354330708
21
0.034744094488189
0
LINE
8
BLACK
6
CONTINUOUS
10
1.5702165354330708
20
0.034744094488189
11
1.5694290551181103
21
0.0320621653543307
0
LINE
8
BLACK
6
CONTINUOUS
10
1.5694290551181103
20
0.0320621653543307
11
1.5673166141732282
21
0.0302317322834646
0
LINE
8
BLACK
6
CONTINUOUS
10
1.5673166141732282
20
0.0302317322834646
11
1.5652559055118109
21
0.0297834645669291
0
LINE
8
BLACK
6
CONTINUOUS
10
1.5652559055118109
20
0.0297834645669291
11
0.034744094488189
21
0.0297834645669291
0
LINE
8
BLACK
6
CONTINUOUS
10
0.034744094488189
20
0.0297834645669291
11
0.0320621653543307
21
0.0305709448818898
0
LINE
8
BLACK
6
CONTINUOUS
10
0.0320621653543307
20
0.0305709448818898
11
0.0302317322834646
21
0.0326833858267717
0
LINE
8
BLACK
6
CONTINUOUS
10
0.0302317322834646
20
0.0326833858267717
11
0.0297834645669291
21
0.034744094488189
0
LINE
8
BLACK
6
CONTINUOUS
10
0.0297834645669291
20
0.034744094488189
11
0.0297834645669291
21
0.2077377165354331
0
LINE
8
BLACK
6
CONTINUOUS
10
0.0297834645669291
20
0.2077377165354331
11
0.0297834645669291
21
0.3718473228346457
0
LINE
8
BLACK
6
CONTINUOUS
10
0.0297834645669291
20
0.3718473228346457
11
0.0297834645669291
21
1.1793473228346456
0
LINE
8
BLACK
6
CONTINUOUS
10
0.0297834645669291
20
1.1793473228346456
11
0.0297834645669291
21
1.407737716535433
0
LINE
8
BLACK
6
CONTINUOUS
10
0.0297834645669291
20
1.407737716535433
11
0.0297834645669291
21
1.5652559055118109
0
LINE
8
BLACK
6
CONTINUOUS
10
0.0297834645669291
20
1.5652559055118109
11
0.0305709448818898
21
1.5679378346456692
0
LINE
8
BLACK
6
CONTINUOUS
10
0.0305709448818898
20
1.5679378346456692
11
0.0326833858267717
21
1.5697682677165354
0
LINE
8
BLACK
6
CONTINUOUS
10
0.0326833858267717
20
1.5697682677165354
11
0.034744094488189
21
1.5702165354330708
0
LINE
8
BLACK
6
CONTINUOUS
10
0.034744094488189
20
1.5702165354330708
11
1.5652559055118109
21
1.5702165354330708
0
LINE
8
BLACK
6
CONTINUOUS
10
1.5652559055118109
20
1.5702165354330708
11
1.5679378346456692
21
1.5694290551181103
0
LINE
8
BLACK
6
CONTINUOUS
10
0.8431529921259843
20
0.3893109842519685
11
0.8418134251968504
21
0.389166968503937
0
LINE
8
BLACK
6
CONTINUOUS
10
0.8418134251968504
20
0.389166968503937
11
0.840853188976378
21
0.3890637795275591
0
LINE
8
BLACK
6
CONTINUOUS
10
0.840853188976378
20
0.3890637795275591
11
0.8408531102362204
21
0.3890637401574803
0
LINE
8
BLACK
6
CONTINUOUS
10
0.8408531102362204
20
0.3890637401574803
11
0.8408529527559055
21
0.3890637401574803
0
LINE
8
BLACK
6
CONTINUOUS
10
0.8408529527559055
20
0.3890637401574803
11
0.8356500393700788
21
0.3871231889763779
0
LINE
8
BLACK
6
CONTINUOUS
10
0.8356500393700788
20
0.3871231889763779
11
0.8323032283464566
21
0.3846177952755905
0
LINE
8
BLACK
6
CONTINUOUS
10
0.8323032283464566
20
0.3846177952755905
11
0.8312044881889764
21
0.3837953149606299
0
LINE
8
BLACK
6
CONTINUOUS
10
0.8312044881889764
20
0.3837953149606299
11
0.8310076771653543
21
0.3835985039370078
0
LINE
8
BLACK
6
CONTINUOUS
10
0.8310076771653543
20
0.3835985039370078
11
0.8285544488188976
21
0.3822588976377952
0
LINE
8
BLACK
6
CONTINUOUS
10
0.8285544488188976
20
0.3822588976377952
11
0.8257664566929134
21
0.3824583070866142
0
LINE
8
BLACK
6
CONTINUOUS
10
0.8257664566929134
20
0.3824583070866142
11
0.8239923228346456
21
0.3835985039370078
0
LINE
8
BLACK
6
CONTINUOUS
10
0.8239923228346456
20
0.3835985039370078
11
0.8237954724409449
21
0.3837953149606299
0
LINE
8
BLACK
6
CONTINUOUS
10
0.8237954724409449
20
0.3837953149606299
11
0.8237953937007874
21
0.3837953149606299
0
LINE
8
BLACK
6
CONTINUOUS
10
0.8237953937007874
20
0.3837953149606299
11
0.8237953937007874
21
0.3837953937007874
0
LINE
8
BLACK
6
CONTINUOUS
10
0.8237953937007874
20
0.3837953937007874
11
0.8193499606299213
21
0.3871231889763779
0
LINE
8
BLACK
6
CONTINUOUS
10
0.8193499606299213
20
0.3871231889763779
11
0.8141470472440945
21
0.3890637401574803
0
LINE
8
BLACK
6
CONTINUOUS
10
0.8141470472440945
20
0.3890637401574803
11
0.8118470472440945
21
0.3893110236220472
0
LINE
8
BLACK
6
CONTINUOUS
10
0.8118470472440945
20
0.3893110236220472
11
0.7431529921259842
21
0.3893109842519685
0
LINE
8
BLACK
6
CONTINUOUS
10
0.7431529921259842
20
0.3893109842519685
11
0.7418134251968503
21
0.389166968503937
0
LINE
8
BLACK
6
CONTINUOUS
10
0.7418134251968503
20
0.389166968503937
11
0.740853188976378
21
0.3890637795275591
0
LINE
8
BLACK
6
CONTINUOUS
10
0.740853188976378
20
0.3890637795275591
11
0.7408531102362205
21
0.3890637401574803
0
LINE
8
BLACK
6
CONTINUOUS
10
0.7408531102362205
20
0.3890637401574803
11
0.7408529527559055
21
0.3890637401574803
0
LINE
8
BLACK
6
CONTINUOUS
10
0.7408529527559055
20
0.3890637401574803
11
0.7356500393700788
21
0.3871231889763779
0
LINE
8
BLACK
6
CONTINUOUS
10
0.7356500393700788
20
0.3871231889763779
11
0.7323032283464567
21
0.3846177952755905
0
LINE
8
BLACK
6
CONTINUOUS
10
0.7323032283464567
20
0.3846177952755905
11
0.7312044881889763
21
0.3837953149606299
0
LINE
8
BLACK
6
CONTINUOUS
10
0.7312044881889763
20
0.3837953149606299
11
0.7310076771653543
21
0.3835985039370078
0
LINE
8
BLACK
6
CONTINUOUS
10
0.7310076771653543
20
0.3835985039370078
11
0.7285544488188976
21
0.3822588976377952
0
LINE
8
BLACK
6
CONTINUOUS
10
0.7285544488188976
20
0.3822588976377952
11
0.7257664566929134
21
0.3824583070866142
0
LINE
8
BLACK
6
CONTINUOUS
10
0.7257664566929134
20
0.3824583070866142
11
0.7239923228346457
21
0.3835985039370078
0
LINE
8
BLACK
6
CONTINUOUS
10
0.7239923228346457
20
0.3835985039370078
11
0.7237954724409449
21
0.3837953149606299
0
LINE
8
BLACK
6
CONTINUOUS
10
0.7237954724409449
20
0.3837953149606299
11
0.7237953937007874
21
0.3837953149606299
0
LINE
8
BLACK
6
CONTINUOUS
10
0.7237953937007874
20
0.3837953149606299
11
0.7237953937007874
21
0.3837953937007874
0
LINE
8
BLACK
6
CONTINUOUS
10
0.7237953937007874
20
0.3837953937007874
11
0.7193499606299213
21
0.3871231889763779
0
LINE
8
BLACK
6
CONTINUOUS
10
0.7193499606299213
20
0.3871231889763779
11
0.7141470472440945
21
0.3890637401574803
0
LINE
8
BLACK
6
CONTINUOUS
10
0.7141470472440945
20
0.3890637401574803
11
0.7118470472440944
21
0.3893110236220472
0
LINE
8
BLACK
6
CONTINUOUS
10
0.7118470472440944
20
0.3893110236220472
11
0.6431529921259842
21
0.3893109842519685
0
LINE
8
BLACK
6
CONTINUOUS
10
0.6431529921259842
20
0.3893109842519685
11
0.6418134251968504
21
0.389166968503937
0
LINE
8
BLACK
6
CONTINUOUS
10
0.6418134251968504
20
0.389166968503937
11
0.6408531889763779
21
0.3890637795275591
0
LINE
8
BLACK
6
CONTINUOUS
10
0.6408531889763779
20
0.3890637795275591
11
0.6408531102362205
21
0.3890637401574803
0
LINE
8
BLACK
6
CONTINUOUS
10
0.6408531102362205
20
0.3890637401574803
11
0.6408529527559055
21
0.3890637401574803
0
LINE
8
BLACK
6
CONTINUOUS
10
0.6408529527559055
20
0.3890637401574803
11
0.6356500393700787
21
0.3871231889763779
0
LINE
8
BLACK
6
CONTINUOUS
10
0.6356500393700787
20
0.3871231889763779
11
0.6334273228346456
21
0.3854592913385826
0
LINE
8
BLACK
6
CONTINUOUS
10
0.6334273228346456
20
0.3854592913385826
11
0.6312045669291338
21
0.3837953937007874
0
LINE
8
BLACK
6
CONTINUOUS
10
0.6312045669291338
20
0.3837953937007874
11
0.6278767716535433
21
0.3793498818897638
0
LINE
8
BLACK
6
CONTINUOUS
10
0.6278767716535433
20
0.3793498818897638
11
0.6259362598425197
21
0.3741470866141732
0
LINE
8
BLACK
6
CONTINUOUS
10
0.6259362598425197
20
0.3741470866141732
11
0.6256889763779527
21
0.3718473228346457
0
LINE
8
BLACK
6
CONTINUOUS
10
0.6256889763779527
20
0.3718473228346457
11
0.6256889763779527
21
0.3031532677165354
0
LINE
8
BLACK
6
CONTINUOUS
10
0.6256889763779527
20
0.3031532677165354
11
0.6256890551181102
21
0.3031524409448819
0
LINE
8
BLACK
6
CONTINUOUS
10
0.6256890551181102
20
0.3031524409448819
11
0.6259361811023622
21
0.300853188976378
0
LINE
8
BLACK
6
CONTINUOUS
10
0.6259361811023622
20
0.300853188976378
11
0.6259362598425197
21
0.3008529133858268
0
LINE
8
BLACK
6
CONTINUOUS
10
0.6259362598425197
20
0.3008529133858268
11
0.6278767716535433
21
0.2956500787401575
0
LINE
8
BLACK
6
CONTINUOUS
10
0.6278767716535433
20
0.2956500787401575
11
0.6312046456692914
21
0.2912044881889764
0
LINE
8
BLACK
6
CONTINUOUS
10
0.6312046456692914
20
0.2912044881889764
11
0.6314014960629921
21
0.2910076771653543
0
LINE
8
BLACK
6
CONTINUOUS
10
0.6314014960629921
20
0.2910076771653543
11
0.6327411023622047
21
0.2885544488188976
0
LINE
8
BLACK
6
CONTINUOUS
10
0.6327411023622047
20
0.2885544488188976
11
0.6325416929133858
21
0.2857664566929134
0
LINE
8
BLACK
6
CONTINUOUS
10
0.6325416929133858
20
0.2857664566929134
11
0.6314014960629921
21
0.2839923228346456
0
LINE
8
BLACK
6
CONTINUOUS
10
0.6314014960629921
20
0.2839923228346456
11
0.6312046456692914
21
0.2837954724409449
0
LINE
8
BLACK
6
CONTINUOUS
10
0.6312046456692914
20
0.2837954724409449
11
0.6278767716535433
21
0.2793498818897638
0
LINE
8
BLACK
6
CONTINUOUS
10
0.6278767716535433
20
0.2793498818897638
11
0.6259362598425197
21
0.2741470866141732
0
LINE
8
BLACK
6
CONTINUOUS
10
0.6259362598425197
20
0.2741470866141732
11
0.6256889763779527
21
0.2718473228346457
0
LINE
8
BLACK
6
CONTINUOUS
10
0.6256889763779527
20
0.2718473228346457
11
0.6256889763779527
21
0.2031532677165354
0
LINE
8
BLACK
6
CONTINUOUS
10
0.6256889763779527
20
0.2031532677165354
11
0.6256890551181102
21
0.2031524409448819
0
LINE
8
BLACK
6
CONTINUOUS
10
0.6256890551181102
20
0.2031524409448819
11
0.6259361811023622
21
0.2008531889763779
0
LINE
8
BLACK
6
CONTINUOUS
10
0.6259361811023622
20
0.2008531889763779
11
0.6259362598425197
21
0.2008529133858268
0
LINE
8
BLACK
6
CONTINUOUS
10
0.6259362598425197
20
0.2008529133858268
11
0.6278767716535433
21
0.1956500787401575
0
LINE
8
BLACK
6
CONTINUOUS
10
0.6278767716535433
20
0.1956500787401575
11
0.6312045669291338
21
0.1912045669291338
0
LINE
8
BLACK
6
CONTINUOUS
10
0.6312045669291338
20
0.1912045669291338
11
0.6356500787401574
21
0.1878767716535433
0
LINE
8
BLACK
6
CONTINUOUS
10
0.6356500787401574
20
0.1878767716535433
11
0.6408529133858267
21
0.1859362598425197
0
LINE
8
BLACK
6
CONTINUOUS
10
0.6408529133858267
20
0.1859362598425197
11
0.6408528346456692
21
0.1859362598425197
0
LINE
8
BLACK
6
CONTINUOUS
10
0.6408528346456692
20
0.1859362598425197
11
0.6431528740157481
21
0.1856889763779528
0
LINE
8
BLACK
6
CONTINUOUS
10
0.6431528740157481
20
0.1856889763779528
11
0.6431529527559054
21
0.1856889763779528
0
LINE
8
BLACK
6
CONTINUOUS
10
0.6431529527559054
20
0.1856889763779528
11
0.7118466929133858
21
0.1856889763779528
0
LINE
8
BLACK
6
CONTINUOUS
10
0.7118466929133858
20
0.1856889763779528
11
0.7118475196850393
21
0.1856890551181102
0
LINE
8
BLACK
6
CONTINUOUS
10
0.7118475196850393
20
0.1856890551181102
11
0.7141467716535433
21
0.1859361811023622
0
LINE
8
BLACK
6
CONTINUOUS
10
0.7141467716535433
20
0.1859361811023622
11
0.7141470472440945
21
0.1859362598425197
0
LINE
8
BLACK
6
CONTINUOUS
10
0.7141470472440945
20
0.1859362598425197
11
0.7193498818897638
21
0.1878767716535433
0
LINE
8
BLACK
6
CONTINUOUS
10
0.7193498818897638
20
0.1878767716535433
11
0.7193499606299213
21
0.1878768110236221
0
LINE
8
BLACK
6
CONTINUOUS
10
0.7193499606299213
20
0.1878768110236221
11
0.7237953543307086
21
0.1912045669291338
0
LINE
8
BLACK
6
CONTINUOUS
10
0.7237953543307086
20
0.1912045669291338
11
0.7237954724409449
21
0.1912046456692913
0
LINE
8
BLACK
6
CONTINUOUS
10
0.7237954724409449
20
0.1912046456692913
11
0.7239923228346457
21
0.1914014960629921
0
LINE
8
BLACK
6
CONTINUOUS
10
0.7239923228346457
20
0.1914014960629921
11
0.7264455511811023
21
0.1927411023622047
0
LINE
8
BLACK
6
CONTINUOUS
10
0.7264455511811023
20
0.1927411023622047
11
0.7292335433070866
21
0.1925416929133858
0
LINE
8
BLACK
6
CONTINUOUS
10
0.7292335433070866
20
0.1925416929133858
11
0.7310076771653543
21
0.1914014960629921
0
LINE
8
BLACK
6
CONTINUOUS
10
0.7310076771653543
20
0.1914014960629921
11
0.7312044881889763
21
0.1912046456692913
0
LINE
8
BLACK
6
CONTINUOUS
10
0.7312044881889763
20
0.1912046456692913
11
0.7356500787401574
21
0.1878767716535433
0
LINE
8
BLACK
6
CONTINUOUS
10
0.7356500787401574
20
0.1878767716535433
11
0.7408529133858267
21
0.1859362598425197
0
LINE
8
BLACK
6
CONTINUOUS
10
0.7408529133858267
20
0.1859362598425197
11
0.7408528346456693
21
0.1859362598425197
0
LINE
8
BLACK
6
CONTINUOUS
10
0.7408528346456693
20
0.1859362598425197
11
0.743152874015748
21
0.1856889763779528
0
LINE
8
BLACK
6
CONTINUOUS
10
0.743152874015748
20
0.1856889763779528
11
0.7431529527559055
21
0.1856889763779528
0
LINE
8
BLACK
6
CONTINUOUS
10
0.7431529527559055
20
0.1856889763779528
11
0.8118466929133858
21
0.1856889763779528
0
LINE
8
BLACK
6
CONTINUOUS
10
0.8118466929133858
20
0.1856889763779528
11
0.8118475196850393
21
0.1856890551181102
0
LINE
8
BLACK
6
CONTINUOUS
10
0.8118475196850393
20
0.1856890551181102
11
0.8141467716535433
21
0.1859361811023622
0
LINE
8
BLACK
6
CONTINUOUS
10
0.8141467716535433
20
0.1859361811023622
11
0.8141470472440945
21
0.1859362598425197
0
LINE
8
BLACK
6
CONTINUOUS
10
0.8141470472440945
20
0.1859362598425197
11
0.8193498818897638
21
0.1878767716535433
0
LINE
8
BLACK
6
CONTINUOUS
10
0.8193498818897638
20
0.1878767716535433
11
0.8193499606299213
21
0.1878768110236221
0
LINE
8
BLACK
6
CONTINUOUS
10
0.8193499606299213
20
0.1878768110236221
11
0.8237953543307086
21
0.1912045669291338
0
LINE
8
BLACK
6
CONTINUOUS
10
0.8237953543307086
20
0.1912045669291338
11
0.8237954724409449
21
0.1912046456692913
0
LINE
8
BLACK
6
CONTINUOUS
10
0.8237954724409449
20
0.1912046456692913
11
0.8239923228346456
21
0.1914014960629921
0
LINE
8
BLACK
6
CONTINUOUS
10
0.8239923228346456
20
0.1914014960629921
11
0.8264455511811023
21
0.1927411023622047
0
LINE
8
BLACK
6
CONTINUOUS
10
0.8264455511811023
20
0.1927411023622047
11
0.8292335433070865
21
0.1925416929133858
0
LINE
8
BLACK
6
CONTINUOUS
10
0.8292335433070865
20
0.1925416929133858
11
0.8310076771653543
21
0.1914014960629921
0
LINE
8
BLACK
6
CONTINUOUS
10
0.8310076771653543
20
0.1914014960629921
11
0.8312044881889764
21
0.1912046456692913
0
LINE
8
BLACK
6
CONTINUOUS
10
0.8312044881889764
20
0.1912046456692913
11
0.8356500787401575
21
0.1878767716535433
0
LINE
8
BLACK
6
CONTINUOUS
10
0.8356500787401575
20
0.1878767716535433
11
0.8408529133858268
21
0.1859362598425197
0
LINE
8
BLACK
6
CONTINUOUS
10
0.8408529133858268
20
0.1859362598425197
11
0.8408528346456693
21
0.1859362598425197
0
LINE
8
BLACK
6
CONTINUOUS
10
0.8408528346456693
20
0.1859362598425197
11
0.843152874015748
21
0.1856889763779528
0
LINE
8
BLACK
6
CONTINUOUS
10
0.843152874015748
20
0.1856889763779528
11
0.8431529527559055
21
0.1856889763779528
0
LINE
8
BLACK
6
CONTINUOUS
10
0.8431529527559055
20
0.1856889763779528
11
0.9118466929133858
21
0.1856889763779528
0
LINE
8
BLACK
6
CONTINUOUS
10
0.9118466929133858
20
0.1856889763779528
11
0.9118475196850393
21
0.1856890551181102
0
LINE
8
BLACK
6
CONTINUOUS
10
0.9118475196850393
20
0.1856890551181102
11
0.9141467716535433
21
0.1859361811023622
0
LINE
8
BLACK
6
CONTINUOUS
10
0.9141467716535433
20
0.1859361811023622
11
0.9141470472440945
21
0.1859362598425197
0
LINE
8
BLACK
6
CONTINUOUS
10
0.9141470472440945
20
0.1859362598425197
11
0.9193498818897637
21
0.1878767716535433
0
LINE
8
BLACK
6
CONTINUOUS
10
0.9193498818897637
20
0.1878767716535433
11
0.9193499606299212
21
0.1878768110236221
0
LINE
8
BLACK
6
CONTINUOUS
10
0.9193499606299212
20
0.1878768110236221
11
0.9208261023622047
21
0.1889818503937008
0
LINE
8
BLACK
6
CONTINUOUS
10
0.9208261023622047
20
0.1889818503937008
11
0.9237953937007873
21
0.1912045669291338
0
LINE
8
BLACK
6
CONTINUOUS
10
0.9237953937007873
20
0.1912045669291338
11
0.9254592913385826
21
0.1934273228346457
0
LINE
8
BLACK
6
CONTINUOUS
10
0.9254592913385826
20
0.1934273228346457
11
0.9271231889763779
21
0.1956500393700787
0
LINE
8
BLACK
6
CONTINUOUS
10
0.9271231889763779
20
0.1956500393700787
11
0.9290637401574803
21
0.2008529527559055
0
LINE
8
BLACK
6
CONTINUOUS
10
0.9290637401574803
20
0.2008529527559055
11
0.9293110236220472
21
0.2031529527559055
0
LINE
8
BLACK
6
CONTINUOUS
10
0.9293110236220472
20
0.2031529527559055
11
0.9293110236220472
21
0.2077377165354331
0
LINE
8
BLACK
6
CONTINUOUS
10
0.9293110236220472
20
0.2077377165354331
11
0.9293109842519685
21
0.238315
0
LINE
8
BLACK
6
CONTINUOUS
10
0.9293109842519685
20
0.238315
11
0.9293109842519685
21
0.2718466929133858
0
LINE
8
BLACK
6
CONTINUOUS
10
0.9293109842519685
20
0.2718466929133858
11
0.9293109842519685
21
0.2718470078740157
0
LINE
8
BLACK
6
CONTINUOUS
10
0.9293109842519685
20
0.2718470078740157
11
0.9290637401574803
21
0.2741470472440945
0
LINE
8
BLACK
6
CONTINUOUS
10
0.9290637401574803
20
0.2741470472440945
11
0.9271231889763779
21
0.2793499606299212
0
LINE
8
BLACK
6
CONTINUOUS
10
0.9271231889763779
20
0.2793499606299212
11
0.9237953937007873
21
0.2837953937007874
0
LINE
8
BLACK
6
CONTINUOUS
10
0.9237953937007873
20
0.2837953937007874
11
0.9237953149606299
21
0.2837953937007874
0
LINE
8
BLACK
6
CONTINUOUS
10
0.9237953149606299
20
0.2837953937007874
11
0.9237953149606299
21
0.2837954724409449
0
LINE
8
BLACK
6
CONTINUOUS
10
0.9237953149606299
20
0.2837954724409449
11
0.9235985039370078
21
0.2839923228346456
0
LINE
8
BLACK
6
CONTINUOUS
10
0.9235985039370078
20
0.2839923228346456
11
0.9222588976377952
21
0.2864455511811024
0
LINE
8
BLACK
6
CONTINUOUS
10
0.9222588976377952
20
0.2864455511811024
11
0.9224583070866141
21
0.2892335433070866
0
LINE
8
BLACK
6
CONTINUOUS
10
0.9224583070866141
20
0.2892335433070866
11
0.9235985039370078
21
0.2910076771653543
0
LINE
8
BLACK
6
CONTINUOUS
10
0.9235985039370078
20
0.2910076771653543
11
0.9237953149606299
21
0.2912044881889764
0
LINE
8
BLACK
6
CONTINUOUS
10
0.9237953149606299
20
0.2912044881889764
11
0.9246177952755905
21
0.2923032283464567
0
LINE
8
BLACK
6
CONTINUOUS
10
0.9246177952755905
20
0.2923032283464567
11
0.9271231889763779
21
0.2956500393700787
0
LINE
8
BLACK
6
CONTINUOUS
10
0.9271231889763779
20
0.2956500393700787
11
0.9290637401574803
21
0.3008529527559055
0
LINE
8
BLACK
6
CONTINUOUS
10
0.9290637401574803
20
0.3008529527559055
11
0.9293110236220472
21
0.3031529527559055
0
LINE
8
BLACK
6
CONTINUOUS
10
0.9293110236220472
20
0.3031529527559055
11
0.9293109842519685
21
0.3718470078740158
0
LINE
8
BLACK
6
CONTINUOUS
10
0.9293109842519685
20
0.3718470078740158
11
0.9290637401574803
21
0.3741470472440945
0
LINE
8
BLACK
6
CONTINUOUS
10
0.9290637401574803
20
0.3741470472440945
11
0.9271231889763779
21
0.3793499606299213
0
LINE
8
BLACK
6
CONTINUOUS
10
0.9271231889763779
20
0.3793499606299213
11
0.9237953937007873
21
0.3837953937007874
0
LINE
8
BLACK
6
CONTINUOUS
10
0.9237953937007873
20
0.3837953937007874
11
0.9193499606299212
21
0.3871231889763779
0
LINE
8
BLACK
6
CONTINUOUS
10
0.9193499606299212
20
0.3871231889763779
11
0.9141470472440945
21
0.3890637401574803
0
LINE
8
BLACK
6
CONTINUOUS
10
0.9141470472440945
20
0.3890637401574803
11
0.9118470472440945
21
0.3893110236220472
0
LINE
8
BLACK
6
CONTINUOUS
10
0.9118470472440945
20
0.3893110236220472
11
0.8431529921259843
21
0.3893109842519685
0
LINE
8
BLACK
6
CONTINUOUS
10
0.0425
20
0.1922622440944882
11
0.0440167322834646
21
0.1768626377952756
0
LINE
8
BLACK
6
CONTINUOUS
10
0.0440167322834646
20
0.1768626377952756
11
0.0440168503937008
21
0.1768618503937008
0
LINE
8
BLACK
6
CONTINUOUS
10
0.0440168503937008
20
0.1768618503937008
11
0.0470356692913386
21
0.1616849606299212
0
LINE
8
BLACK
6
CONTINUOUS
10
0.0470356692913386
20
0.1616849606299212
11
0.0515279527559055
21
0.1468758267716535
0
LINE
8
BLACK
6
CONTINUOUS
10
0.0515279527559055
20
0.1468758267716535
11
0.0515279921259843
21
0.1468756692913386
0
LINE
8
BLACK
6
CONTINUOUS
10
0.0515279921259843
20
0.1468756692913386
11
0.0574499606299213
21
0.1325788188976378
0
LINE
8
BLACK
6
CONTINUOUS
10
0.0574499606299213
20
0.1325788188976378
11
0.064744842519685
21
0.1189310236220472
0
LINE
8
BLACK
6
CONTINUOUS
10
0.064744842519685
20
0.1189310236220472
11
0.0733420472440945
21
0.1060644488188976
0
LINE
8
BLACK
6
CONTINUOUS
10
0.0733420472440945
20
0.1060644488188976
11
0.0733424803149606
21
0.1060638582677165
0
LINE
8
BLACK
6
CONTINUOUS
10
0.0733424803149606
20
0.1060638582677165
11
0.0831592125984252
21
0.0941020866141732
0
LINE
8
BLACK
6
CONTINUOUS
10
0.0831592125984252
20
0.0941020866141732
11
0.0831599212598425
21
0.0941013385826772
0
LINE
8
BLACK
6
CONTINUOUS
10
0.0831599212598425
20
0.0941013385826772
11
0.0941013385826772
21
0.0831599212598425
0
LINE
8
BLACK
6
CONTINUOUS
10
0.0941013385826772
20
0.0831599212598425
11
0.0941020866141732
21
0.0831592125984252
0
LINE
8
BLACK
6
CONTINUOUS
10
0.0941020866141732
20
0.0831592125984252
11
0.1060638582677165
21
0.0733424803149606
0
LINE
8
BLACK
6
CONTINUOUS
10
0.1060638582677165
20
0.0733424803149606
11
0.1060644488188976
21
0.0733420472440945
0
LINE
8
BLACK
6
CONTINUOUS
10
0.1060644488188976
20
0.0733420472440945
11
0.1189310236220472
21
0.064744842519685
0
LINE
8
BLACK
6
CONTINUOUS
10
0.1189310236220472
20
0.064744842519685
11
0.1325788188976378
21
0.0574499606299213
0
LINE
8
BLACK
6
CONTINUOUS
10
0.1325788188976378
20
0.0574499606299213
11
0.1468756692913386
21
0.0515279921259843
0
LINE
8
BLACK
6
CONTINUOUS
10
0.1468756692913386
20
0.0515279921259843
11
0.1468758267716535
21
0.0515279527559055
0
LINE
8
BLACK
6
CONTINUOUS
10
0.1468758267716535
20
0.0515279527559055
11
0.1616849606299212
21
0.0470356692913386
0
LINE
8
BLACK
6
CONTINUOUS
10
0.1616849606299212
20
0.0470356692913386
11
0.1768618503937008
21
0.0440168503937008
0
LINE
8
BLACK
6
CONTINUOUS
10
0.1768618503937008
20
0.0440168503937008
11
0.176861968503937
21
0.044016811023622
0
LINE
8
BLACK
6
CONTINUOUS
10
0.176861968503937
20
0.044016811023622
11
0.1768620866141732
21
0.044016811023622
0
LINE
8
BLACK
6
CONTINUOUS
10
0.1768620866141732
20
0.044016811023622
11
0.176862125984252
21
0.0440167716535433
0
LINE
8
BLACK
6
CONTINUOUS
10
0.176862125984252
20
0.0440167716535433
11
0.1768626377952756
21
0.0440167322834646
0
LINE
8
BLACK
6
CONTINUOUS
10
0.1768626377952756
20
0.0440167322834646
11
0.1922622440944882
21
0.0425
0
LINE
8
BLACK
6
CONTINUOUS
10
0.1922622440944882
20
0.0425
11
0.1922625196850394
21
0.0425
0
LINE
8
BLACK
6
CONTINUOUS
10
0.1922625196850394
20
0.0425
11
0.2077377165354331
21
0.0425
0
LINE
8
BLACK
6
CONTINUOUS
10
0.2077377165354331
20
0.0425
11
0.2231373228346457
21
0.0440167322834646
0
LINE
8
BLACK
6
CONTINUOUS
10
0.2231373228346457
20
0.0440167322834646
11
0.2231377165354331
21
0.0440167716535433
0
LINE
8
BLACK
6
CONTINUOUS
10
0.2231377165354331
20
0.0440167716535433
11
0.2231379133858268
21
0.044016811023622
0
LINE
8
BLACK
6
CONTINUOUS
10
0.2231379133858268
20
0.044016811023622
11
0.2232057086614173
21
0.0440302755905512
0
LINE
8
BLACK
6
CONTINUOUS
10
0.2232057086614173
20
0.0440302755905512
11
0.238315
21
0.0470356692913386
0
LINE
8
BLACK
6
CONTINUOUS
10
0.238315
20
0.0470356692913386
11
0.2383154330708661
21
0.0470357874015748
0
LINE
8
BLACK
6
CONTINUOUS
10
0.2383154330708661
20
0.0470357874015748
11
0.2383155511811024
21
0.0470358267716535
0
LINE
8
BLACK
6
CONTINUOUS
10
0.2383155511811024
20
0.0470358267716535
11
0.2531241338582677
21
0.0515279527559055
0
LINE
8
BLACK
6
CONTINUOUS
10
0.2531241338582677
20
0.0515279527559055
11
0.2531242913385827
21
0.0515279921259843
0
LINE
8
BLACK
6
CONTINUOUS
10
0.2531242913385827
20
0.0515279921259843
11
0.2674211417322835
21
0.0574499606299213
0
LINE
8
BLACK
6
CONTINUOUS
10
0.2674211417322835
20
0.0574499606299213
11
0.281068937007874
21
0.064744842519685
0
LINE
8
BLACK
6
CONTINUOUS
10
0.281068937007874
20
0.064744842519685
11
0.2939355118110236
21
0.0733420472440945
0
LINE
8
BLACK
6
CONTINUOUS
10
0.2939355118110236
20
0.0733420472440945
11
0.2939361023622047
21
0.0733424803149606
0
LINE
8
BLACK
6
CONTINUOUS
10
0.2939361023622047
20
0.0733424803149606
11
0.305897874015748
21
0.0831592125984252
0
LINE
8
BLACK
6
CONTINUOUS
10
0.305897874015748
20
0.0831592125984252
11
0.3058986220472441
21
0.0831599212598425
0
LINE
8
BLACK
6
CONTINUOUS
10
0.3058986220472441
20
0.0831599212598425
11
0.3168400393700787
21
0.0941013385826772
0
LINE
8
BLACK
6
CONTINUOUS
10
0.3168400393700787
20
0.0941013385826772
11
0.316840748031496
21
0.0941020866141732
0
LINE
8
BLACK
6
CONTINUOUS
10
0.316840748031496
20
0.0941020866141732
11
0.3266574803149606
21
0.1060638582677165
0
LINE
8
BLACK
6
CONTINUOUS
10
0.3266574803149606
20
0.1060638582677165
11
0.3266579133858268
21
0.1060644488188976
0
LINE
8
BLACK
6
CONTINUOUS
10
0.3266579133858268
20
0.1060644488188976
11
0.3352551181102362
21
0.1189310236220472
0
LINE
8
BLACK
6
CONTINUOUS
10
0.3352551181102362
20
0.1189310236220472
11
0.34255
21
0.1325788188976378
0
LINE
8
BLACK
6
CONTINUOUS
10
0.34255
20
0.1325788188976378
11
0.3425500393700787
21
0.1325788582677165
0
LINE
8
BLACK
6
CONTINUOUS
10
0.3425500393700787
20
0.1325788582677165
11
0.3484720472440945
21
0.1468758661417323
0
LINE
8
BLACK
6
CONTINUOUS
10
0.3484720472440945
20
0.1468758661417323
11
0.3529641732283464
21
0.1616844488188976
0
LINE
8
BLACK
6
CONTINUOUS
10
0.3529641732283464
20
0.1616844488188976
11
0.3559831889763779
21
0.1768620866141732
0
LINE
8
BLACK
6
CONTINUOUS
10
0.3559831889763779
20
0.1768620866141732
11
0.3575
21
0.1922625196850394
0
LINE
8
BLACK
6
CONTINUOUS
10
0.3575
20
0.1922625196850394
11
0.3575
21
0.2077374803149606
0
LINE
8
BLACK
6
CONTINUOUS
10
0.3575
20
0.2077374803149606
11
0.3559831889763779
21
0.2231379133858268
0
LINE
8
BLACK
6
CONTINUOUS
10
0.3559831889763779
20
0.2231379133858268
11
0.3529641732283464
21
0.2383155511811024
0
LINE
8
BLACK
6
CONTINUOUS
10
0.3529641732283464
20
0.2383155511811024
11
0.3484720472440945
21
0.2531241338582677
0
LINE
8
BLACK
6
CONTINUOUS
10
0.3484720472440945
20
0.2531241338582677
11
0.3425500393700787
21
0.2674211417322835
0
LINE
8
BLACK
6
CONTINUOUS
10
0.3425500393700787
20
0.2674211417322835
11
0.3352551968503937
21
0.2810688582677165
0
LINE
8
BLACK
6
CONTINUOUS
10
0.3352551968503937
20
0.2810688582677165
11
0.3266577559055118
21
0.2939357874015748
0
LINE
8
BLACK
6
CONTINUOUS
10
0.3266577559055118
20
0.2939357874015748
11
0.3168405511811024
21
0.3058981102362205
0
LINE
8
BLACK
6
CONTINUOUS
10
0.3168405511811024
20
0.3058981102362205
11
0.3058981102362205
21
0.3168405511811024
0
LINE
8
BLACK
6
CONTINUOUS
10
0.3058981102362205
20
0.3168405511811024
11
0.2939357874015748
21
0.3266577559055118
0
LINE
8
BLACK
6
CONTINUOUS
10
0.2939357874015748
20
0.3266577559055118
11
0.2810688582677165
21
0.3352551968503937
0
LINE
8
BLACK
6
CONTINUOUS
10
0.2810688582677165
20
0.3352551968503937
11
0.2674211417322835
21
0.3425500393700787
0
LINE
8
BLACK
6
CONTINUOUS
10
0.2674211417322835
20
0.3425500393700787
11
0.2531241338582677
21
0.3484720472440945
0
LINE
8
BLACK
6
CONTINUOUS
10
0.2531241338582677
20
0.3484720472440945
11
0.2383155511811024
21
0.3529641732283464
0
LINE
8
BLACK
6
CONTINUOUS
10
0.2383155511811024
20
0.3529641732283464
11
0.2383150787401575
21
0.352964251968504
0
LINE
8
BLACK
6
CONTINUOUS
10
0.2383150787401575
20
0.352964251968504
11
0.238315
21
0.3529642913385826
0
LINE
8
BLACK
6
CONTINUOUS
10
0.238315
20
0.3529642913385826
11
0.2356389763779528
21
0.3534965354330709
0
LINE
8
BLACK
6
CONTINUOUS
10
0.2356389763779528
20
0.3534965354330709
11
0.2231379133858268
21
0.3559831889763779
0
LINE
8
BLACK
6
CONTINUOUS
10
0.2231379133858268
20
0.3559831889763779
11
0.2077374803149606
21
0.3575
0
LINE
8
BLACK
6
CONTINUOUS
10
0.2077374803149606
20
0.3575
11
0.1922625196850394
21
0.3575
0
LINE
8
BLACK
6
CONTINUOUS
10
0.1922625196850394
20
0.3575
11
0.1768620866141732
21
0.3559831889763779
0
LINE
8
BLACK
6
CONTINUOUS
10
0.1768620866141732
20
0.3559831889763779
11
0.166834094488189
21
0.3539884645669291
0
LINE
8
BLACK
6
CONTINUOUS
10
0.166834094488189
20
0.3539884645669291
11
0.1616849606299212
21
0.3529642913385826
0
LINE
8
BLACK
6
CONTINUOUS
10
0.1616849606299212
20
0.3529642913385826
11
0.1616848031496063
21
0.3529642125984252
0
LINE
8
BLACK
6
CONTINUOUS
10
0.1616848031496063
20
0.3529642125984252
11
0.1616844488188976
21
0.3529641732283464
0
LINE
8
BLACK
6
CONTINUOUS
10
0.1616844488188976
20
0.3529641732283464
11
0.1468758661417323
21
0.3484720472440945
0
LINE
8
BLACK
6
CONTINUOUS
10
0.1468758661417323
20
0.3484720472440945
11
0.1325788582677165
21
0.3425500393700787
0
LINE
8
BLACK
6
CONTINUOUS
10
0.1325788582677165
20
0.3425500393700787
11
0.1189311417322835
21
0.3352551968503937
0
LINE
8
BLACK
6
CONTINUOUS
10
0.1189311417322835
20
0.3352551968503937
11
0.1060642125984252
21
0.3266577559055118
0
LINE
8
BLACK
6
CONTINUOUS
10
0.1060642125984252
20
0.3266577559055118
11
0.1060640157480315
21
0.3266575984251968
0
LINE
8
BLACK
6
CONTINUOUS
10
0.1060640157480315
20
0.3266575984251968
11
0.1060638582677165
21
0.3266574803149606
0
LINE
8
BLACK
6
CONTINUOUS
10
0.1060638582677165
20
0.3266574803149606
11
0.0941020866141732
21
0.316840748031496
0
LINE
8
BLACK
6
CONTINUOUS
10
0.0941020866141732
20
0.316840748031496
11
0.0941013385826772
21
0.3168400393700787
0
LINE
8
BLACK
6
CONTINUOUS
10
0.0941013385826772
20
0.3168400393700787
11
0.0831599212598425
21
0.3058986220472441
0
LINE
8
BLACK
6
CONTINUOUS
10
0.0831599212598425
20
0.3058986220472441
11
0.0831592125984252
21
0.305897874015748
0
LINE
8
BLACK
6
CONTINUOUS
10
0.0831592125984252
20
0.305897874015748
11
0.0733424803149606
21
0.2939361023622047
0
LINE
8
BLACK
6
CONTINUOUS
10
0.0733424803149606
20
0.2939361023622047
11
0.0733420472440945
21
0.2939355118110236
0
LINE
8
BLACK
6
CONTINUOUS
10
0.0733420472440945
20
0.2939355118110236
11
0.064744842519685
21
0.281068937007874
0
LINE
8
BLACK
6
CONTINUOUS
10
0.064744842519685
20
0.281068937007874
11
0.0574499606299213
21
0.2674211417322835
0
LINE
8
BLACK
6
CONTINUOUS
10
0.0574499606299213
20
0.2674211417322835
11
0.0515279921259843
21
0.2531242913385827
0
LINE
8
BLACK
6
CONTINUOUS
10
0.0515279921259843
20
0.2531242913385827
11
0.0515279527559055
21
0.2531241338582677
0
LINE
8
BLACK
6
CONTINUOUS
10
0.0515279527559055
20
0.2531241338582677
11
0.0470356692913386
21
0.238315
0
LINE
8
BLACK
6
CONTINUOUS
10
0.0470356692913386
20
0.238315
11
0.0440168503937008
21
0.2231381102362205
0
LINE
8
BLACK
6
CONTINUOUS
10
0.0440168503937008
20
0.2231381102362205
11
0.0440167322834646
21
0.2231373228346457
0
LINE
8
BLACK
6
CONTINUOUS
10
0.0440167322834646
20
0.2231373228346457
11
0.0425
21
0.2077377165354331
0
LINE
8
BLACK
6
CONTINUOUS
10
0.0425
20
0.2077377165354331
11
0.0425
21
0.1922622440944882
0
LINE
8
BLACK
6
CONTINUOUS
10
1.2424999999999999
20
0.1922622440944882
11
1.2440167322834645
21
0.1768626377952756
0
LINE
8
BLACK
6
CONTINUOUS
10
1.2440167322834645
20
0.1768626377952756
11
1.2440168503937008
21
0.1768618503937008
0
LINE
8
BLACK
6
CONTINUOUS
10
1.2440168503937008
20
0.1768618503937008
11
1.2470356692913385
21
0.1616849606299212
0
LINE
8
BLACK
6
CONTINUOUS
10
1.2470356692913385
20
0.1616849606299212
11
1.2515279527559056
21
0.1468758267716535
0
LINE
8
BLACK
6
CONTINUOUS
10
1.2515279527559056
20
0.1468758267716535
11
1.2515279921259843
21
0.1468756692913386
0
LINE
8
BLACK
6
CONTINUOUS
10
1.2515279921259843
20
0.1468756692913386
11
1.2574499606299212
21
0.1325788188976378
0
LINE
8
BLACK
6
CONTINUOUS
10
1.2574499606299212
20
0.1325788188976378
11
1.264744842519685
21
0.1189310236220472
0
LINE
8
BLACK
6
CONTINUOUS
10
1.264744842519685
20
0.1189310236220472
11
1.2733420472440944
21
0.1060644488188976
0
LINE
8
BLACK
6
CONTINUOUS
10
1.2733420472440944
20
0.1060644488188976
11
1.2733424803149607
21
0.1060638582677165
0
LINE
8
BLACK
6
CONTINUOUS
10
1.2733424803149607
20
0.1060638582677165
11
1.2831592125984252
21
0.0941020866141732
0
LINE
8
BLACK
6
CONTINUOUS
10
1.2831592125984252
20
0.0941020866141732
11
1.2831599212598426
21
0.0941013385826772
0
LINE
8
BLACK
6
CONTINUOUS
10
1.2831599212598426
20
0.0941013385826772
11
1.2941013385826772
21
0.0831599212598425
0
LINE
8
BLACK
6
CONTINUOUS
10
1.2941013385826772
20
0.0831599212598425
11
1.2941020866141733
21
0.0831592125984252
0
LINE
8
BLACK
6
CONTINUOUS
10
1.2941020866141733
20
0.0831592125984252
11
1.3060638582677164
21
0.0733424803149606
0
LINE
8
BLACK
6
CONTINUOUS
10
1.3060638582677164
20
0.0733424803149606
11
1.3060644488188977
21
0.0733420472440945
0
LINE
8
BLACK
6
CONTINUOUS
10
1.3060644488188977
20
0.0733420472440945
11
1.3189310236220473
21
0.064744842519685
0
LINE
8
BLACK
6
CONTINUOUS
10
1.3189310236220473
20
0.064744842519685
11
1.3325788188976377
21
0.0574499606299213
0
LINE
8
BLACK
6
CONTINUOUS
10
1.3325788188976377
20
0.0574499606299213
11
1.3468756692913386
21
0.0515279921259843
0
LINE
8
BLACK
6
CONTINUOUS
10
1.3468756692913386
20
0.0515279921259843
11
1.3468758267716534
21
0.0515279527559055
0
LINE
8
BLACK
6
CONTINUOUS
10
1.3468758267716534
20
0.0515279527559055
11
1.3616849606299213
21
0.0470356692913386
0
LINE
8
BLACK
6
CONTINUOUS
10
1.3616849606299213
20
0.0470356692913386
11
1.3768618503937007
21
0.0440168503937008
0
LINE
8
BLACK
6
CONTINUOUS
10
1.3768618503937007
20
0.0440168503937008
11
1.3768619685039369
21
0.044016811023622
0
LINE
8
BLACK
6
CONTINUOUS
10
1.3768619685039369
20
0.044016811023622
11
1.3768620866141732
21
0.044016811023622
0
LINE
8
BLACK
6
CONTINUOUS
10
1.3768620866141732
20
0.044016811023622
11
1.3768621259842519
21
0.0440167716535433
0
LINE
8
BLACK
6
CONTINUOUS
10
1.3768621259842519
20
0.0440167716535433
11
1.3768626377952755
21
0.0440167322834646
0
LINE
8
BLACK
6
CONTINUOUS
10
1.3768626377952755
20
0.0440167322834646
11
1.3922622440944881
21
0.0425
0
LINE
8
BLACK
6
CONTINUOUS
10
1.3922622440944881
20
0.0425
11
1.3922625196850393
21
0.0425
0
LINE
8
BLACK
6
CONTINUOUS
10
1.3922625196850393
20
0.0425
11
1.407737716535433
21
0.0425
0
LINE
8
BLACK
6
CONTINUOUS
10
1.407737716535433
20
0.0425
11
1.4231373228346456
21
0.0440167322834646
0
LINE
8
BLACK
6
CONTINUOUS
10
1.4231373228346456
20
0.0440167322834646
11
1.4231377165354331
21
0.0440167716535433
0
LINE
8
BLACK
6
CONTINUOUS
10
1.4231377165354331
20
0.0440167716535433
11
1.4231379133858268
21
0.044016811023622
0
LINE
8
BLACK
6
CONTINUOUS
10
1.4231379133858268
20
0.044016811023622
11
1.4232057086614174
21
0.0440302755905512
0
LINE
8
BLACK
6
CONTINUOUS
10
1.4232057086614174
20
0.0440302755905512
11
1.438315
21
0.0470356692913386
0
LINE
8
BLACK
6
CONTINUOUS
10
1.438315
20
0.0470356692913386
11
1.4383154330708661
21
0.0470357874015748
0
LINE
8
BLACK
6
CONTINUOUS
10
1.4383154330708661
20
0.0470357874015748
11
1.4383155511811023
21
0.0470358267716535
0
LINE
8
BLACK
6
CONTINUOUS
10
1.4383155511811023
20
0.0470358267716535
11
1.4531241338582677
21
0.0515279527559055
0
LINE
8
BLACK
6
CONTINUOUS
10
1.4531241338582677
20
0.0515279527559055
11
1.4531242913385827
21
0.0515279921259843
0
LINE
8
BLACK
6
CONTINUOUS
10
1.4531242913385827
20
0.0515279921259843
11
1.4674211417322833
21
0.0574499606299213
0
LINE
8
BLACK
6
CONTINUOUS
10
1.4674211417322833
20
0.0574499606299213
11
1.481068937007874
21
0.064744842519685
0
LINE
8
BLACK
6
CONTINUOUS
10
1.481068937007874
20
0.064744842519685
11
1.4939355118110236
21
0.0733420472440945
0
LINE
8
BLACK
6
CONTINUOUS
10
1.4939355118110236
20
0.0733420472440945
11
1.4939361023622046
21
0.0733424803149606
0
LINE
8
BLACK
6
CONTINUOUS
10
1.4939361023622046
20
0.0733424803149606
11
1.505897874015748
21
0.0831592125984252
0
LINE
8
BLACK
6
CONTINUOUS
10
1.505897874015748
20
0.0831592125984252
11
1.5058986220472441
21
0.0831599212598425
0
LINE
8
BLACK
6
CONTINUOUS
10
1.5058986220472441
20
0.0831599212598425
11
1.5168400393700787
21
0.0941013385826772
0
LINE
8
BLACK
6
CONTINUOUS
10
1.5168400393700787
20
0.0941013385826772
11
1.516840748031496
21
0.0941020866141732
0
LINE
8
BLACK
6
CONTINUOUS
10
1.516840748031496
20
0.0941020866141732
11
1.5266574803149606
21
0.1060638582677165
0
LINE
8
BLACK
6
CONTINUOUS
10
1.5266574803149606
20
0.1060638582677165
11
1.5266579133858267
21
0.1060644488188976
0
LINE
8
BLACK
6
CONTINUOUS
10
1.5266579133858267
20
0.1060644488188976
11
1.5352551181102363
21
0.1189310236220472
0
LINE
8
BLACK
6
CONTINUOUS
10
1.5352551181102363
20
0.1189310236220472
11
1.5425499999999999
21
0.1325788188976378
0
LINE
8
BLACK
6
CONTINUOUS
10
1.5425499999999999
20
0.1325788188976378
11
1.5425500393700786
21
0.1325788582677165
0
LINE
8
BLACK
6
CONTINUOUS
10
1.5425500393700786
20
0.1325788582677165
11
1.5484720472440945
21
0.1468758661417323
0
LINE
8
BLACK
6
CONTINUOUS
10
1.5484720472440945
20
0.1468758661417323
11
1.5529641732283463
21
0.1616844488188976
0
LINE
8
BLACK
6
CONTINUOUS
10
1.5529641732283463
20
0.1616844488188976
11
1.555983188976378
21
0.1768620866141732
0
LINE
8
BLACK
6
CONTINUOUS
10
1.555983188976378
20
0.1768620866141732
11
1.5574999999999999
21
0.1922625196850394
0
LINE
8
BLACK
6
CONTINUOUS
10
1.5574999999999999
20
0.1922625196850394
11
1.5574999999999999
21
0.2077374803149606
0
LINE
8
BLACK
6
CONTINUOUS
10
1.5574999999999999
20
0.2077374803149606
11
1.555983188976378
21
0.2231379133858268
0
LINE
8
BLACK
6
CONTINUOUS
10
1.555983188976378
20
0.2231379133858268
11
1.5529641732283463
21
0.2383155511811024
0
LINE
8
BLACK
6
CONTINUOUS
10
1.5529641732283463
20
0.2383155511811024
11
1.5484720472440945
21
0.2531241338582677
0
LINE
8
BLACK
6
CONTINUOUS
10
1.5484720472440945
20
0.2531241338582677
11
1.5425500393700786
21
0.2674211417322835
0
LINE
8
BLACK
6
CONTINUOUS
10
1.5425500393700786
20
0.2674211417322835
11
1.5352551968503936
21
0.2810688582677165
0
LINE
8
BLACK
6
CONTINUOUS
10
1.5352551968503936
20
0.2810688582677165
11
1.5266577559055117
21
0.2939357874015748
0
LINE
8
BLACK
6
CONTINUOUS
10
1.5266577559055117
20
0.2939357874015748
11
1.5168405511811023
21
0.3058981102362205
0
LINE
8
BLACK
6
CONTINUOUS
10
1.5168405511811023
20
0.3058981102362205
11
1.5058981102362203
21
0.3168405511811024
0
LINE
8
BLACK
6
CONTINUOUS
10
1.5058981102362203
20
0.3168405511811024
11
1.4939357874015748
21
0.3266577559055118
0
LINE
8
BLACK
6
CONTINUOUS
10
1.4939357874015748
20
0.3266577559055118
11
1.4810688582677165
21
0.3352551968503937
0
LINE
8
BLACK
6
CONTINUOUS
10
1.4810688582677165
20
0.3352551968503937
11
1.4674211417322833
21
0.3425500393700787
0
LINE
8
BLACK
6
CONTINUOUS
10
1.4674211417322833
20
0.3425500393700787
11
1.4531241338582677
21
0.3484720472440945
0
LINE
8
BLACK
6
CONTINUOUS
10
1.4531241338582677
20
0.3484720472440945
11
1.4383155511811023
21
0.3529641732283464
0
LINE
8
BLACK
6
CONTINUOUS
10
1.4383155511811023
20
0.3529641732283464
11
1.4383150787401575
21
0.352964251968504
0
LINE
8
BLACK
6
CONTINUOUS
10
1.4383150787401575
20
0.352964251968504
11
1.438315
21
0.3529642913385826
0
LINE
8
BLACK
6
CONTINUOUS
10
1.438315
20
0.3529642913385826
11
1.4356389763779527
21
0.3534965354330709
0
LINE
8
BLACK
6
CONTINUOUS
10
1.4356389763779527
20
0.3534965354330709
11
1.4231379133858268
21
0.3559831889763779
0
LINE
8
BLACK
6
CONTINUOUS
10
1.4231379133858268
20
0.3559831889763779
11
1.4077374803149605
21
0.3575
0
LINE
8
BLACK
6
CONTINUOUS
10
1.4077374803149605
20
0.3575
11
1.3922625196850393
21
0.3575
0
LINE
8
BLACK
6
CONTINUOUS
10
1.3922625196850393
20
0.3575
11
1.3768620866141732
21
0.3559831889763779
0
LINE
8
BLACK
6
CONTINUOUS
10
1.3768620866141732
20
0.3559831889763779
11
1.3668340944881889
21
0.3539884645669291
0
LINE
8
BLACK
6
CONTINUOUS
10
1.3668340944881889
20
0.3539884645669291
11
1.3616849606299213
21
0.3529642913385826
0
LINE
8
BLACK
6
CONTINUOUS
10
1.3616849606299213
20
0.3529642913385826
11
1.3616848031496063
21
0.3529642125984252
0
LINE
8
BLACK
6
CONTINUOUS
10
1.3616848031496063
20
0.3529642125984252
11
1.3616844488188975
21
0.3529641732283464
0
LINE
8
BLACK
6
CONTINUOUS
10
1.3616844488188975
20
0.3529641732283464
11
1.3468758661417322
21
0.3484720472440945
0
LINE
8
BLACK
6
CONTINUOUS
10
1.3468758661417322
20
0.3484720472440945
11
1.3325788582677165
21
0.3425500393700787
0
LINE
8
BLACK
6
CONTINUOUS
10
1.3325788582677165
20
0.3425500393700787
11
1.3189311417322835
21
0.3352551968503937
0
LINE
8
BLACK
6
CONTINUOUS
10
1.3189311417322835
20
0.3352551968503937
11
1.3060642125984252
21
0.3266577559055118
0
LINE
8
BLACK
6
CONTINUOUS
10
1.3060642125984252
20
0.3266577559055118
11
1.3060640157480314
21
0.3266575984251968
0
LINE
8
BLACK
6
CONTINUOUS
10
1.3060640157480314
20
0.3266575984251968
11
1.3060638582677164
21
0.3266574803149606
0
LINE
8
BLACK
6
CONTINUOUS
10
1.3060638582677164
20
0.3266574803149606
11
1.2941020866141733
21
0.316840748031496
0
LINE
8
BLACK
6
CONTINUOUS
10
1.2941020866141733
20
0.316840748031496
11
1.2941013385826772
21
0.3168400393700787
0
LINE
8
BLACK
6
CONTINUOUS
10
1.2941013385826772
20
0.3168400393700787
11
1.2831599212598426
21
0.3058986220472441
0
LINE
8
BLACK
6
CONTINUOUS
10
1.2831599212598426
20
0.3058986220472441
11
1.2831592125984252
21
0.305897874015748
0
LINE
8
BLACK
6
CONTINUOUS
10
1.2831592125984252
20
0.305897874015748
11
1.2733424803149607
21
0.2939361023622047
0
LINE
8
BLACK
6
CONTINUOUS
10
1.2733424803149607
20
0.2939361023622047
11
1.2733420472440944
21
0.2939355118110236
0
LINE
8
BLACK
6
CONTINUOUS
10
1.2733420472440944
20
0.2939355118110236
11
1.264744842519685
21
0.281068937007874
0
LINE
8
BLACK
6
CONTINUOUS
10
1.264744842519685
20
0.281068937007874
11
1.2574499606299212
21
0.2674211417322835
0
LINE
8
BLACK
6
CONTINUOUS
10
1.2574499606299212
20
0.2674211417322835
11
1.2515279921259843
21
0.2531242913385827
0
LINE
8
BLACK
6
CONTINUOUS
10
1.2515279921259843
20
0.2531242913385827
11
1.2515279527559056
21
0.2531241338582677
0
LINE
8
BLACK
6
CONTINUOUS
10
1.2515279527559056
20
0.2531241338582677
11
1.2470356692913385
21
0.238315
0
LINE
8
BLACK
6
CONTINUOUS
10
1.2470356692913385
20
0.238315
11
1.2440168503937008
21
0.2231381102362205
0
LINE
8
BLACK
6
CONTINUOUS
10
1.2440168503937008
20
0.2231381102362205
11
1.2440167322834645
21
0.2231373228346457
0
LINE
8
BLACK
6
CONTINUOUS
10
1.2440167322834645
20
0.2231373228346457
11
1.2424999999999999
21
0.2077377165354331
0
LINE
8
BLACK
6
CONTINUOUS
10
1.2424999999999999
20
0.2077377165354331
11
1.2424999999999999
21
0.1922622440944882
0
LINE
8
BLACK
6
CONTINUOUS
10
1.133507874015748
20
1.5050305905511812
11
1.1330583858267715
21
1.5091941732283465
0
LINE
8
BLACK
6
CONTINUOUS
10
1.1330583858267715
20
1.5091941732283465
11
1.1326064566929133
21
1.5112628346456694
0
LINE
8
BLACK
6
CONTINUOUS
10
1.1326064566929133
20
1.5112628346456694
11
1.1312788188976377
21
1.5152342519685038
0
LINE
8
BLACK
6
CONTINUOUS
10
1.1312788188976377
20
1.5152342519685038
11
1.1282687007874015
21
1.5199000393700788
0
LINE
8
BLACK
6
CONTINUOUS
10
1.1282687007874015
20
1.5199000393700788
11
1.1264345669291338
21
1.522009251968504
0
LINE
8
BLACK
6
CONTINUOUS
10
1.1264345669291338
20
1.522009251968504
11
1.1264344488188975
21
1.52200937007874
0
LINE
8
BLACK
6
CONTINUOUS
10
1.1264344488188975
20
1.52200937007874
11
1.1222317322834645
21
1.5256381102362204
0
LINE
8
BLACK
6
CONTINUOUS
10
1.1222317322834645
20
1.5256381102362204
11
1.1171769291338582
21
1.5279357874015749
0
LINE
8
BLACK
6
CONTINUOUS
10
1.1171769291338582
20
1.5279357874015749
11
1.1144936220472441
21
1.5287185433070867
0
LINE
8
BLACK
6
CONTINUOUS
10
1.1144936220472441
20
1.5287185433070867
11
1.1089962992125983
21
1.5294990551181102
0
LINE
8
BLACK
6
CONTINUOUS
10
1.1089962992125983
20
1.5294990551181102
11
0.9399175590551181
21
1.5292015748031496
0
LINE
8
BLACK
6
CONTINUOUS
10
0.9399175590551181
20
1.5292015748031496
11
0.9391700787401575
21
1.5291201968503936
0
LINE
8
BLACK
6
CONTINUOUS
10
0.9391700787401575
20
1.5291201968503936
11
0.935788937007874
21
1.5287522440944881
0
LINE
8
BLACK
6
CONTINUOUS
10
0.935788937007874
20
1.5287522440944881
11
0.9357885826771654
21
1.5287521653543308
0
LINE
8
BLACK
6
CONTINUOUS
10
0.9357885826771654
20
1.5287521653543308
11
0.9357884251968503
21
1.5287521653543308
0
LINE
8
BLACK
6
CONTINUOUS
10
0.9357884251968503
20
1.5287521653543308
11
0.9356345275590551
21
1.5287185433070867
0
LINE
8
BLACK
6
CONTINUOUS
10
0.9356345275590551
20
1.5287185433070867
11
0.9337365354330709
21
1.5283039370078739
0
LINE
8
BLACK
6
CONTINUOUS
10
0.9337365354330709
20
1.5283039370078739
11
0.9326320866141732
21
1.5279357874015749
0
LINE
8
BLACK
6
CONTINUOUS
10
0.9326320866141732
20
1.5279357874015749
11
0.9297961023622047
21
1.5269904724409449
0
LINE
8
BLACK
6
CONTINUOUS
10
0.9297961023622047
20
1.5269904724409449
11
0.9297960236220473
21
1.5269903937007874
0
LINE
8
BLACK
6
CONTINUOUS
10
0.9297960236220473
20
1.5269903937007874
11
0.9297959448818898
21
1.5269903937007874
0
LINE
8
BLACK
6
CONTINUOUS
10
0.9297959448818898
20
1.5269903937007874
11
0.9251250787401575
21
1.5239886220472441
0
LINE
8
BLACK
6
CONTINUOUS
10
0.9251250787401575
20
1.5239886220472441
11
0.9251248818897637
21
1.5239885039370078
0
LINE
8
BLACK
6
CONTINUOUS
10
0.9251248818897637
20
1.5239885039370078
11
0.9229964173228347
21
1.5221441732283465
0
LINE
8
BLACK
6
CONTINUOUS
10
0.9229964173228347
20
1.5221441732283465
11
0.922925
21
1.5220570866141732
0
LINE
8
BLACK
6
CONTINUOUS
10
0.922925
20
1.5220570866141732
11
0.9210559842519684
21
1.5199001181102363
0
LINE
8
BLACK
6
CONTINUOUS
10
0.9210559842519684
20
1.5199001181102363
11
0.9193763779527558
21
1.5179617716535432
0
LINE
8
BLACK
6
CONTINUOUS
10
0.9193763779527558
20
1.5179617716535432
11
0.917069842519685
21
1.5129111023622046
0
LINE
8
BLACK
6
CONTINUOUS
10
0.917069842519685
20
1.5129111023622046
11
0.91706968503937
21
1.5129106299212598
0
LINE
8
BLACK
6
CONTINUOUS
10
0.91706968503937
20
1.5129106299212598
11
0.9165858661417322
21
1.5112628346456694
0
LINE
8
BLACK
6
CONTINUOUS
10
0.9165858661417322
20
1.5112628346456694
11
0.9162823228346456
21
1.5102290944881889
0
LINE
8
BLACK
6
CONTINUOUS
10
0.9162823228346456
20
1.5102290944881889
11
0.915492125984252
21
1.5047331102362205
0
LINE
8
BLACK
6
CONTINUOUS
10
0.915492125984252
20
1.5047331102362205
11
0.915492125984252
21
1.5047329527559055
0
LINE
8
BLACK
6
CONTINUOUS
10
0.915492125984252
20
1.5047329527559055
11
0.915492125984252
21
0.9164865748031495
0
LINE
8
BLACK
6
CONTINUOUS
10
0.915492125984252
20
0.9164865748031495
11
0.9155304724409449
21
0.9152633070866142
0
LINE
8
BLACK
6
CONTINUOUS
10
0.9155304724409449
20
0.9152633070866142
11
0.9155695275590551
21
0.9146420472440945
0
LINE
8
BLACK
6
CONTINUOUS
10
0.9155695275590551
20
0.9146420472440945
11
0.9156845275590551
21
0.9134238976377953
0
LINE
8
BLACK
6
CONTINUOUS
10
0.9156845275590551
20
0.9134238976377953
11
0.9156845669291338
21
0.9134236614173228
0
LINE
8
BLACK
6
CONTINUOUS
10
0.9156845669291338
20
0.9134236614173228
11
0.9171564566929133
21
0.9080700393700787
0
LINE
8
BLACK
6
CONTINUOUS
10
0.9171564566929133
20
0.9080700393700787
11
0.9171565354330709
21
0.9080698818897638
0
LINE
8
BLACK
6
CONTINUOUS
10
0.9171565354330709
20
0.9080698818897638
11
0.9182735433070865
21
0.9055075984251968
0
LINE
8
BLACK
6
CONTINUOUS
10
0.9182735433070865
20
0.9055075984251968
11
0.9182735826771653
21
0.9055075196850394
0
LINE
8
BLACK
6
CONTINUOUS
10
0.9182735826771653
20
0.9055075196850394
11
0.9182736220472441
21
0.9055074015748031
0
LINE
8
BLACK
6
CONTINUOUS
10
0.9182736220472441
20
0.9055074015748031
11
0.9182737401574803
21
0.9055072047244094
0
LINE
8
BLACK
6
CONTINUOUS
10
0.9182737401574803
20
0.9055072047244094
11
0.9182737401574803
21
0.9055071653543307
0
LINE
8
BLACK
6
CONTINUOUS
10
0.9182737401574803
20
0.9055071653543307
11
0.9211941338582676
21
0.9007853543307086
0
LINE
8
BLACK
6
CONTINUOUS
10
0.9211941338582676
20
0.9007853543307086
11
0.9425512598425196
21
0.8752591338582677
0
LINE
8
BLACK
6
CONTINUOUS
10
0.9425512598425196
20
0.8752591338582677
11
0.9446113385826771
21
0.8731449606299212
0
LINE
8
BLACK
6
CONTINUOUS
10
0.9446113385826771
20
0.8731449606299212
11
0.9457332677165354
21
0.8721556692913386
0
LINE
8
BLACK
6
CONTINUOUS
10
0.9457332677165354
20
0.8721556692913386
11
0.9457338188976377
21
0.8721552362204724
0
LINE
8
BLACK
6
CONTINUOUS
10
0.9457338188976377
20
0.8721552362204724
11
0.9480888188976377
21
0.8703763779527559
0
LINE
8
BLACK
6
CONTINUOUS
10
0.9480888188976377
20
0.8703763779527559
11
0.9480890944881889
21
0.8703762204724409
0
LINE
8
BLACK
6
CONTINUOUS
10
0.9480890944881889
20
0.8703762204724409
11
0.9531392519685039
21
0.8680699606299213
0
LINE
8
BLACK
6
CONTINUOUS
10
0.9531392519685039
20
0.8680699606299213
11
0.9531396062992126
21
0.8680698031496062
0
LINE
8
BLACK
6
CONTINUOUS
10
0.9531396062992126
20
0.8680698031496062
11
0.9531398031496062
21
0.8680697244094489
0
LINE
8
BLACK
6
CONTINUOUS
10
0.9531398031496062
20
0.8680697244094489
11
0.9531399606299212
21
0.8680696850393701
0
LINE
8
BLACK
6
CONTINUOUS
10
0.9531399606299212
20
0.8680696850393701
11
0.9558211811023621
21
0.8672824015748031
0
LINE
8
BLACK
6
CONTINUOUS
10
0.9558211811023621
20
0.8672824015748031
11
0.9558214566929134
21
0.8672823228346457
0
LINE
8
BLACK
6
CONTINUOUS
10
0.9558214566929134
20
0.8672823228346457
11
0.9576535039370079
21
0.8670188976377953
0
LINE
8
BLACK
6
CONTINUOUS
10
0.9576535039370079
20
0.8670188976377953
11
0.9613175196850393
21
0.866492125984252
0
LINE
8
BLACK
6
CONTINUOUS
10
0.9613175196850393
20
0.866492125984252
11
0.9613176771653543
21
0.866492125984252
0
LINE
8
BLACK
6
CONTINUOUS
10
0.9613176771653543
20
0.866492125984252
11
1.4670534645669291
21
0.866492125984252
0
LINE
8
BLACK
6
CONTINUOUS
10
1.4670534645669291
20
0.866492125984252
11
1.4711728740157479
21
0.8669320472440945
0
LINE
8
BLACK
6
CONTINUOUS
10
1.4711728740157479
20
0.8669320472440945
11
1.4732209448818898
21
0.8673745275590551
0
LINE
8
BLACK
6
CONTINUOUS
10
1.4732209448818898
20
0.8673745275590551
11
1.4732210236220473
21
0.8673745275590551
0
LINE
8
BLACK
6
CONTINUOUS
10
1.4732210236220473
20
0.8673745275590551
11
1.4771544488188977
21
0.8686743700787402
0
LINE
8
BLACK
6
CONTINUOUS
10
1.4771544488188977
20
0.8686743700787402
11
1.4771546456692912
21
0.8686744488188977
0
LINE
8
BLACK
6
CONTINUOUS
10
1.4771546456692912
20
0.8686744488188977
11
1.4818341732283464
21
0.8716629527559054
0
LINE
8
BLACK
6
CONTINUOUS
10
1.4818341732283464
20
0.8716629527559054
11
1.4839515354330708
21
0.8734871259842519
0
LINE
8
BLACK
6
CONTINUOUS
10
1.4839515354330708
20
0.8734871259842519
11
1.4839521259842519
21
0.8734876771653544
0
LINE
8
BLACK
6
CONTINUOUS
10
1.4839521259842519
20
0.8734876771653544
11
1.4876
21
0.8776735039370078
0
LINE
8
BLACK
6
CONTINUOUS
10
1.4876
20
0.8776735039370078
11
1.4876001574803148
21
0.8776737401574803
0
LINE
8
BLACK
6
CONTINUOUS
10
1.4876001574803148
20
0.8776737401574803
11
1.4899208661417322
21
0.8827175590551181
0
LINE
8
BLACK
6
CONTINUOUS
10
1.4899208661417322
20
0.8827175590551181
11
1.4899208661417322
21
0.8827175984251968
0
LINE
8
BLACK
6
CONTINUOUS
10
1.4899208661417322
20
0.8827175984251968
11
1.4899209842519685
21
0.8827178346456692
0
LINE
8
BLACK
6
CONTINUOUS
10
1.4899209842519685
20
0.8827178346456692
11
1.4907160629921259
21
0.8853975196850393
0
LINE
8
BLACK
6
CONTINUOUS
10
1.4907160629921259
20
0.8853975196850393
11
1.4915218503937007
21
0.8908911023622047
0
LINE
8
BLACK
6
CONTINUOUS
10
1.4915218503937007
20
0.8908911023622047
11
1.4919936614173228
21
1.056969842519685
0
LINE
8
BLACK
6
CONTINUOUS
10
1.4919936614173228
20
1.056969842519685
11
1.4915538582677166
21
1.0611446062992125
0
LINE
8
BLACK
6
CONTINUOUS
10
1.4915538582677166
20
1.0611446062992125
11
1.4911056299212597
21
1.0632194094488188
0
LINE
8
BLACK
6
CONTINUOUS
10
1.4911056299212597
20
1.0632194094488188
11
1.4897826377952756
21
1.0672038976377953
0
LINE
8
BLACK
6
CONTINUOUS
10
1.4897826377952756
20
1.0672038976377953
11
1.4867807480314961
21
1.0718749999999999
0
LINE
8
BLACK
6
CONTINUOUS
10
1.4867807480314961
20
1.0718749999999999
11
1.4849503149606298
21
1.073987440944882
0
LINE
8
BLACK
6
CONTINUOUS
10
1.4849503149606298
20
1.073987440944882
11
1.4849502362204725
21
1.0739874803149605
0
LINE
8
BLACK
6
CONTINUOUS
10
1.4849502362204725
20
1.0739874803149605
11
1.4849364566929133
21
1.0740033858267717
0
LINE
8
BLACK
6
CONTINUOUS
10
1.4849364566929133
20
1.0740033858267717
11
1.4848497637795275
21
1.0740745275590551
0
LINE
8
BLACK
6
CONTINUOUS
10
1.4848497637795275
20
1.0740745275590551
11
1.4807539370078739
21
1.0776236220472442
0
LINE
8
BLACK
6
CONTINUOUS
10
1.4807539370078739
20
1.0776236220472442
11
1.4757031889763779
21
1.0799301968503936
0
LINE
8
BLACK
6
CONTINUOUS
10
1.4757031889763779
20
1.0799301968503936
11
1.4730212598425196
21
1.0807176771653544
0
LINE
8
BLACK
6
CONTINUOUS
10
1.4730212598425196
20
1.0807176771653544
11
1.4675252755905512
21
1.081507874015748
0
LINE
8
BLACK
6
CONTINUOUS
10
1.4675252755905512
20
1.081507874015748
11
1.4675251181102362
21
1.081507874015748
0
LINE
8
BLACK
6
CONTINUOUS
10
1.4675251181102362
20
1.081507874015748
11
1.1301559448818896
21
1.081507874015748
0
LINE
8
BLACK
6
CONTINUOUS
10
1.1301559448818896
20
1.081507874015748
11
1.1274740157480314
21
1.0822953543307086
0
LINE
8
BLACK
6
CONTINUOUS
10
1.1274740157480314
20
1.0822953543307086
11
1.1266482677165355
21
1.0829608267716535
0
LINE
8
BLACK
6
CONTINUOUS
10
1.1266482677165355
20
1.0829608267716535
11
1.1247012204724409
21
1.0849078740157481
0
LINE
8
BLACK
6
CONTINUOUS
10
1.1247012204724409
20
1.0849078740157481
11
1.1224635826771654
21
1.0865829527559054
0
LINE
8
BLACK
6
CONTINUOUS
10
1.1224635826771654
20
1.0865829527559054
11
1.1224633858267716
21
1.0865830708661417
0
LINE
8
BLACK
6
CONTINUOUS
10
1.1224633858267716
20
1.0865830708661417
11
1.1177800787401575
21
1.0891402362204725
0
LINE
8
BLACK
6
CONTINUOUS
10
1.1177800787401575
20
1.0891402362204725
11
1.1169203149606299
21
1.0900000000000001
0
LINE
8
BLACK
6
CONTINUOUS
10
1.1169203149606299
20
1.0900000000000001
11
1.115
21
1.0900000000000001
0
LINE
8
BLACK
6
CONTINUOUS
10
1.115
20
1.0900000000000001
11
1.115
21
1.24
0
LINE
8
BLACK
6
CONTINUOUS
10
1.115
20
1.24
11
1.1170016929133857
21
1.24
0
LINE
8
BLACK
6
CONTINUOUS
10
1.1170016929133857
20
1.24
11
1.1180967716535433
21
1.2409488976377951
0
LINE
8
BLACK
6
CONTINUOUS
10
1.1180967716535433
20
1.2409488976377951
11
1.1182587401574804
21
1.2410194094488189
0
LINE
8
BLACK
6
CONTINUOUS
10
1.1182587401574804
20
1.2410194094488189
11
1.1185655905511811
21
1.2411465354330709
0
LINE
8
BLACK
6
CONTINUOUS
10
1.1185655905511811
20
1.2411465354330709
11
1.1192040157480314
21
1.2414244094488189
0
LINE
8
BLACK
6
CONTINUOUS
10
1.1192040157480314
20
1.2414244094488189
11
1.1218427559055117
21
1.2431201968503938
0
LINE
8
BLACK
6
CONTINUOUS
10
1.1218427559055117
20
1.2431201968503938
11
1.123875
21
1.2444262598425198
0
LINE
8
BLACK
6
CONTINUOUS
10
1.123875
20
1.2444262598425198
11
1.1245857874015748
21
1.2450421653543307
0
LINE
8
BLACK
6
CONTINUOUS
10
1.1245857874015748
20
1.2450421653543307
11
1.1260035039370078
21
1.2462705905511811
0
LINE
8
BLACK
6
CONTINUOUS
10
1.1260035039370078
20
1.2462705905511811
11
1.1260749606299212
21
1.2463577165354331
0
LINE
8
BLACK
6
CONTINUOUS
10
1.1260749606299212
20
1.2463577165354331
11
1.1296235433070867
21
1.2504529921259842
0
LINE
8
BLACK
6
CONTINUOUS
10
1.1296235433070867
20
1.2504529921259842
11
1.129623622047244
21
1.2504530708661417
0
LINE
8
BLACK
6
CONTINUOUS
10
1.129623622047244
20
1.2504530708661417
11
1.1319301968503936
21
1.2555038188976377
0
LINE
8
BLACK
6
CONTINUOUS
10
1.1319301968503936
20
1.2555038188976377
11
1.1327176771653542
21
1.258185748031496
0
LINE
8
BLACK
6
CONTINUOUS
10
1.1327176771653542
20
1.258185748031496
11
1.133507874015748
21
1.2636817322834646
0
LINE
8
BLACK
6
CONTINUOUS
10
1.133507874015748
20
1.2636817322834646
11
1.133507874015748
21
1.407737716535433
0
LINE
8
BLACK
6
CONTINUOUS
10
1.133507874015748
20
1.407737716535433
11
1.133507874015748
21
1.5050305905511812
0
LINE
8
BLACK
6
CONTINUOUS
10
0.1163385826771653
20
1.0256532677165353
11
0.1163386614173228
21
1.0256524409448819
0
LINE
8
BLACK
6
CONTINUOUS
10
0.1163386614173228
20
1.0256524409448819
11
0.1165857874015748
21
1.0233531889763778
0
LINE
8
BLACK
6
CONTINUOUS
10
0.1165857874015748
20
1.0233531889763778
11
0.1165858661417323
21
1.0233529133858268
0
LINE
8
BLACK
6
CONTINUOUS
10
0.1165858661417323
20
1.0233529133858268
11
0.1185263779527559
21
1.0181500787401574
0
LINE
8
BLACK
6
CONTINUOUS
10
0.1185263779527559
20
1.0181500787401574
11
0.1218541732283464
21
1.0137045669291338
0
LINE
8
BLACK
6
CONTINUOUS
10
0.1218541732283464
20
1.0137045669291338
11
0.1262996850393701
21
1.0103767716535432
0
LINE
8
BLACK
6
CONTINUOUS
10
0.1262996850393701
20
1.0103767716535432
11
0.1315025196850394
21
1.0084362598425196
0
LINE
8
BLACK
6
CONTINUOUS
10
0.1315025196850394
20
1.0084362598425196
11
0.1315024409448819
21
1.0084362598425196
0
LINE
8
BLACK
6
CONTINUOUS
10
0.1315024409448819
20
1.0084362598425196
11
0.1338024803149606
21
1.0081889763779528
0
LINE
8
BLACK
6
CONTINUOUS
10
0.1338024803149606
20
1.0081889763779528
11
0.1338025590551181
21
1.0081889763779528
0
LINE
8
BLACK
6
CONTINUOUS
10
0.1338025590551181
20
1.0081889763779528
11
0.2874962992125984
21
1.0081889763779528
0
LINE
8
BLACK
6
CONTINUOUS
10
0.2874962992125984
20
1.0081889763779528
11
0.287497125984252
21
1.0081890551181103
0
LINE
8
BLACK
6
CONTINUOUS
10
0.287497125984252
20
1.0081890551181103
11
0.2897963779527559
21
1.0084361811023621
0
LINE
8
BLACK
6
CONTINUOUS
10
0.2897963779527559
20
1.0084361811023621
11
0.2897966535433071
21
1.0084362598425196
0
LINE
8
BLACK
6
CONTINUOUS
10
0.2897966535433071
20
1.0084362598425196
11
0.2949994881889764
21
1.0103767716535432
0
LINE
8
BLACK
6
CONTINUOUS
10
0.2949994881889764
20
1.0103767716535432
11
0.2949995669291339
21
1.010376811023622
0
LINE
8
BLACK
6
CONTINUOUS
10
0.2949995669291339
20
1.010376811023622
11
0.2964757086614173
21
1.0114818503937009
0
LINE
8
BLACK
6
CONTINUOUS
10
0.2964757086614173
20
1.0114818503937009
11
0.299445
21
1.0137045669291338
0
LINE
8
BLACK
6
CONTINUOUS
10
0.299445
20
1.0137045669291338
11
0.3027727952755905
21
1.0181500393700786
0
LINE
8
BLACK
6
CONTINUOUS
10
0.3027727952755905
20
1.0181500393700786
11
0.3044269291338583
21
1.0225850393700786
0
LINE
8
BLACK
6
CONTINUOUS
10
0.3044269291338583
20
1.0225850393700786
11
0.306101968503937
21
1.0248226771653544
0
LINE
8
BLACK
6
CONTINUOUS
10
0.306101968503937
20
1.0248226771653544
11
0.3087208661417323
21
1.0257994881889763
0
LINE
8
BLACK
6
CONTINUOUS
10
0.3087208661417323
20
1.0257994881889763
11
0.3114521653543307
21
1.0252053543307087
0
LINE
8
BLACK
6
CONTINUOUS
10
0.3114521653543307
20
1.0252053543307087
11
0.3134286220472441
21
1.0232288976377952
0
LINE
8
BLACK
6
CONTINUOUS
10
0.3134286220472441
20
1.0232288976377952
11
0.3137226771653543
21
1.0225850393700786
0
LINE
8
BLACK
6
CONTINUOUS
10
0.3137226771653543
20
1.0225850393700786
11
0.3153767716535433
21
1.0181500393700786
0
LINE
8
BLACK
6
CONTINUOUS
10
0.3153767716535433
20
1.0181500393700786
11
0.3187045669291338
21
1.0137045669291338
0
LINE
8
BLACK
6
CONTINUOUS
10
0.3187045669291338
20
1.0137045669291338
11
0.3231500787401575
21
1.0103767716535432
0
LINE
8
BLACK
6
CONTINUOUS
10
0.3231500787401575
20
1.0103767716535432
11
0.3283529133858268
21
1.0084362598425196
0
LINE
8
BLACK
6
CONTINUOUS
10
0.3283529133858268
20
1.0084362598425196
11
0.3283528346456693
21
1.0084362598425196
0
LINE
8
BLACK
6
CONTINUOUS
10
0.3283528346456693
20
1.0084362598425196
11
0.330652874015748
21
1.0081889763779528
0
LINE
8
BLACK
6
CONTINUOUS
10
0.330652874015748
20
1.0081889763779528
11
0.3306529527559055
21
1.0081889763779528
0
LINE
8
BLACK
6
CONTINUOUS
10
0.3306529527559055
20
1.0081889763779528
11
0.4843466929133858
21
1.0081889763779528
0
LINE
8
BLACK
6
CONTINUOUS
10
0.4843466929133858
20
1.0081889763779528
11
0.4843475196850394
21
1.0081890551181103
0
LINE
8
BLACK
6
CONTINUOUS
10
0.4843475196850394
20
1.0081890551181103
11
0.4866467716535433
21
1.0084361811023621
0
LINE
8
BLACK
6
CONTINUOUS
10
0.4866467716535433
20
1.0084361811023621
11
0.4866470472440945
21
1.0084362598425196
0
LINE
8
BLACK
6
CONTINUOUS
10
0.4866470472440945
20
1.0084362598425196
11
0.4918498818897638
21
1.0103767716535432
0
LINE
8
BLACK
6
CONTINUOUS
10
0.4918498818897638
20
1.0103767716535432
11
0.4918499606299213
21
1.010376811023622
0
LINE
8
BLACK
6
CONTINUOUS
10
0.4918499606299213
20
1.010376811023622
11
0.4933261023622047
21
1.0114818503937009
0
LINE
8
BLACK
6
CONTINUOUS
10
0.4933261023622047
20
1.0114818503937009
11
0.4962953937007874
21
1.0137045669291338
0
LINE
8
BLACK
6
CONTINUOUS
10
0.4962953937007874
20
1.0137045669291338
11
0.4979592913385827
21
1.0159273228346457
0
LINE
8
BLACK
6
CONTINUOUS
10
0.4979592913385827
20
1.0159273228346457
11
0.4996231889763779
21
1.0181500393700786
0
LINE
8
BLACK
6
CONTINUOUS
10
0.4996231889763779
20
1.0181500393700786
11
0.5015637401574803
21
1.0233529527559055
0
LINE
8
BLACK
6
CONTINUOUS
10
0.5015637401574803
20
1.0233529527559055
11
0.5018110236220472
21
1.0256529527559055
0
LINE
8
BLACK
6
CONTINUOUS
10
0.5018110236220472
20
1.0256529527559055
11
0.5018109842519685
21
1.1793470078740158
0
LINE
8
BLACK
6
CONTINUOUS
10
0.5018109842519685
20
1.1793470078740158
11
0.5015637401574803
21
1.1816470472440945
0
LINE
8
BLACK
6
CONTINUOUS
10
0.5015637401574803
20
1.1816470472440945
11
0.4996231889763779
21
1.1868499606299212
0
LINE
8
BLACK
6
CONTINUOUS
10
0.4996231889763779
20
1.1868499606299212
11
0.4962953937007874
21
1.1912953937007873
0
LINE
8
BLACK
6
CONTINUOUS
10
0.4962953937007874
20
1.1912953937007873
11
0.4918499606299213
21
1.1946231889763779
0
LINE
8
BLACK
6
CONTINUOUS
10
0.4918499606299213
20
1.1946231889763779
11
0.4866470472440945
21
1.1965637401574802
0
LINE
8
BLACK
6
CONTINUOUS
10
0.4866470472440945
20
1.1965637401574802
11
0.4843470472440945
21
1.1968110236220473
0
LINE
8
BLACK
6
CONTINUOUS
10
0.4843470472440945
20
1.1968110236220473
11
0.3306529921259843
21
1.1968109842519685
0
LINE
8
BLACK
6
CONTINUOUS
10
0.3306529921259843
20
1.1968109842519685
11
0.3293134251968504
21
1.1966669685039371
0
LINE
8
BLACK
6
CONTINUOUS
10
0.3293134251968504
20
1.1966669685039371
11
0.3283531889763779
21
1.196563779527559
0
LINE
8
BLACK
6
CONTINUOUS
10
0.3283531889763779
20
1.196563779527559
11
0.3283531102362205
21
1.1965637401574802
0
LINE
8
BLACK
6
CONTINUOUS
10
0.3283531102362205
20
1.1965637401574802
11
0.3283529527559055
21
1.1965637401574802
0
LINE
8
BLACK
6
CONTINUOUS
10
0.3283529527559055
20
1.1965637401574802
11
0.3231500393700787
21
1.1946231889763779
0
LINE
8
BLACK
6
CONTINUOUS
10
0.3231500393700787
20
1.1946231889763779
11
0.3209273228346456
21
1.1929592913385827
0
LINE
8
BLACK
6
CONTINUOUS
10
0.3209273228346456
20
1.1929592913385827
11
0.3187045669291338
21
1.1912953937007873
0
LINE
8
BLACK
6
CONTINUOUS
10
0.3187045669291338
20
1.1912953937007873
11
0.3153767716535433
21
1.1868499212598425
0
LINE
8
BLACK
6
CONTINUOUS
10
0.3153767716535433
20
1.1868499212598425
11
0.3137226377952756
21
1.1824149212598425
0
LINE
8
BLACK
6
CONTINUOUS
10
0.3137226377952756
20
1.1824149212598425
11
0.3120475590551181
21
1.180177283464567
0
LINE
8
BLACK
6
CONTINUOUS
10
0.3120475590551181
20
1.180177283464567
11
0.3094286614173228
21
1.1792004724409448
0
LINE
8
BLACK
6
CONTINUOUS
10
0.3094286614173228
20
1.1792004724409448
11
0.3066974015748031
21
1.1797946062992126
0
LINE
8
BLACK
6
CONTINUOUS
10
0.3066974015748031
20
1.1797946062992126
11
0.3047209448818898
21
1.1817710629921259
0
LINE
8
BLACK
6
CONTINUOUS
10
0.3047209448818898
20
1.1817710629921259
11
0.3044270472440945
21
1.1824146062992125
0
LINE
8
BLACK
6
CONTINUOUS
10
0.3044270472440945
20
1.1824146062992125
11
0.3027727952755905
21
1.1868499606299212
0
LINE
8
BLACK
6
CONTINUOUS
10
0.3027727952755905
20
1.1868499606299212
11
0.299445
21
1.1912953937007873
0
LINE
8
BLACK
6
CONTINUOUS
10
0.299445
20
1.1912953937007873
11
0.2949995669291339
21
1.1946231889763779
0
LINE
8
BLACK
6
CONTINUOUS
10
0.2949995669291339
20
1.1946231889763779
11
0.2897966535433071
21
1.1965637401574802
0
LINE
8
BLACK
6
CONTINUOUS
10
0.2897966535433071
20
1.1965637401574802
11
0.2874966535433071
21
1.1968110236220473
0
LINE
8
BLACK
6
CONTINUOUS
10
0.2874966535433071
20
1.1968110236220473
11
0.1338025984251968
21
1.1968109842519685
0
LINE
8
BLACK
6
CONTINUOUS
10
0.1338025984251968
20
1.1968109842519685
11
0.132463031496063
21
1.1966669685039371
0
LINE
8
BLACK
6
CONTINUOUS
10
0.132463031496063
20
1.1966669685039371
11
0.1315027952755906
21
1.196563779527559
0
LINE
8
BLACK
6
CONTINUOUS
10
0.1315027952755906
20
1.196563779527559
11
0.1315027165354331
21
1.1965637401574802
0
LINE
8
BLACK
6
CONTINUOUS
10
0.1315027165354331
20
1.1965637401574802
11
0.1315025590551181
21
1.1965637401574802
0
LINE
8
BLACK
6
CONTINUOUS
10
0.1315025590551181
20
1.1965637401574802
11
0.1262996456692913
21
1.1946231889763779
0
LINE
8
BLACK
6
CONTINUOUS
10
0.1262996456692913
20
1.1946231889763779
11
0.1240769291338583
21
1.1929592913385827
0
LINE
8
BLACK
6
CONTINUOUS
10
0.1240769291338583
20
1.1929592913385827
11
0.1218541732283464
21
1.1912953937007873
0
LINE
8
BLACK
6
CONTINUOUS
10
0.1218541732283464
20
1.1912953937007873
11
0.1185263779527559
21
1.1868498818897637
0
LINE
8
BLACK
6
CONTINUOUS
10
0.1185263779527559
20
1.1868498818897637
11
0.1165858661417323
21
1.1816470866141733
0
LINE
8
BLACK
6
CONTINUOUS
10
0.1165858661417323
20
1.1816470866141733
11
0.1163385826771653
21
1.1793473228346456
0
LINE
8
BLACK
6
CONTINUOUS
10
0.1163385826771653
20
1.1793473228346456
11
0.1163385826771653
21
1.0256532677165353
0
LINE
8
BLACK
6
CONTINUOUS
10
0.0425
20
1.3922622440944881
11
0.0440167322834646
21
1.3768626377952755
0
LINE
8
BLACK
6
CONTINUOUS
10
0.0440167322834646
20
1.3768626377952755
11
0.0440168503937008
21
1.3768618503937007
0
LINE
8
BLACK
6
CONTINUOUS
10
0.0440168503937008
20
1.3768618503937007
11
0.0470356692913386
21
1.3616849606299213
0
LINE
8
BLACK
6
CONTINUOUS
10
0.0470356692913386
20
1.3616849606299213
11
0.0515279527559055
21
1.3468758267716534
0
LINE
8
BLACK
6
CONTINUOUS
10
0.0515279527559055
20
1.3468758267716534
11
0.0515279921259843
21
1.3468756692913386
0
LINE
8
BLACK
6
CONTINUOUS
10
0.0515279921259843
20
1.3468756692913386
11
0.0574499606299213
21
1.3325788188976377
0
LINE
8
BLACK
6
CONTINUOUS
10
0.0574499606299213
20
1.3325788188976377
11
0.064744842519685
21
1.3189310236220473
0
LINE
8
BLACK
6
CONTINUOUS
10
0.064744842519685
20
1.3189310236220473
11
0.0733420472440945
21
1.3060644488188977
0
LINE
8
BLACK
6
CONTINUOUS
10
0.0733420472440945
20
1.3060644488188977
11
0.0733424803149606
21
1.3060638582677164
0
LINE
8
BLACK
6
CONTINUOUS
10
0.0733424803149606
20
1.3060638582677164
11
0.0831592125984252
21
1.2941020866141733
0
LINE
8
BLACK
6
CONTINUOUS
10
0.0831592125984252
20
1.2941020866141733
11
0.0831599212598425
21
1.2941013385826772
0
LINE
8
BLACK
6
CONTINUOUS
10
0.0831599212598425
20
1.2941013385826772
11
0.0941013385826772
21
1.2831599212598426
0
LINE
8
BLACK
6
CONTINUOUS
10
0.0941013385826772
20
1.2831599212598426
11
0.0941020866141732
21
1.2831592125984252
0
LINE
8
BLACK
6
CONTINUOUS
10
0.0941020866141732
20
1.2831592125984252
11
0.1060638582677165
21
1.2733424803149607
0
LINE
8
BLACK
6
CONTINUOUS
10
0.1060638582677165
20
1.2733424803149607
11
0.1060644488188976
21
1.2733420472440944
0
LINE
8
BLACK
6
CONTINUOUS
10
0.1060644488188976
20
1.2733420472440944
11
0.1189310236220472
21
1.264744842519685
0
LINE
8
BLACK
6
CONTINUOUS
10
0.1189310236220472
20
1.264744842519685
11
0.1325788188976378
21
1.2574499606299212
0
LINE
8
BLACK
6
CONTINUOUS
10
0.1325788188976378
20
1.2574499606299212
11
0.1468756692913386
21
1.2515279921259843
0
LINE
8
BLACK
6
CONTINUOUS
10
0.1468756692913386
20
1.2515279921259843
11
0.1468758267716535
21
1.2515279527559056
0
LINE
8
BLACK
6
CONTINUOUS
10
0.1468758267716535
20
1.2515279527559056
11
0.1616849606299212
21
1.2470356692913385
0
LINE
8
BLACK
6
CONTINUOUS
10
0.1616849606299212
20
1.2470356692913385
11
0.1768618503937008
21
1.2440168503937008
0
LINE
8
BLACK
6
CONTINUOUS
10
0.1768618503937008
20
1.2440168503937008
11
0.176861968503937
21
1.244016811023622
0
LINE
8
BLACK
6
CONTINUOUS
10
0.176861968503937
20
1.244016811023622
11
0.1768620866141732
21
1.244016811023622
0
LINE
8
BLACK
6
CONTINUOUS
10
0.1768620866141732
20
1.244016811023622
11
0.176862125984252
21
1.2440167716535433
0
LINE
8
BLACK
6
CONTINUOUS
10
0.176862125984252
20
1.2440167716535433
11
0.1768626377952756
21
1.2440167322834645
0
LINE
8
BLACK
6
CONTINUOUS
10
0.1768626377952756
20
1.2440167322834645
11
0.1922622440944882
21
1.2424999999999999
0
LINE
8
BLACK
6
CONTINUOUS
10
0.1922622440944882
20
1.2424999999999999
11
0.1922625196850394
21
1.2424999999999999
0
LINE
8
BLACK
6
CONTINUOUS
10
0.1922625196850394
20
1.2424999999999999
11
0.2077377165354331
21
1.2424999999999999
0
LINE
8
BLACK
6
CONTINUOUS
10
0.2077377165354331
20
1.2424999999999999
11
0.2231373228346457
21
1.2440167322834645
0
LINE
8
BLACK
6
CONTINUOUS
10
0.2231373228346457
20
1.2440167322834645
11
0.2231377165354331
21
1.2440167716535433
0
LINE
8
BLACK
6
CONTINUOUS
10
0.2231377165354331
20
1.2440167716535433
11
0.2231379133858268
21
1.244016811023622
0
LINE
8
BLACK
6
CONTINUOUS
10
0.2231379133858268
20
1.244016811023622
11
0.2232057086614173
21
1.2440302755905512
0
LINE
8
BLACK
6
CONTINUOUS
10
0.2232057086614173
20
1.2440302755905512
11
0.238315
21
1.2470356692913385
0
LINE
8
BLACK
6
CONTINUOUS
10
0.238315
20
1.2470356692913385
11
0.2383154330708661
21
1.2470357874015747
0
LINE
8
BLACK
6
CONTINUOUS
10
0.2383154330708661
20
1.2470357874015747
11
0.2383155511811024
21
1.2470358267716535
0
LINE
8
BLACK
6
CONTINUOUS
10
0.2383155511811024
20
1.2470358267716535
11
0.2531241338582677
21
1.2515279527559056
0
LINE
8
BLACK
6
CONTINUOUS
10
0.2531241338582677
20
1.2515279527559056
11
0.2531242913385827
21
1.2515279921259843
0
LINE
8
BLACK
6
CONTINUOUS
10
0.2531242913385827
20
1.2515279921259843
11
0.2674211417322835
21
1.2574499606299212
0
LINE
8
BLACK
6
CONTINUOUS
10
0.2674211417322835
20
1.2574499606299212
11
0.281068937007874
21
1.264744842519685
0
LINE
8
BLACK
6
CONTINUOUS
10
0.281068937007874
20
1.264744842519685
11
0.2939355118110236
21
1.2733420472440944
0
LINE
8
BLACK
6
CONTINUOUS
10
0.2939355118110236
20
1.2733420472440944
11
0.2939361023622047
21
1.2733424803149607
0
LINE
8
BLACK
6
CONTINUOUS
10
0.2939361023622047
20
1.2733424803149607
11
0.305897874015748
21
1.2831592125984252
0
LINE
8
BLACK
6
CONTINUOUS
10
0.305897874015748
20
1.2831592125984252
11
0.3058986220472441
21
1.2831599212598426
0
LINE
8
BLACK
6
CONTINUOUS
10
0.3058986220472441
20
1.2831599212598426
11
0.3168400393700787
21
1.2941013385826772
0
LINE
8
BLACK
6
CONTINUOUS
10
0.3168400393700787
20
1.2941013385826772
11
0.316840748031496
21
1.2941020866141733
0
LINE
8
BLACK
6
CONTINUOUS
10
0.316840748031496
20
1.2941020866141733
11
0.3266574803149606
21
1.3060638582677164
0
LINE
8
BLACK
6
CONTINUOUS
10
0.3266574803149606
20
1.3060638582677164
11
0.3266579133858268
21
1.3060644488188977
0
LINE
8
BLACK
6
CONTINUOUS
10
0.3266579133858268
20
1.3060644488188977
11
0.3352551181102362
21
1.3189310236220473
0
LINE
8
BLACK
6
CONTINUOUS
10
0.3352551181102362
20
1.3189310236220473
11
0.3361755118110236
21
1.3206529527559054
0
LINE
8
BLACK
6
CONTINUOUS
10
0.3361755118110236
20
1.3206529527559054
11
0.3425500393700787
21
1.3325788582677165
0
LINE
8
BLACK
6
CONTINUOUS
10
0.3425500393700787
20
1.3325788582677165
11
0.3484720472440945
21
1.3468758661417322
0
LINE
8
BLACK
6
CONTINUOUS
10
0.3484720472440945
20
1.3468758661417322
11
0.3529641732283464
21
1.3616844488188975
0
LINE
8
BLACK
6
CONTINUOUS
10
0.3529641732283464
20
1.3616844488188975
11
0.3559831889763779
21
1.3768620866141732
0
LINE
8
BLACK
6
CONTINUOUS
10
0.3559831889763779
20
1.3768620866141732
11
0.3575
21
1.3922625196850393
0
LINE
8
BLACK
6
CONTINUOUS
10
0.3575
20
1.3922625196850393
11
0.3575
21
1.4077374803149605
0
LINE
8
BLACK
6
CONTINUOUS
10
0.3575
20
1.4077374803149605
11
0.3559831889763779
21
1.4231379133858268
0
LINE
8
BLACK
6
CONTINUOUS
10
0.3559831889763779
20
1.4231379133858268
11
0.3529641732283464
21
1.4383155511811023
0
LINE
8
BLACK
6
CONTINUOUS
10
0.3529641732283464
20
1.4383155511811023
11
0.3484720472440945
21
1.4531241338582677
0
LINE
8
BLACK
6
CONTINUOUS
10
0.3484720472440945
20
1.4531241338582677
11
0.3425500393700787
21
1.4674211417322833
0
LINE
8
BLACK
6
CONTINUOUS
10
0.3425500393700787
20
1.4674211417322833
11
0.3352551968503937
21
1.4810688582677165
0
LINE
8
BLACK
6
CONTINUOUS
10
0.3352551968503937
20
1.4810688582677165
11
0.3336392913385827
21
1.4834871259842519
0
LINE
8
BLACK
6
CONTINUOUS
10
0.3336392913385827
20
1.4834871259842519
11
0.3314766141732283
21
1.486723937007874
0
LINE
8
BLACK
6
CONTINUOUS
10
0.3314766141732283
20
1.486723937007874
11
0.3297237007874015
21
1.4893473228346457
0
LINE
8
BLACK
6
CONTINUOUS
10
0.3297237007874015
20
1.4893473228346457
11
0.3281870078740157
21
1.4916470866141731
0
LINE
8
BLACK
6
CONTINUOUS
10
0.3281870078740157
20
1.4916470866141731
11
0.3266577559055118
21
1.4939357874015748
0
LINE
8
BLACK
6
CONTINUOUS
10
0.3266577559055118
20
1.4939357874015748
11
0.3168405511811024
21
1.5058981102362203
0
LINE
8
BLACK
6
CONTINUOUS
10
0.3168405511811024
20
1.5058981102362203
11
0.3058981102362205
21
1.5168405511811023
0
LINE
8
BLACK
6
CONTINUOUS
10
0.3058981102362205
20
1.5168405511811023
11
0.2939357874015748
21
1.5266577559055117
0
LINE
8
BLACK
6
CONTINUOUS
10
0.2939357874015748
20
1.5266577559055117
11
0.2810688582677165
21
1.5352551968503936
0
LINE
8
BLACK
6
CONTINUOUS
10
0.2810688582677165
20
1.5352551968503936
11
0.2674211417322835
21
1.5425500393700786
0
LINE
8
BLACK
6
CONTINUOUS
10
0.2674211417322835
20
1.5425500393700786
11
0.2531241338582677
21
1.5484720472440945
0
LINE
8
BLACK
6
CONTINUOUS
10
0.2531241338582677
20
1.5484720472440945
11
0.2383155511811024
21
1.5529641732283463
0
LINE
8
BLACK
6
CONTINUOUS
10
0.2383155511811024
20
1.5529641732283463
11
0.2383150787401575
21
1.5529642519685039
0
LINE
8
BLACK
6
CONTINUOUS
10
0.2383150787401575
20
1.5529642519685039
11
0.238315
21
1.5529642913385826
0
LINE
8
BLACK
6
CONTINUOUS
10
0.238315
20
1.5529642913385826
11
0.2356389763779528
21
1.5534965354330708
0
LINE
8
BLACK
6
CONTINUOUS
10
0.2356389763779528
20
1.5534965354330708
11
0.2231379133858268
21
1.555983188976378
0
LINE
8
BLACK
6
CONTINUOUS
10
0.2231379133858268
20
1.555983188976378
11
0.2077374803149606
21
1.5574999999999999
0
LINE
8
BLACK
6
CONTINUOUS
10
0.2077374803149606
20
1.5574999999999999
11
0.1922625196850394
21
1.5574999999999999
0
LINE
8
BLACK
6
CONTINUOUS
10
0.1922625196850394
20
1.5574999999999999
11
0.1768620866141732
21
1.555983188976378
0
LINE
8
BLACK
6
CONTINUOUS
10
0.1768620866141732
20
1.555983188976378
11
0.166834094488189
21
1.5539884645669291
0
LINE
8
BLACK
6
CONTINUOUS
10
0.166834094488189
20
1.5539884645669291
11
0.1616849606299212
21
1.5529642913385826
0
LINE
8
BLACK
6
CONTINUOUS
10
0.1616849606299212
20
1.5529642913385826
11
0.1616848031496063
21
1.5529642125984251
0
LINE
8
BLACK
6
CONTINUOUS
10
0.1616848031496063
20
1.5529642125984251
11
0.1616844488188976
21
1.5529641732283463
0
LINE
8
BLACK
6
CONTINUOUS
10
0.1616844488188976
20
1.5529641732283463
11
0.1468758661417323
21
1.5484720472440945
0
LINE
8
BLACK
6
CONTINUOUS
10
0.1468758661417323
20
1.5484720472440945
11
0.1325788582677165
21
1.5425500393700786
0
LINE
8
BLACK
6
CONTINUOUS
10
0.1325788582677165
20
1.5425500393700786
11
0.1189311417322835
21
1.5352551968503936
0
LINE
8
BLACK
6
CONTINUOUS
10
0.1189311417322835
20
1.5352551968503936
11
0.1060642125984252
21
1.5266577559055117
0
LINE
8
BLACK
6
CONTINUOUS
10
0.1060642125984252
20
1.5266577559055117
11
0.1060640157480315
21
1.5266575984251969
0
LINE
8
BLACK
6
CONTINUOUS
10
0.1060640157480315
20
1.5266575984251969
11
0.1060638582677165
21
1.5266574803149606
0
LINE
8
BLACK
6
CONTINUOUS
10
0.1060638582677165
20
1.5266574803149606
11
0.0941020866141732
21
1.516840748031496
0
LINE
8
BLACK
6
CONTINUOUS
10
0.0941020866141732
20
1.516840748031496
11
0.0941013385826772
21
1.5168400393700787
0
LINE
8
BLACK
6
CONTINUOUS
10
0.0941013385826772
20
1.5168400393700787
11
0.0831599212598425
21
1.5058986220472441
0
LINE
8
BLACK
6
CONTINUOUS
10
0.0831599212598425
20
1.5058986220472441
11
0.0831592125984252
21
1.505897874015748
0
LINE
8
BLACK
6
CONTINUOUS
10
0.0831592125984252
20
1.505897874015748
11
0.0733424803149606
21
1.4939361023622046
0
LINE
8
BLACK
6
CONTINUOUS
10
0.0733424803149606
20
1.4939361023622046
11
0.0733420472440945
21
1.4939355118110236
0
LINE
8
BLACK
6
CONTINUOUS
10
0.0733420472440945
20
1.4939355118110236
11
0.064744842519685
21
1.481068937007874
0
LINE
8
BLACK
6
CONTINUOUS
10
0.064744842519685
20
1.481068937007874
11
0.0574499606299213
21
1.4674211417322833
0
LINE
8
BLACK
6
CONTINUOUS
10
0.0574499606299213
20
1.4674211417322833
11
0.0515279921259843
21
1.4531242913385827
0
LINE
8
BLACK
6
CONTINUOUS
10
0.0515279921259843
20
1.4531242913385827
11
0.0515279527559055
21
1.4531241338582677
0
LINE
8
BLACK
6
CONTINUOUS
10
0.0515279527559055
20
1.4531241338582677
11
0.0470356692913386
21
1.438315
0
LINE
8
BLACK
6
CONTINUOUS
10
0.0470356692913386
20
1.438315
11
0.0440168503937008
21
1.4231381102362204
0
LINE
8
BLACK
6
CONTINUOUS
10
0.0440168503937008
20
1.4231381102362204
11
0.0440167322834646
21
1.4231373228346456
0
LINE
8
BLACK
6
CONTINUOUS
10
0.0440167322834646
20
1.4231373228346456
11
0.0425
21
1.407737716535433
0
LINE
8
BLACK
6
CONTINUOUS
10
0.0425
20
1.407737716535433
11
0.0425
21
1.3922622440944881
0
LINE
8
BLACK
6
CONTINUOUS
10
1.2424999999999999
20
1.3922622440944881
11
1.2440167322834645
21
1.3768626377952755
0
LINE
8
BLACK
6
CONTINUOUS
10
1.2440167322834645
20
1.3768626377952755
11
1.2440168503937008
21
1.3768618503937007
0
LINE
8
BLACK
6
CONTINUOUS
10
1.2440168503937008
20
1.3768618503937007
11
1.2470356692913385
21
1.3616849606299213
0
LINE
8
BLACK
6
CONTINUOUS
10
1.2470356692913385
20
1.3616849606299213
11
1.2515279527559056
21
1.3468758267716534
0
LINE
8
BLACK
6
CONTINUOUS
10
1.2515279527559056
20
1.3468758267716534
11
1.2515279921259843
21
1.3468756692913386
0
LINE
8
BLACK
6
CONTINUOUS
10
1.2515279921259843
20
1.3468756692913386
11
1.2574499606299212
21
1.3325788188976377
0
LINE
8
BLACK
6
CONTINUOUS
10
1.2574499606299212
20
1.3325788188976377
11
1.264744842519685
21
1.3189310236220473
0
LINE
8
BLACK
6
CONTINUOUS
10
1.264744842519685
20
1.3189310236220473
11
1.2733420472440944
21
1.3060644488188977
0
LINE
8
BLACK
6
CONTINUOUS
10
1.2733420472440944
20
1.3060644488188977
11
1.2733424803149607
21
1.3060638582677164
0
LINE
8
BLACK
6
CONTINUOUS
10
1.2733424803149607
20
1.3060638582677164
11
1.2831592125984252
21
1.2941020866141733
0
LINE
8
BLACK
6
CONTINUOUS
10
1.2831592125984252
20
1.2941020866141733
11
1.2831599212598426
21
1.2941013385826772
0
LINE
8
BLACK
6
CONTINUOUS
10
1.2831599212598426
20
1.2941013385826772
11
1.2941013385826772
21
1.2831599212598426
0
LINE
8
BLACK
6
CONTINUOUS
10
1.2941013385826772
20
1.2831599212598426
11
1.2941020866141733
21
1.2831592125984252
0
LINE
8
BLACK
6
CONTINUOUS
10
1.2941020866141733
20
1.2831592125984252
11
1.3060638582677164
21
1.2733424803149607
0
LINE
8
BLACK
6
CONTINUOUS
10
1.3060638582677164
20
1.2733424803149607
11
1.3060644488188977
21
1.2733420472440944
0
LINE
8
BLACK
6
CONTINUOUS
10
1.3060644488188977
20
1.2733420472440944
11
1.3189310236220473
21
1.264744842519685
0
LINE
8
BLACK
6
CONTINUOUS
10
1.3189310236220473
20
1.264744842519685
11
1.3325788188976377
21
1.2574499606299212
0
LINE
8
BLACK
6
CONTINUOUS
10
1.3325788188976377
20
1.2574499606299212
11
1.3468756692913386
21
1.2515279921259843
0
LINE
8
BLACK
6
CONTINUOUS
10
1.3468756692913386
20
1.2515279921259843
11
1.3468758267716534
21
1.2515279527559056
0
LINE
8
BLACK
6
CONTINUOUS
10
1.3468758267716534
20
1.2515279527559056
11
1.3616849606299213
21
1.2470356692913385
0
LINE
8
BLACK
6
CONTINUOUS
10
1.3616849606299213
20
1.2470356692913385
11
1.3768618503937007
21
1.2440168503937008
0
LINE
8
BLACK
6
CONTINUOUS
10
1.3768618503937007
20
1.2440168503937008
11
1.3768619685039369
21
1.244016811023622
0
LINE
8
BLACK
6
CONTINUOUS
10
1.3768619685039369
20
1.244016811023622
11
1.3768620866141732
21
1.244016811023622
0
LINE
8
BLACK
6
CONTINUOUS
10
1.3768620866141732
20
1.244016811023622
11
1.3768621259842519
21
1.2440167716535433
0
LINE
8
BLACK
6
CONTINUOUS
10
1.3768621259842519
20
1.2440167716535433
11
1.3768626377952755
21
1.2440167322834645
0
LINE
8
BLACK
6
CONTINUOUS
10
1.3768626377952755
20
1.2440167322834645
11
1.3922622440944881
21
1.2424999999999999
0
LINE
8
BLACK
6
CONTINUOUS
10
1.3922622440944881
20
1.2424999999999999
11
1.3922625196850393
21
1.2424999999999999
0
LINE
8
BLACK
6
CONTINUOUS
10
1.3922625196850393
20
1.2424999999999999
11
1.407737716535433
21
1.2424999999999999
0
LINE
8
BLACK
6
CONTINUOUS
10
1.407737716535433
20
1.2424999999999999
11
1.4231373228346456
21
1.2440167322834645
0
LINE
8
BLACK
6
CONTINUOUS
10
1.4231373228346456
20
1.2440167322834645
11
1.4231377165354331
21
1.2440167716535433
0
LINE
8
BLACK
6
CONTINUOUS
10
1.4231377165354331
20
1.2440167716535433
11
1.4231379133858268
21
1.244016811023622
0
LINE
8
BLACK
6
CONTINUOUS
10
1.4231379133858268
20
1.244016811023622
11
1.4232057086614174
21
1.2440302755905512
0
LINE
8
BLACK
6
CONTINUOUS
10
1.4232057086614174
20
1.2440302755905512
11
1.438315
21
1.2470356692913385
0
LINE
8
BLACK
6
CONTINUOUS
10
1.438315
20
1.2470356692913385
11
1.4383154330708661
21
1.2470357874015747
0
LINE
8
BLACK
6
CONTINUOUS
10
1.4383154330708661
20
1.2470357874015747
11
1.4383155511811023
21
1.2470358267716535
0
LINE
8
BLACK
6
CONTINUOUS
10
1.4383155511811023
20
1.2470358267716535
11
1.4531241338582677
21
1.2515279527559056
0
LINE
8
BLACK
6
CONTINUOUS
10
1.4531241338582677
20
1.2515279527559056
11
1.4531242913385827
21
1.2515279921259843
0
LINE
8
BLACK
6
CONTINUOUS
10
1.4531242913385827
20
1.2515279921259843
11
1.4674211417322833
21
1.2574499606299212
0
LINE
8
BLACK
6
CONTINUOUS
10
1.4674211417322833
20
1.2574499606299212
11
1.481068937007874
21
1.264744842519685
0
LINE
8
BLACK
6
CONTINUOUS
10
1.481068937007874
20
1.264744842519685
11
1.4939355118110236
21
1.2733420472440944
0
LINE
8
BLACK
6
CONTINUOUS
10
1.4939355118110236
20
1.2733420472440944
11
1.4939361023622046
21
1.2733424803149607
0
LINE
8
BLACK
6
CONTINUOUS
10
1.4939361023622046
20
1.2733424803149607
11
1.505897874015748
21
1.2831592125984252
0
LINE
8
BLACK
6
CONTINUOUS
10
1.505897874015748
20
1.2831592125984252
11
1.5058986220472441
21
1.2831599212598426
0
LINE
8
BLACK
6
CONTINUOUS
10
1.5058986220472441
20
1.2831599212598426
11
1.5168400393700787
21
1.2941013385826772
0
LINE
8
BLACK
6
CONTINUOUS
10
1.5168400393700787
20
1.2941013385826772
11
1.516840748031496
21
1.2941020866141733
0
LINE
8
BLACK
6
CONTINUOUS
10
1.516840748031496
20
1.2941020866141733
11
1.5266574803149606
21
1.3060638582677164
0
LINE
8
BLACK
6
CONTINUOUS
10
1.5266574803149606
20
1.3060638582677164
11
1.5266579133858267
21
1.3060644488188977
0
LINE
8
BLACK
6
CONTINUOUS
10
1.5266579133858267
20
1.3060644488188977
11
1.5352551181102363
21
1.3189310236220473
0
LINE
8
BLACK
6
CONTINUOUS
10
1.5352551181102363
20
1.3189310236220473
11
1.5361755118110236
21
1.3206529527559054
0
LINE
8
BLACK
6
CONTINUOUS
10
1.5361755118110236
20
1.3206529527559054
11
1.5425500393700786
21
1.3325788582677165
0
LINE
8
BLACK
6
CONTINUOUS
10
1.5425500393700786
20
1.3325788582677165
11
1.5484720472440945
21
1.3468758661417322
0
LINE
8
BLACK
6
CONTINUOUS
10
1.5484720472440945
20
1.3468758661417322
11
1.5529641732283463
21
1.3616844488188975
0
LINE
8
BLACK
6
CONTINUOUS
10
1.5529641732283463
20
1.3616844488188975
11
1.555983188976378
21
1.3768620866141732
0
LINE
8
BLACK
6
CONTINUOUS
10
1.555983188976378
20
1.3768620866141732
11
1.5574999999999999
21
1.3922625196850393
0
LINE
8
BLACK
6
CONTINUOUS
10
1.5574999999999999
20
1.3922625196850393
11
1.5574999999999999
21
1.4077374803149605
0
LINE
8
BLACK
6
CONTINUOUS
10
1.5574999999999999
20
1.4077374803149605
11
1.555983188976378
21
1.4231379133858268
0
LINE
8
BLACK
6
CONTINUOUS
10
1.555983188976378
20
1.4231379133858268
11
1.5529641732283463
21
1.4383155511811023
0
LINE
8
BLACK
6
CONTINUOUS
10
1.5529641732283463
20
1.4383155511811023
11
1.5484720472440945
21
1.4531241338582677
0
LINE
8
BLACK
6
CONTINUOUS
10
1.5484720472440945
20
1.4531241338582677
11
1.5425500393700786
21
1.4674211417322833
0
LINE
8
BLACK
6
CONTINUOUS
10
1.5425500393700786
20
1.4674211417322833
11
1.5352551968503936
21
1.4810688582677165
0
LINE
8
BLACK
6
CONTINUOUS
10
1.5352551968503936
20
1.4810688582677165
11
1.5266577559055117
21
1.4939357874015748
0
LINE
8
BLACK
6
CONTINUOUS
10
1.5266577559055117
20
1.4939357874015748
11
1.5168405511811023
21
1.5058981102362203
0
LINE
8
BLACK
6
CONTINUOUS
10
1.5168405511811023
20
1.5058981102362203
11
1.5058981102362203
21
1.5168405511811023
0
LINE
8
BLACK
6
CONTINUOUS
10
1.5058981102362203
20
1.5168405511811023
11
1.4939357874015748
21
1.5266577559055117
0
LINE
8
BLACK
6
CONTINUOUS
10
1.4939357874015748
20
1.5266577559055117
11
1.4810688582677165
21
1.5352551968503936
0
LINE
8
BLACK
6
CONTINUOUS
10
1.4810688582677165
20
1.5352551968503936
11
1.4674211417322833
21
1.5425500393700786
0
LINE
8
BLACK
6
CONTINUOUS
10
1.4674211417322833
20
1.5425500393700786
11
1.4531241338582677
21
1.5484720472440945
0
LINE
8
BLACK
6
CONTINUOUS
10
1.4531241338582677
20
1.5484720472440945
11
1.4383155511811023
21
1.5529641732283463
0
LINE
8
BLACK
6
CONTINUOUS
10
1.4383155511811023
20
1.5529641732283463
11
1.4383150787401575
21
1.5529642519685039
0
LINE
8
BLACK
6
CONTINUOUS
10
1.4383150787401575
20
1.5529642519685039
11
1.438315
21
1.5529642913385826
0
LINE
8
BLACK
6
CONTINUOUS
10
1.438315
20
1.5529642913385826
11
1.4356389763779527
21
1.5534965354330708
0
LINE
8
BLACK
6
CONTINUOUS
10
1.4356389763779527
20
1.5534965354330708
11
1.4231379133858268
21
1.555983188976378
0
LINE
8
BLACK
6
CONTINUOUS
10
1.4231379133858268
20
1.555983188976378
11
1.4077374803149605
21
1.5574999999999999
0
LINE
8
BLACK
6
CONTINUOUS
10
1.4077374803149605
20
1.5574999999999999
11
1.3922625196850393
21
1.5574999999999999
0
LINE
8
BLACK
6
CONTINUOUS
10
1.3922625196850393
20
1.5574999999999999
11
1.3768620866141732
21
1.555983188976378
0
LINE
8
BLACK
6
CONTINUOUS
10
1.3768620866141732
20
1.555983188976378
11
1.3668340944881889
21
1.5539884645669291
0
LINE
8
BLACK
6
CONTINUOUS
10
1.3668340944881889
20
1.5539884645669291
11
1.3616849606299213
21
1.5529642913385826
0
LINE
8
BLACK
6
CONTINUOUS
10
1.3616849606299213
20
1.5529642913385826
11
1.3616848031496063
21
1.5529642125984251
0
LINE
8
BLACK
6
CONTINUOUS
10
1.3616848031496063
20
1.5529642125984251
11
1.3616844488188975
21
1.5529641732283463
0
LINE
8
BLACK
6
CONTINUOUS
10
1.3616844488188975
20
1.5529641732283463
11
1.3468758661417322
21
1.5484720472440945
0
LINE
8
BLACK
6
CONTINUOUS
10
1.3468758661417322
20
1.5484720472440945
11
1.3325788582677165
21
1.5425500393700786
0
LINE
8
BLACK
6
CONTINUOUS
10
1.3325788582677165
20
1.5425500393700786
11
1.3189311417322835
21
1.5352551968503936
0
LINE
8
BLACK
6
CONTINUOUS
10
1.3189311417322835
20
1.5352551968503936
11
1.3060642125984252
21
1.5266577559055117
0
LINE
8
BLACK
6
CONTINUOUS
10
1.3060642125984252
20
1.5266577559055117
11
1.3060640157480314
21
1.5266575984251969
0
LINE
8
BLACK
6
CONTINUOUS
10
1.3060640157480314
20
1.5266575984251969
11
1.3060638582677164
21
1.5266574803149606
0
LINE
8
BLACK
6
CONTINUOUS
10
1.3060638582677164
20
1.5266574803149606
11
1.2941020866141733
21
1.516840748031496
0
LINE
8
BLACK
6
CONTINUOUS
10
1.2941020866141733
20
1.516840748031496
11
1.2941013385826772
21
1.5168400393700787
0
LINE
8
BLACK
6
CONTINUOUS
10
1.2941013385826772
20
1.5168400393700787
11
1.2831599212598426
21
1.5058986220472441
0
LINE
8
BLACK
6
CONTINUOUS
10
1.2831599212598426
20
1.5058986220472441
11
1.2831592125984252
21
1.505897874015748
0
LINE
8
BLACK
6
CONTINUOUS
10
1.2831592125984252
20
1.505897874015748
11
1.2733424803149607
21
1.4939361023622046
0
LINE
8
BLACK
6
CONTINUOUS
10
1.2733424803149607
20
1.4939361023622046
11
1.2733420472440944
21
1.4939355118110236
0
LINE
8
BLACK
6
CONTINUOUS
10
1.2733420472440944
20
1.4939355118110236
11
1.264744842519685
21
1.481068937007874
0
LINE
8
BLACK
6
CONTINUOUS
10
1.264744842519685
20
1.481068937007874
11
1.2574499606299212
21
1.4674211417322833
0
LINE
8
BLACK
6
CONTINUOUS
10
1.2574499606299212
20
1.4674211417322833
11
1.2515279921259843
21
1.4531242913385827
0
LINE
8
BLACK
6
CONTINUOUS
10
1.2515279921259843
20
1.4531242913385827
11
1.2515279527559056
21
1.4531241338582677
0
LINE
8
BLACK
6
CONTINUOUS
10
1.2515279527559056
20
1.4531241338582677
11
1.2470356692913385
21
1.438315
0
LINE
8
BLACK
6
CONTINUOUS
10
1.2470356692913385
20
1.438315
11
1.2440168503937008
21
1.4231381102362204
0
LINE
8
BLACK
6
CONTINUOUS
10
1.2440168503937008
20
1.4231381102362204
11
1.2440167322834645
21
1.4231373228346456
0
LINE
8
BLACK
6
CONTINUOUS
10
1.2440167322834645
20
1.4231373228346456
11
1.2424999999999999
21
1.407737716535433
0
LINE
8
BLACK
6
CONTINUOUS
10
1.2424999999999999
20
1.407737716535433
11
1.2424999999999999
21
1.3922622440944881
0
LINE
8
BLACK
6
CONTINUOUS
10
0.4731889763779528
20
1.4206532677165353
11
0.4731890551181102
21
1.420652440944882
0
LINE
8
BLACK
6
CONTINUOUS
10
0.4731890551181102
20
1.420652440944882
11
0.4734361811023622
21
1.4183531889763779
0
LINE
8
BLACK
6
CONTINUOUS
10
0.4734361811023622
20
1.4183531889763779
11
0.4734362598425197
21
1.4183529133858268
0
LINE
8
BLACK
6
CONTINUOUS
10
0.4734362598425197
20
1.4183529133858268
11
0.4753767716535433
21
1.4131500787401574
0
LINE
8
BLACK
6
CONTINUOUS
10
0.4753767716535433
20
1.4131500787401574
11
0.4787046456692913
21
1.4087044881889763
0
LINE
8
BLACK
6
CONTINUOUS
10
0.4787046456692913
20
1.4087044881889763
11
0.4789014960629921
21
1.4085076771653542
0
LINE
8
BLACK
6
CONTINUOUS
10
0.4789014960629921
20
1.4085076771653542
11
0.4802411023622047
21
1.4060544488188975
0
LINE
8
BLACK
6
CONTINUOUS
10
0.4802411023622047
20
1.4060544488188975
11
0.4800416929133858
21
1.4032664566929134
0
LINE
8
BLACK
6
CONTINUOUS
10
0.4800416929133858
20
1.4032664566929134
11
0.4789014960629921
21
1.4014923228346456
0
LINE
8
BLACK
6
CONTINUOUS
10
0.4789014960629921
20
1.4014923228346456
11
0.4787046456692913
21
1.4012954724409448
0
LINE
8
BLACK
6
CONTINUOUS
10
0.4787046456692913
20
1.4012954724409448
11
0.4753767716535433
21
1.3968498818897637
0
LINE
8
BLACK
6
CONTINUOUS
10
0.4753767716535433
20
1.3968498818897637
11
0.4734362598425197
21
1.3916470866141732
0
LINE
8
BLACK
6
CONTINUOUS
10
0.4734362598425197
20
1.3916470866141732
11
0.4731889763779528
21
1.3893473228346456
0
LINE
8
BLACK
6
CONTINUOUS
10
0.4731889763779528
20
1.3893473228346456
11
0.4731889763779528
21
1.3206532677165355
0
LINE
8
BLACK
6
CONTINUOUS
10
0.4731889763779528
20
1.3206532677165355
11
0.4731890551181102
21
1.3206524409448819
0
LINE
8
BLACK
6
CONTINUOUS
10
0.4731890551181102
20
1.3206524409448819
11
0.4734361811023622
21
1.318353188976378
0
LINE
8
BLACK
6
CONTINUOUS
10
0.4734361811023622
20
1.318353188976378
11
0.4734362598425197
21
1.3183529133858267
0
LINE
8
BLACK
6
CONTINUOUS
10
0.4734362598425197
20
1.3183529133858267
11
0.4753767716535433
21
1.3131500787401575
0
LINE
8
BLACK
6
CONTINUOUS
10
0.4753767716535433
20
1.3131500787401575
11
0.4787045669291338
21
1.3087045669291337
0
LINE
8
BLACK
6
CONTINUOUS
10
0.4787045669291338
20
1.3087045669291337
11
0.4831500787401575
21
1.3053767716535434
0
LINE
8
BLACK
6
CONTINUOUS
10
0.4831500787401575
20
1.3053767716535434
11
0.4883529133858268
21
1.3034362598425198
0
LINE
8
BLACK
6
CONTINUOUS
10
0.4883529133858268
20
1.3034362598425198
11
0.4883528346456693
21
1.3034362598425198
0
LINE
8
BLACK
6
CONTINUOUS
10
0.4883528346456693
20
1.3034362598425198
11
0.490652874015748
21
1.3031889763779527
0
LINE
8
BLACK
6
CONTINUOUS
10
0.490652874015748
20
1.3031889763779527
11
0.4906529527559055
21
1.3031889763779527
0
LINE
8
BLACK
6
CONTINUOUS
10
0.4906529527559055
20
1.3031889763779527
11
0.5593466929133858
21
1.3031889763779527
0
LINE
8
BLACK
6
CONTINUOUS
10
0.5593466929133858
20
1.3031889763779527
11
0.5593475196850394
21
1.3031890551181102
0
LINE
8
BLACK
6
CONTINUOUS
10
0.5593475196850394
20
1.3031890551181102
11
0.5616467716535433
21
1.3034361811023623
0
LINE
8
BLACK
6
CONTINUOUS
10
0.5616467716535433
20
1.3034361811023623
11
0.5616470472440944
21
1.3034362598425198
0
LINE
8
BLACK
6
CONTINUOUS
10
0.5616470472440944
20
1.3034362598425198
11
0.5668498818897638
21
1.3053767716535434
0
LINE
8
BLACK
6
CONTINUOUS
10
0.5668498818897638
20
1.3053767716535434
11
0.5668499606299212
21
1.3053768110236219
0
LINE
8
BLACK
6
CONTINUOUS
10
0.5668499606299212
20
1.3053768110236219
11
0.5712953543307087
21
1.3087045669291337
0
LINE
8
BLACK
6
CONTINUOUS
10
0.5712953543307087
20
1.3087045669291337
11
0.5712954724409449
21
1.3087046456692912
0
LINE
8
BLACK
6
CONTINUOUS
10
0.5712954724409449
20
1.3087046456692912
11
0.5714923228346457
21
1.3089014960629921
0
LINE
8
BLACK
6
CONTINUOUS
10
0.5714923228346457
20
1.3089014960629921
11
0.5739455511811024
21
1.3102411023622047
0
LINE
8
BLACK
6
CONTINUOUS
10
0.5739455511811024
20
1.3102411023622047
11
0.5767335433070866
21
1.3100416929133858
0
LINE
8
BLACK
6
CONTINUOUS
10
0.5767335433070866
20
1.3100416929133858
11
0.5785076771653543
21
1.3089014960629921
0
LINE
8
BLACK
6
CONTINUOUS
10
0.5785076771653543
20
1.3089014960629921
11
0.5787044881889764
21
1.3087046456692912
0
LINE
8
BLACK
6
CONTINUOUS
10
0.5787044881889764
20
1.3087046456692912
11
0.5831500787401575
21
1.3053767716535434
0
LINE
8
BLACK
6
CONTINUOUS
10
0.5831500787401575
20
1.3053767716535434
11
0.5883529133858267
21
1.3034362598425198
0
LINE
8
BLACK
6
CONTINUOUS
10
0.5883529133858267
20
1.3034362598425198
11
0.5883528346456692
21
1.3034362598425198
0
LINE
8
BLACK
6
CONTINUOUS
10
0.5883528346456692
20
1.3034362598425198
11
0.5906528740157481
21
1.3031889763779527
0
LINE
8
BLACK
6
CONTINUOUS
10
0.5906528740157481
20
1.3031889763779527
11
0.5906529527559055
21
1.3031889763779527
0
LINE
8
BLACK
6
CONTINUOUS
10
0.5906529527559055
20
1.3031889763779527
11
0.6593466929133858
21
1.3031889763779527
0
LINE
8
BLACK
6
CONTINUOUS
10
0.6593466929133858
20
1.3031889763779527
11
0.6593475196850394
21
1.3031890551181102
0
LINE
8
BLACK
6
CONTINUOUS
10
0.6593475196850394
20
1.3031890551181102
11
0.6616467716535432
21
1.3034361811023623
0
LINE
8
BLACK
6
CONTINUOUS
10
0.6616467716535432
20
1.3034361811023623
11
0.6616470472440945
21
1.3034362598425198
0
LINE
8
BLACK
6
CONTINUOUS
10
0.6616470472440945
20
1.3034362598425198
11
0.6668498818897638
21
1.3053767716535434
0
LINE
8
BLACK
6
CONTINUOUS
10
0.6668498818897638
20
1.3053767716535434
11
0.6668499606299212
21
1.3053768110236219
0
LINE
8
BLACK
6
CONTINUOUS
10
0.6668499606299212
20
1.3053768110236219
11
0.6683261023622047
21
1.3064818503937008
0
LINE
8
BLACK
6
CONTINUOUS
10
0.6683261023622047
20
1.3064818503937008
11
0.6712953937007874
21
1.3087045669291337
0
LINE
8
BLACK
6
CONTINUOUS
10
0.6712953937007874
20
1.3087045669291337
11
0.6729592913385827
21
1.3109273228346456
0
LINE
8
BLACK
6
CONTINUOUS
10
0.6729592913385827
20
1.3109273228346456
11
0.674623188976378
21
1.3131500393700788
0
LINE
8
BLACK
6
CONTINUOUS
10
0.674623188976378
20
1.3131500393700788
11
0.6765637401574803
21
1.3183529527559055
0
LINE
8
BLACK
6
CONTINUOUS
10
0.6765637401574803
20
1.3183529527559055
11
0.6768110236220473
21
1.3206529527559054
0
LINE
8
BLACK
6
CONTINUOUS
10
0.6768110236220473
20
1.3206529527559054
11
0.6768109842519685
21
1.3893470078740158
0
LINE
8
BLACK
6
CONTINUOUS
10
0.6768109842519685
20
1.3893470078740158
11
0.6765637401574803
21
1.3916470472440945
0
LINE
8
BLACK
6
CONTINUOUS
10
0.6765637401574803
20
1.3916470472440945
11
0.674623188976378
21
1.3968499606299212
0
LINE
8
BLACK
6
CONTINUOUS
10
0.674623188976378
20
1.3968499606299212
11
0.6712953937007874
21
1.4012953937007873
0
LINE
8
BLACK
6
CONTINUOUS
10
0.6712953937007874
20
1.4012953937007873
11
0.6712953149606299
21
1.4012953937007873
0
LINE
8
BLACK
6
CONTINUOUS
10
0.6712953149606299
20
1.4012953937007873
11
0.6712953149606299
21
1.4012954724409448
0
LINE
8
BLACK
6
CONTINUOUS
10
0.6712953149606299
20
1.4012954724409448
11
0.6710985039370079
21
1.4014923228346456
0
LINE
8
BLACK
6
CONTINUOUS
10
0.6710985039370079
20
1.4014923228346456
11
0.6697588976377953
21
1.4039455511811023
0
LINE
8
BLACK
6
CONTINUOUS
10
0.6697588976377953
20
1.4039455511811023
11
0.6699583070866142
21
1.4067335433070867
0
LINE
8
BLACK
6
CONTINUOUS
10
0.6699583070866142
20
1.4067335433070867
11
0.6710985039370079
21
1.4085076771653542
0
LINE
8
BLACK
6
CONTINUOUS
10
0.6710985039370079
20
1.4085076771653542
11
0.6712953149606299
21
1.4087044881889763
0
LINE
8
BLACK
6
CONTINUOUS
10
0.6712953149606299
20
1.4087044881889763
11
0.6721177952755906
21
1.4098032283464568
0
LINE
8
BLACK
6
CONTINUOUS
10
0.6721177952755906
20
1.4098032283464568
11
0.674623188976378
21
1.4131500393700787
0
LINE
8
BLACK
6
CONTINUOUS
10
0.674623188976378
20
1.4131500393700787
11
0.6765637401574803
21
1.4183529527559056
0
LINE
8
BLACK
6
CONTINUOUS
10
0.6765637401574803
20
1.4183529527559056
11
0.6768110236220473
21
1.4206529527559055
0
LINE
8
BLACK
6
CONTINUOUS
10
0.6768110236220473
20
1.4206529527559055
11
0.6768109842519685
21
1.4893470078740156
0
LINE
8
BLACK
6
CONTINUOUS
10
0.6768109842519685
20
1.4893470078740156
11
0.6765637401574803
21
1.4916470472440944
0
LINE
8
BLACK
6
CONTINUOUS
10
0.6765637401574803
20
1.4916470472440944
11
0.674623188976378
21
1.4968499606299213
0
LINE
8
BLACK
6
CONTINUOUS
10
0.674623188976378
20
1.4968499606299213
11
0.6712953937007874
21
1.5012953937007874
0
LINE
8
BLACK
6
CONTINUOUS
10
0.6712953937007874
20
1.5012953937007874
11
0.6668499606299212
21
1.5046231889763779
0
LINE
8
BLACK
6
CONTINUOUS
10
0.6668499606299212
20
1.5046231889763779
11
0.6665552362204724
21
1.5047331102362205
0
LINE
8
BLACK
6
CONTINUOUS
10
0.6665552362204724
20
1.5047331102362205
11
0.6616470472440945
21
1.5065637401574803
0
LINE
8
BLACK
6
CONTINUOUS
10
0.6616470472440945
20
1.5065637401574803
11
0.6593470472440944
21
1.5068110236220471
0
LINE
8
BLACK
6
CONTINUOUS
10
0.6593470472440944
20
1.5068110236220471
11
0.5906529921259842
21
1.5068109842519686
0
LINE
8
BLACK
6
CONTINUOUS
10
0.5906529921259842
20
1.5068109842519686
11
0.5893134251968504
21
1.5066669685039369
0
LINE
8
BLACK
6
CONTINUOUS
10
0.5893134251968504
20
1.5066669685039369
11
0.5883531889763779
21
1.506563779527559
0
LINE
8
BLACK
6
CONTINUOUS
10
0.5883531889763779
20
1.506563779527559
11
0.5883531102362205
21
1.5065637401574803
0
LINE
8
BLACK
6
CONTINUOUS
10
0.5883531102362205
20
1.5065637401574803
11
0.5883529527559055
21
1.5065637401574803
0
LINE
8
BLACK
6
CONTINUOUS
10
0.5883529527559055
20
1.5065637401574803
11
0.5831500393700787
21
1.5046231889763779
0
LINE
8
BLACK
6
CONTINUOUS
10
0.5831500393700787
20
1.5046231889763779
11
0.5798032283464567
21
1.5021177952755904
0
LINE
8
BLACK
6
CONTINUOUS
10
0.5798032283464567
20
1.5021177952755904
11
0.5787044881889764
21
1.5012953149606298
0
LINE
8
BLACK
6
CONTINUOUS
10
0.5787044881889764
20
1.5012953149606298
11
0.5785076771653543
21
1.5010985039370079
0
LINE
8
BLACK
6
CONTINUOUS
10
0.5785076771653543
20
1.5010985039370079
11
0.5760544488188977
21
1.4997588976377954
0
LINE
8
BLACK
6
CONTINUOUS
10
0.5760544488188977
20
1.4997588976377954
11
0.5732664566929133
21
1.499958307086614
0
LINE
8
BLACK
6
CONTINUOUS
10
0.5732664566929133
20
1.499958307086614
11
0.5714923228346457
21
1.5010985039370079
0
LINE
8
BLACK
6
CONTINUOUS
10
0.5714923228346457
20
1.5010985039370079
11
0.5712954724409449
21
1.5012953149606298
0
LINE
8
BLACK
6
CONTINUOUS
10
0.5712954724409449
20
1.5012953149606298
11
0.5712953937007874
21
1.5012953149606298
0
LINE
8
BLACK
6
CONTINUOUS
10
0.5712953937007874
20
1.5012953149606298
11
0.5712953937007874
21
1.5012953937007874
0
LINE
8
BLACK
6
CONTINUOUS
10
0.5712953937007874
20
1.5012953937007874
11
0.5668499606299212
21
1.5046231889763779
0
LINE
8
BLACK
6
CONTINUOUS
10
0.5668499606299212
20
1.5046231889763779
11
0.5616470472440944
21
1.5065637401574803
0
LINE
8
BLACK
6
CONTINUOUS
10
0.5616470472440944
20
1.5065637401574803
11
0.5593470472440945
21
1.5068110236220471
0
LINE
8
BLACK
6
CONTINUOUS
10
0.5593470472440945
20
1.5068110236220471
11
0.4906529921259842
21
1.5068109842519686
0
LINE
8
BLACK
6
CONTINUOUS
10
0.4906529921259842
20
1.5068109842519686
11
0.4893134251968504
21
1.5066669685039369
0
LINE
8
BLACK
6
CONTINUOUS
10
0.4893134251968504
20
1.5066669685039369
11
0.4883531889763779
21
1.506563779527559
0
LINE
8
BLACK
6
CONTINUOUS
10
0.4883531889763779
20
1.506563779527559
11
0.4883531102362205
21
1.5065637401574803
0
LINE
8
BLACK
6
CONTINUOUS
10
0.4883531102362205
20
1.5065637401574803
11
0.4883529527559055
21
1.5065637401574803
0
LINE
8
BLACK
6
CONTINUOUS
10
0.4883529527559055
20
1.5065637401574803
11
0.4831500393700787
21
1.5046231889763779
0
LINE
8
BLACK
6
CONTINUOUS
10
0.4831500393700787
20
1.5046231889763779
11
0.4809273228346457
21
1.5029592913385827
0
LINE
8
BLACK
6
CONTINUOUS
10
0.4809273228346457
20
1.5029592913385827
11
0.4787045669291338
21
1.5012953937007874
0
LINE
8
BLACK
6
CONTINUOUS
10
0.4787045669291338
20
1.5012953937007874
11
0.4753767716535433
21
1.4968498818897638
0
LINE
8
BLACK
6
CONTINUOUS
10
0.4753767716535433
20
1.4968498818897638
11
0.4734362598425197
21
1.4916470866141731
0
LINE
8
BLACK
6
CONTINUOUS
10
0.4734362598425197
20
1.4916470866141731
11
0.4731889763779528
21
1.4893473228346457
0
LINE
8
BLACK
6
CONTINUOUS
10
0.4731889763779528
20
1.4893473228346457
11
0.4731889763779528
21
1.4206532677165353
0
CIRCLE
8
BLACK
10
0.425
20
1.355
40
0.0068897637795276
0
CIRCLE
8
BLACK
10
0.525
20
1.355
40
0.0068897637795276
0
CIRCLE
8
BLACK
10
0.625
20
1.355
40
0.0068897637795276
0
CIRCLE
8
BLACK
10
0.725
20
1.355
40
0.0068897637795276
0
CIRCLE
8
BLACK
10
0.725
20
1.4550000000000001
40
0.0068897637795276
0
CIRCLE
8
BLACK
10
0.625
20
1.4550000000000001
40
0.0068897637795276
0
CIRCLE
8
BLACK
10
0.525
20
1.4550000000000001
40
0.0068897637795276
0
CIRCLE
8
BLACK
10
0.425
20
1.4550000000000001
40
0.0068897637795276
0
CIRCLE
8
BLACK
10
0.8774999999999999
20
0.2375
40
0.0068897637795276
0
CIRCLE
8
BLACK
10
0.8774999999999999
20
0.3375
40
0.0068897637795276
0
CIRCLE
8
BLACK
10
0.6775
20
0.2375
40
0.0068897637795276
0
CIRCLE
8
BLACK
10
0.6775
20
0.3375
40
0.0068897637795276
0
CIRCLE
8
BLACK
10
0.2
20
1.3999999999999999
40
0.0068897637795276
0
CIRCLE
8
BLACK
10
0.2
20
0.2
40
0.0068897637795276
0
CIRCLE
8
BLACK
10
1.3999999999999999
20
1.3999999999999999
40
0.0068897637795276
0
CIRCLE
8
BLACK
10
0.7775
20
0.2375
40
0.0068897637795276
0
CIRCLE
8
BLACK
10
0.7775
20
0.3375
40
0.0068897637795276
0
CIRCLE
8
BLACK
10
1.3999999999999999
20
0.2
40
0.0068897637795276
0
CIRCLE
8
BLACK
10
1.3868503937007874
20
1.165
40
0.0068897637795276
0
CIRCLE
8
BLACK
10
1.1899999999999999
20
1.165
40
0.0068897637795276
0
CIRCLE
8
BLACK
10
1.3868503937007874
20
0.9675
40
0.0068897637795276
0
CIRCLE
8
BLACK
10
1.1899999999999999
20
0.9675
40
0.0068897637795276
0
CIRCLE
8
BLACK
10
0.2106496062992126
20
0.905
40
0.0068897637795276
0
CIRCLE
8
BLACK
10
0.4075
20
0.905
40
0.0068897637795276
0
CIRCLE
8
BLACK
10
0.2106496062992126
20
1.1025
40
0.0068897637795276
0
CIRCLE
8
BLACK
10
0.4075
20
1.1025
40
0.0068897637795276
0
CIRCLE
8
BLACK
10
1.175
20
1.4746850393700788
40
0.0068897637795276
0
CIRCLE
8
BLACK
10
1.075
20
1.4746850393700788
40
0.0068897637795276
0
CIRCLE
8
BLACK
10
0.975
20
1.4746850393700788
40
0.0068897637795276
0
CIRCLE
8
BLACK
10
0.875
20
1.4746850393700788
40
0.0068897637795276
0
CIRCLE
8
BLACK
10
0.875
20
1.3746850393700787
40
0.0068897637795276
0
CIRCLE
8
BLACK
10
0.975
20
1.3746850393700787
40
0.0068897637795276
0
CIRCLE
8
BLACK
10
1.075
20
1.3746850393700787
40
0.0068897637795276
0
CIRCLE
8
BLACK
10
1.175
20
1.3746850393700787
40
0.0068897637795276
0
CIRCLE
8
BLACK
10
1.28
20
0.42
40
0.0125
0
CIRCLE
8
BLACK
10
1.0029999999999999
20
0.457
40
0.0125
0
CIRCLE
8
BLACK
10
0.829
20
0.08
40
0.0125
0
CIRCLE
8
BLACK
10
0.9328087007874015
20
0.0920606692913386
40
0.0125
0
CIRCLE
8
BLACK
10
0.758
20
0.538
40
0.0125
0
CIRCLE
8
BLACK
10
0.587
20
0.08
40
0.0125
0
CIRCLE
8
BLACK
10
0.754
20
0.661
40
0.0125
0
CIRCLE
8
BLACK
10
0.8149999999999999
20
0.603
40
0.0125
0
CIRCLE
8
BLACK
10
0.44
20
0.72
40
0.0125
0
CIRCLE
8
BLACK
10
1.002
20
0.402
40
0.0125
0
CIRCLE
8
BLACK
10
0.74
20
1.1199999999999999
40
0.0125
0
CIRCLE
8
BLACK
10
0.435
20
0.321
40
0.0125
0
CIRCLE
8
BLACK
10
0.5579999999999999
20
0.318
40
0.0125
0
CIRCLE
8
BLACK
10
0.54
20
0.99
40
0.0125
0
CIRCLE
8
BLACK
10
0.37
20
0.6849999999999999
40
0.0125
0
CIRCLE
8
BLACK
10
0.8129999999999999
20
0.534
40
0.0125
0
CIRCLE
8
BLACK
10
1.1119999999999999
20
0.413
40
0.0125
0
CIRCLE
8
BLACK
10
1.0171259448818897
20
0.1544114173228346
40
0.0125
0
CIRCLE
8
BLACK
10
0.43
20
0.79
40
0.0125
0
CIRCLE
8
BLACK
10
0.5499999999999999
20
0.82
40
0.0125
0
CIRCLE
8
BLACK
10
0.62
20
0.7999999999999999
40
0.0125
0
CIRCLE
8
BLACK
10
0.948
20
0.403
40
0.0125
0
CIRCLE
8
BLACK
10
0.86
20
1.1299999999999999
40
0.0125
0
CIRCLE
8
BLACK
10
1.1039999999999999
20
0.152
40
0.0125
0
CIRCLE
8
BLACK
10
0.712
20
0.409
40
0.0125
0
CIRCLE
8
BLACK
10
0.585
20
0.182
40
0.0125
0
CIRCLE
8
BLACK
10
0.54
20
0.9199999999999999
40
0.0125
0
CIRCLE
8
BLACK
10
0.64
20
0.89
40
0.0125
0
CIRCLE
8
BLACK
10
0.439
20
0.117
40
0.0125
0
CIRCLE
8
BLACK
10
0.8149999999999999
20
0.661
40
0.0125
0
CIRCLE
8
BLACK
10
0.725
20
0.079
40
0.0125
0
CIRCLE
8
BLACK
10
0.756
20
0.601
40
0.0125
0
CIRCLE
8
BLACK
10
0.506
20
0.178
40
0.0125
0
CIRCLE
8
BLACK
10
0.65
20
0.98
40
0.0125
0
CIRCLE
8
BLACK
10
0.384
20
0.339
40
0.0125
0
CIRCLE
8
WHITE
10
1.28
20
0.42
40
0.0068897637795276
0
CIRCLE
8
WHITE
10
1.0029999999999999
20
0.457
40
0.0068897637795276
0
CIRCLE
8
WHITE
10
0.829
20
0.08
40
0.0068897637795276
0
CIRCLE
8
WHITE
10
0.9328087007874015
20
0.0920606692913386
40
0.0068897637795276
0
CIRCLE
8
WHITE
10
0.758
20
0.538
40
0.0068897637795276
0
CIRCLE
8
WHITE
10
0.587
20
0.08
40
0.0068897637795276
0
CIRCLE
8
WHITE
10
0.754
20
0.661
40
0.0068897637795276
0
CIRCLE
8
WHITE
10
0.8149999999999999
20
0.603
40
0.0068897637795276
0
CIRCLE
8
WHITE
10
0.44
20
0.72
40
0.0068897637795276
0
CIRCLE
8
WHITE
10
1.002
20
0.402
40
0.0068897637795276
0
CIRCLE
8
WHITE
10
0.74
20
1.1199999999999999
40
0.0068897637795276
0
CIRCLE
8
WHITE
10
0.435
20
0.321
40
0.0068897637795276
0
CIRCLE
8
WHITE
10
0.5579999999999999
20
0.318
40
0.0068897637795276
0
CIRCLE
8
WHITE
10
0.54
20
0.99
40
0.0068897637795276
0
CIRCLE
8
WHITE
10
0.37
20
0.6849999999999999
40
0.0068897637795276
0
CIRCLE
8
WHITE
10
0.8129999999999999
20
0.534
40
0.0068897637795276
0
CIRCLE
8
WHITE
10
1.1119999999999999
20
0.413
40
0.0068897637795276
0
CIRCLE
8
WHITE
10
1.0171259448818897
20
0.1544114173228346
40
0.0068897637795276
0
CIRCLE
8
WHITE
10
0.43
20
0.79
40
0.0068897637795276
0
CIRCLE
8
WHITE
10
0.5499999999999999
20
0.82
40
0.0068897637795276
0
CIRCLE
8
WHITE
10
0.62
20
0.7999999999999999
40
0.0068897637795276
0
CIRCLE
8
WHITE
10
0.948
20
0.403
40
0.0068897637795276
0
CIRCLE
8
WHITE
10
0.86
20
1.1299999999999999
40
0.0068897637795276
0
CIRCLE
8
WHITE
10
1.1039999999999999
20
0.152
40
0.0068897637795276
0
CIRCLE
8
WHITE
10
0.712
20
0.409
40
0.0068897637795276
0
CIRCLE
8
WHITE
10
0.585
20
0.182
40
0.0068897637795276
0
CIRCLE
8
WHITE
10
0.54
20
0.9199999999999999
40
0.0068897637795276
0
CIRCLE
8
WHITE
10
0.64
20
0.89
40
0.0068897637795276
0
CIRCLE
8
WHITE
10
0.439
20
0.117
40
0.0068897637795276
0
CIRCLE
8
WHITE
10
0.8149999999999999
20
0.661
40
0.0068897637795276
0
CIRCLE
8
WHITE
10
0.725
20
0.079
40
0.0068897637795276
0
CIRCLE
8
WHITE
10
0.756
20
0.601
40
0.0068897637795276
0
CIRCLE
8
WHITE
10
0.506
20
0.178
40
0.0068897637795276
0
CIRCLE
8
WHITE
10
0.65
20
0.98
40
0.0068897637795276
0
CIRCLE
8
WHITE
10
0.384
20
0.339
40
0.0068897637795276
0
CIRCLE
8
WHITE
10
0.425
20
1.355
40
0.0068897637795276
0
CIRCLE
8
WHITE
10
0.525
20
1.355
40
0.0068897637795276
0
CIRCLE
8
WHITE
10
0.625
20
1.355
40
0.0068897637795276
0
CIRCLE
8
WHITE
10
0.725
20
1.355
40
0.0068897637795276
0
CIRCLE
8
WHITE
10
0.725
20
1.4550000000000001
40
0.0068897637795276
0
CIRCLE
8
WHITE
10
0.625
20
1.4550000000000001
40
0.0068897637795276
0
CIRCLE
8
WHITE
10
0.525
20
1.4550000000000001
40
0.0068897637795276
0
CIRCLE
8
WHITE
10
0.425
20
1.4550000000000001
40
0.0068897637795276
0
CIRCLE
8
WHITE
10
0.8774999999999999
20
0.2375
40
0.0068897637795276
0
CIRCLE
8
WHITE
10
0.8774999999999999
20
0.3375
40
0.0068897637795276
0
CIRCLE
8
WHITE
10
0.6775
20
0.2375
40
0.0068897637795276
0
CIRCLE
8
WHITE
10
0.6775
20
0.3375
40
0.0068897637795276
0
CIRCLE
8
WHITE
10
0.2
20
1.3999999999999999
40
0.0068897637795276
0
CIRCLE
8
WHITE
10
0.2
20
0.2
40
0.0068897637795276
0
CIRCLE
8
WHITE
10
1.3999999999999999
20
1.3999999999999999
40
0.0068897637795276
0
CIRCLE
8
WHITE
10
0.7775
20
0.2375
40
0.0068897637795276
0
CIRCLE
8
WHITE
10
0.7775
20
0.3375
40
0.0068897637795276
0
CIRCLE
8
WHITE
10
1.3999999999999999
20
0.2
40
0.0068897637795276
0
CIRCLE
8
WHITE
10
1.3868503937007874
20
1.165
40
0.0068897637795276
0
CIRCLE
8
WHITE
10
1.1899999999999999
20
1.165
40
0.0068897637795276
0
CIRCLE
8
WHITE
10
1.3868503937007874
20
0.9675
40
0.0068897637795276
0
CIRCLE
8
WHITE
10
1.1899999999999999
20
0.9675
40
0.0068897637795276
0
CIRCLE
8
WHITE
10
0.2106496062992126
20
0.905
40
0.0068897637795276
0
CIRCLE
8
WHITE
10
0.4075
20
0.905
40
0.0068897637795276
0
CIRCLE
8
WHITE
10
0.2106496062992126
20
1.1025
40
0.0068897637795276
0
CIRCLE
8
WHITE
10
0.4075
20
1.1025
40
0.0068897637795276
0
CIRCLE
8
WHITE
10
1.175
20
1.4746850393700788
40
0.0068897637795276
0
CIRCLE
8
WHITE
10
1.075
20
1.4746850393700788
40
0.0068897637795276
0
CIRCLE
8
WHITE
10
0.975
20
1.4746850393700788
40
0.0068897637795276
0
CIRCLE
8
WHITE
10
0.875
20
1.4746850393700788
40
0.0068897637795276
0
CIRCLE
8
WHITE
10
0.875
20
1.3746850393700787
40
0.0068897637795276
0
CIRCLE
8
WHITE
10
0.975
20
1.3746850393700787
40
0.0068897637795276
0
CIRCLE
8
WHITE
10
1.075
20
1.3746850393700787
40
0.0068897637795276
0
CIRCLE
8
WHITE
10
1.175
20
1.3746850393700787
40
0.0068897637795276
  0
ENDSEC
  0
EOF
