  0
SECTION
  2
HEADER
  9
$ANGBASE
  50
0.0
  9
$ANGDIR
  70
1
  9
$MEASUREMENT
  70
0
  0
ENDSEC
  0
SECTION
  2
TABLES
  0
TABLE
  2
LTYPE
  70
4
  0
LTYPE
  5
40F
  2
CONTINUOUS
  70
0
  3
Solid line
  72
65
  73
0
  40
0.0
  0
LTYPE
  5
410
  2
DASHDOT
 70
0
  3
Dash Dot ____ _ ____ _
 72
65
 73
4
 40
2.0
 49
1.25
 49
-0.25
 49
0.25
 49
-0.25
  0
LTYPE
  5
411
  2
DASHED
 70
0
  3
Dashed __ __ __ __ __
 72
65
 73
2
 40
0.75
 49
0.5
 49
-0.25
  0
LTYPE
  5
43B
  2
DOTTED
 70
0
  3
Dotted .  .  .  .
 72
65
 73
2
 40
0.2
 49
0.0
 49
-0.2
  0
ENDTAB
  0
TABLE
  2
STYLE
  70
4
  0
STYLE
  2
KICAD
  70
0
  40
0
  41
1
  42
1
  50
0
  71
0
  3
isocp.shx
  0
STYLE
  2
KICADB
  70
0
  40
0
  41
1
  42
1
  50
0
  71
0
  3
isocp.shx
  0
STYLE
  2
KICADI
  70
0
  40
0
  41
1
  42
1
  50
15
  71
0
  3
isocp.shx
  0
STYLE
  2
KICADBI
  70
0
  40
0
  41
1
  42
1
  50
15
  71
0
  3
isocp.shx
  0
ENDTAB
  0
TABLE
  2
LAYER
  70
1
  0
LAYER
  2
BLACK
  70
0
  62
7
  6
CONTINUOUS
  0
ENDTAB
  0
ENDSEC
  0
SECTION
  2
ENTITIES
0
LINE
8
BLACK
6
CONTINUOUS
10
0.7025
20
0.06
11
0.6475
21
0.06
0
LINE
8
BLACK
6
CONTINUOUS
10
0.6475
20
0.06
11
0.6475
21
0.095
0
LINE
8
BLACK
6
CONTINUOUS
10
0.6475
20
0.095
11
0.7025
21
0.095
0
LINE
8
BLACK
6
CONTINUOUS
10
0.7025
20
0.095
11
0.7025
21
0.06
0
LINE
8
BLACK
6
CONTINUOUS
10
0.8025
20
0.06
11
0.7474999999999999
21
0.06
0
LINE
8
BLACK
6
CONTINUOUS
10
0.7474999999999999
20
0.06
11
0.7474999999999999
21
0.095
0
LINE
8
BLACK
6
CONTINUOUS
10
0.7474999999999999
20
0.095
11
0.8025
21
0.095
0
LINE
8
BLACK
6
CONTINUOUS
10
0.8025
20
0.095
11
0.8025
21
0.06
0
LINE
8
BLACK
6
CONTINUOUS
10
0.9075
20
0.06
11
0.8525
21
0.06
0
LINE
8
BLACK
6
CONTINUOUS
10
0.8525
20
0.06
11
0.8525
21
0.095
0
LINE
8
BLACK
6
CONTINUOUS
10
0.8525
20
0.095
11
0.9075
21
0.095
0
LINE
8
BLACK
6
CONTINUOUS
10
0.9075
20
0.095
11
0.9075
21
0.06
0
LINE
8
BLACK
6
CONTINUOUS
10
0.7025
20
0.135
11
0.6475
21
0.135
0
LINE
8
BLACK
6
CONTINUOUS
10
0.6475
20
0.135
11
0.6475
21
0.17
0
LINE
8
BLACK
6
CONTINUOUS
10
0.6475
20
0.17
11
0.7025
21
0.17
0
LINE
8
BLACK
6
CONTINUOUS
10
0.7025
20
0.17
11
0.7025
21
0.135
0
LINE
8
BLACK
6
CONTINUOUS
10
0.8025
20
0.135
11
0.7474999999999999
21
0.135
0
LINE
8
BLACK
6
CONTINUOUS
10
0.7474999999999999
20
0.135
11
0.7474999999999999
21
0.17
0
LINE
8
BLACK
6
CONTINUOUS
10
0.7474999999999999
20
0.17
11
0.8025
21
0.17
0
LINE
8
BLACK
6
CONTINUOUS
10
0.8025
20
0.17
11
0.8025
21
0.135
0
LINE
8
BLACK
6
CONTINUOUS
10
0.9075
20
0.135
11
0.8525
21
0.135
0
LINE
8
BLACK
6
CONTINUOUS
10
0.8525
20
0.135
11
0.8525
21
0.17
0
LINE
8
BLACK
6
CONTINUOUS
10
0.8525
20
0.17
11
0.9075
21
0.17
0
LINE
8
BLACK
6
CONTINUOUS
10
0.9075
20
0.17
11
0.9075
21
0.135
0
LINE
8
BLACK
6
CONTINUOUS
10
0.46
20
0.1675
11
0.405
21
0.1675
0
LINE
8
BLACK
6
CONTINUOUS
10
0.405
20
0.1675
11
0.405
21
0.2025
0
LINE
8
BLACK
6
CONTINUOUS
10
0.405
20
0.2025
11
0.46
21
0.2025
0
LINE
8
BLACK
6
CONTINUOUS
10
0.46
20
0.2025
11
0.46
21
0.1675
0
LINE
8
BLACK
6
CONTINUOUS
10
0.995
20
0.2301850393700787
11
0.96
21
0.2301850393700787
0
LINE
8
BLACK
6
CONTINUOUS
10
0.96
20
0.2301850393700787
11
0.96
21
0.2851850393700787
0
LINE
8
BLACK
6
CONTINUOUS
10
0.96
20
0.2851850393700787
11
0.995
21
0.2851850393700787
0
LINE
8
BLACK
6
CONTINUOUS
10
0.995
20
0.2851850393700787
11
0.995
21
0.2301850393700787
0
LINE
8
BLACK
6
CONTINUOUS
10
1.0700000000000001
20
0.2301850393700787
11
1.0349999999999999
21
0.2301850393700787
0
LINE
8
BLACK
6
CONTINUOUS
10
1.0349999999999999
20
0.2301850393700787
11
1.0349999999999999
21
0.2851850393700787
0
LINE
8
BLACK
6
CONTINUOUS
10
1.0349999999999999
20
0.2851850393700787
11
1.0700000000000001
21
0.2851850393700787
0
LINE
8
BLACK
6
CONTINUOUS
10
1.0700000000000001
20
0.2851850393700787
11
1.0700000000000001
21
0.2301850393700787
0
LINE
8
BLACK
6
CONTINUOUS
10
0.46
20
0.2425
11
0.405
21
0.2425
0
LINE
8
BLACK
6
CONTINUOUS
10
0.405
20
0.2425
11
0.405
21
0.2775
0
LINE
8
BLACK
6
CONTINUOUS
10
0.405
20
0.2775
11
0.46
21
0.2775
0
LINE
8
BLACK
6
CONTINUOUS
10
0.46
20
0.2775
11
0.46
21
0.2425
0
LINE
8
BLACK
6
CONTINUOUS
10
0.9893779527559055
20
0.2954094488188976
11
0.9618188976377953
21
0.2954094488188976
0
LINE
8
BLACK
6
CONTINUOUS
10
0.9618188976377953
20
0.2954094488188976
11
0.9618188976377953
21
0.3465905511811024
0
LINE
8
BLACK
6
CONTINUOUS
10
0.9618188976377953
20
0.3465905511811024
11
0.9893779527559055
21
0.3465905511811024
0
LINE
8
BLACK
6
CONTINUOUS
10
0.9893779527559055
20
0.3465905511811024
11
0.9893779527559055
21
0.2954094488188976
0
LINE
8
BLACK
6
CONTINUOUS
10
1.0641811023622048
20
0.2954094488188976
11
1.0366220472440946
21
0.2954094488188976
0
LINE
8
BLACK
6
CONTINUOUS
10
1.0366220472440946
20
0.2954094488188976
11
1.0366220472440946
21
0.3465905511811024
0
LINE
8
BLACK
6
CONTINUOUS
10
1.0366220472440946
20
0.3465905511811024
11
1.0641811023622048
21
0.3465905511811024
0
LINE
8
BLACK
6
CONTINUOUS
10
1.0641811023622048
20
0.3465905511811024
11
1.0641811023622048
21
0.2954094488188976
0
LINE
8
BLACK
6
CONTINUOUS
10
0.5275
20
0.325
11
0.4725
21
0.325
0
LINE
8
BLACK
6
CONTINUOUS
10
0.4725
20
0.325
11
0.4725
21
0.36
0
LINE
8
BLACK
6
CONTINUOUS
10
0.4725
20
0.36
11
0.5275
21
0.36
0
LINE
8
BLACK
6
CONTINUOUS
10
0.5275
20
0.36
11
0.5275
21
0.325
0
LINE
8
BLACK
6
CONTINUOUS
10
0.3404724409448819
20
0.3898425196850394
11
0.322755905511811
21
0.3898425196850394
0
LINE
8
BLACK
6
CONTINUOUS
10
0.322755905511811
20
0.3898425196850394
11
0.322755905511811
21
0.4469291338582677
0
LINE
8
BLACK
6
CONTINUOUS
10
0.322755905511811
20
0.4469291338582677
11
0.3404724409448819
21
0.4469291338582677
0
LINE
8
BLACK
6
CONTINUOUS
10
0.3404724409448819
20
0.4469291338582677
11
0.3404724409448819
21
0.3898425196850394
0
LINE
8
BLACK
6
CONTINUOUS
10
0.3660629921259843
20
0.3898425196850394
11
0.3483464566929134
21
0.3898425196850394
0
LINE
8
BLACK
6
CONTINUOUS
10
0.3483464566929134
20
0.3898425196850394
11
0.3483464566929134
21
0.4469291338582677
0
LINE
8
BLACK
6
CONTINUOUS
10
0.3483464566929134
20
0.4469291338582677
11
0.3660629921259843
21
0.4469291338582677
0
LINE
8
BLACK
6
CONTINUOUS
10
0.3660629921259843
20
0.4469291338582677
11
0.3660629921259843
21
0.3898425196850394
0
LINE
8
BLACK
6
CONTINUOUS
10
0.3916535433070866
20
0.3898425196850394
11
0.3739370078740157
21
0.3898425196850394
0
LINE
8
BLACK
6
CONTINUOUS
10
0.3739370078740157
20
0.3898425196850394
11
0.3739370078740157
21
0.4469291338582677
0
LINE
8
BLACK
6
CONTINUOUS
10
0.3739370078740157
20
0.4469291338582677
11
0.3916535433070866
21
0.4469291338582677
0
LINE
8
BLACK
6
CONTINUOUS
10
0.3916535433070866
20
0.4469291338582677
11
0.3916535433070866
21
0.3898425196850394
0
LINE
8
BLACK
6
CONTINUOUS
10
0.4172440944881889
20
0.3898425196850394
11
0.3995275590551181
21
0.3898425196850394
0
LINE
8
BLACK
6
CONTINUOUS
10
0.3995275590551181
20
0.3898425196850394
11
0.3995275590551181
21
0.4469291338582677
0
LINE
8
BLACK
6
CONTINUOUS
10
0.3995275590551181
20
0.4469291338582677
11
0.4172440944881889
21
0.4469291338582677
0
LINE
8
BLACK
6
CONTINUOUS
10
0.4172440944881889
20
0.4469291338582677
11
0.4172440944881889
21
0.3898425196850394
0
LINE
8
BLACK
6
CONTINUOUS
10
0.5275
20
0.4
11
0.4725
21
0.4
0
LINE
8
BLACK
6
CONTINUOUS
10
0.4725
20
0.4
11
0.4725
21
0.435
0
LINE
8
BLACK
6
CONTINUOUS
10
0.4725
20
0.435
11
0.5275
21
0.435
0
LINE
8
BLACK
6
CONTINUOUS
10
0.5275
20
0.435
11
0.5275
21
0.4
0
LINE
8
BLACK
6
CONTINUOUS
10
0.5992
20
0.4754
11
0.5008
21
0.4754
0
LINE
8
BLACK
6
CONTINUOUS
10
0.5008
20
0.4754
11
0.5008
21
0.5758
0
LINE
8
BLACK
6
CONTINUOUS
10
0.5008
20
0.5758
11
0.5992
21
0.5758
0
LINE
8
BLACK
6
CONTINUOUS
10
0.5992
20
0.5758
11
0.5992
21
0.4754
0
LINE
8
BLACK
6
CONTINUOUS
10
1.0822047244094488
20
0.5264173228346457
11
0.9640944881889764
21
0.5264173228346457
0
LINE
8
BLACK
6
CONTINUOUS
10
0.9640944881889764
20
0.5264173228346457
11
0.9640944881889764
21
0.7429527559055118
0
LINE
8
BLACK
6
CONTINUOUS
10
0.9640944881889764
20
0.7429527559055118
11
1.0822047244094488
21
0.7429527559055118
0
LINE
8
BLACK
6
CONTINUOUS
10
1.0822047244094488
20
0.7429527559055118
11
1.0822047244094488
21
0.5264173228346457
0
LINE
8
BLACK
6
CONTINUOUS
10
1.4759055118110236
20
0.5264173228346457
11
1.3577952755905511
21
0.5264173228346457
0
LINE
8
BLACK
6
CONTINUOUS
10
1.3577952755905511
20
0.5264173228346457
11
1.3577952755905511
21
0.7429527559055118
0
LINE
8
BLACK
6
CONTINUOUS
10
1.3577952755905511
20
0.7429527559055118
11
1.4759055118110236
21
0.7429527559055118
0
LINE
8
BLACK
6
CONTINUOUS
10
1.4759055118110236
20
0.7429527559055118
11
1.4759055118110236
21
0.5264173228346457
0
LINE
8
BLACK
6
CONTINUOUS
10
0.6985662992125984
20
0.5568973228346457
11
0.7015922047244094
21
0.5560865354330708
0
LINE
8
BLACK
6
CONTINUOUS
10
0.7015922047244094
20
0.5560865354330708
11
0.7043051181102362
21
0.5545202362204724
0
LINE
8
BLACK
6
CONTINUOUS
10
0.7043051181102362
20
0.5545202362204724
11
0.7065202362204724
21
0.5523051181102362
0
LINE
8
BLACK
6
CONTINUOUS
10
0.7065202362204724
20
0.5523051181102362
11
0.7080865354330709
21
0.5495922047244094
0
LINE
8
BLACK
6
CONTINUOUS
10
0.7080865354330709
20
0.5495922047244094
11
0.7088973228346457
21
0.5465662992125984
0
LINE
8
BLACK
6
CONTINUOUS
10
0.7088973228346457
20
0.5465662992125984
11
0.7088973228346457
21
0.5434337007874016
0
LINE
8
BLACK
6
CONTINUOUS
10
0.7088973228346457
20
0.5434337007874016
11
0.7080865354330709
21
0.5404077952755906
0
LINE
8
BLACK
6
CONTINUOUS
10
0.7080865354330709
20
0.5404077952755906
11
0.7065202362204724
21
0.5376948818897638
0
LINE
8
BLACK
6
CONTINUOUS
10
0.7065202362204724
20
0.5376948818897638
11
0.7043051181102362
21
0.5354797637795276
0
LINE
8
BLACK
6
CONTINUOUS
10
0.7043051181102362
20
0.5354797637795276
11
0.7015922047244094
21
0.5339134645669291
0
LINE
8
BLACK
6
CONTINUOUS
10
0.7015922047244094
20
0.5339134645669291
11
0.6985662992125984
21
0.5331026771653543
0
LINE
8
BLACK
6
CONTINUOUS
10
0.6985662992125984
20
0.5331026771653543
11
0.697
21
0.533
0
LINE
8
BLACK
6
CONTINUOUS
10
0.697
20
0.533
11
0.663
21
0.533
0
LINE
8
BLACK
6
CONTINUOUS
10
0.663
20
0.533
11
0.6614337007874016
21
0.5331026771653543
0
LINE
8
BLACK
6
CONTINUOUS
10
0.6614337007874016
20
0.5331026771653543
11
0.6584077952755906
21
0.5339134645669291
0
LINE
8
BLACK
6
CONTINUOUS
10
0.6584077952755906
20
0.5339134645669291
11
0.6556948818897638
21
0.5354797637795276
0
LINE
8
BLACK
6
CONTINUOUS
10
0.6556948818897638
20
0.5354797637795276
11
0.6534797637795275
21
0.5376948818897638
0
LINE
8
BLACK
6
CONTINUOUS
10
0.6534797637795275
20
0.5376948818897638
11
0.6519134645669291
21
0.5404077952755906
0
LINE
8
BLACK
6
CONTINUOUS
10
0.6519134645669291
20
0.5404077952755906
11
0.6511026771653543
21
0.5434337007874016
0
LINE
8
BLACK
6
CONTINUOUS
10
0.6511026771653543
20
0.5434337007874016
11
0.6511026771653543
21
0.5465662992125984
0
LINE
8
BLACK
6
CONTINUOUS
10
0.6511026771653543
20
0.5465662992125984
11
0.6519134645669291
21
0.5495922047244094
0
LINE
8
BLACK
6
CONTINUOUS
10
0.6519134645669291
20
0.5495922047244094
11
0.6534797637795275
21
0.5523051181102362
0
LINE
8
BLACK
6
CONTINUOUS
10
0.6534797637795275
20
0.5523051181102362
11
0.6556948818897638
21
0.5545202362204724
0
LINE
8
BLACK
6
CONTINUOUS
10
0.6556948818897638
20
0.5545202362204724
11
0.6584077952755906
21
0.5560865354330708
0
LINE
8
BLACK
6
CONTINUOUS
10
0.6584077952755906
20
0.5560865354330708
11
0.6614337007874016
21
0.5568973228346457
0
LINE
8
BLACK
6
CONTINUOUS
10
0.6614337007874016
20
0.5568973228346457
11
0.663
21
0.5569999999999999
0
LINE
8
BLACK
6
CONTINUOUS
10
0.663
20
0.5569999999999999
11
0.697
21
0.5569999999999999
0
LINE
8
BLACK
6
CONTINUOUS
10
0.697
20
0.5569999999999999
11
0.6985662992125984
21
0.5568973228346457
0
LINE
8
BLACK
6
CONTINUOUS
10
0.9185662992125984
20
0.5568973228346457
11
0.9215922047244094
21
0.5560865354330708
0
LINE
8
BLACK
6
CONTINUOUS
10
0.9215922047244094
20
0.5560865354330708
11
0.9243051181102362
21
0.5545202362204724
0
LINE
8
BLACK
6
CONTINUOUS
10
0.9243051181102362
20
0.5545202362204724
11
0.9265202362204724
21
0.5523051181102362
0
LINE
8
BLACK
6
CONTINUOUS
10
0.9265202362204724
20
0.5523051181102362
11
0.9280865354330708
21
0.5495922047244094
0
LINE
8
BLACK
6
CONTINUOUS
10
0.9280865354330708
20
0.5495922047244094
11
0.9288973228346457
21
0.5465662992125984
0
LINE
8
BLACK
6
CONTINUOUS
10
0.9288973228346457
20
0.5465662992125984
11
0.9288973228346457
21
0.5434337007874016
0
LINE
8
BLACK
6
CONTINUOUS
10
0.9288973228346457
20
0.5434337007874016
11
0.9280865354330708
21
0.5404077952755906
0
LINE
8
BLACK
6
CONTINUOUS
10
0.9280865354330708
20
0.5404077952755906
11
0.9265202362204724
21
0.5376948818897638
0
LINE
8
BLACK
6
CONTINUOUS
10
0.9265202362204724
20
0.5376948818897638
11
0.9243051181102362
21
0.5354797637795276
0
LINE
8
BLACK
6
CONTINUOUS
10
0.9243051181102362
20
0.5354797637795276
11
0.9215922047244094
21
0.5339134645669291
0
LINE
8
BLACK
6
CONTINUOUS
10
0.9215922047244094
20
0.5339134645669291
11
0.9185662992125984
21
0.5331026771653543
0
LINE
8
BLACK
6
CONTINUOUS
10
0.9185662992125984
20
0.5331026771653543
11
0.9169999999999999
21
0.533
0
LINE
8
BLACK
6
CONTINUOUS
10
0.9169999999999999
20
0.533
11
0.883
21
0.533
0
LINE
8
BLACK
6
CONTINUOUS
10
0.883
20
0.533
11
0.8814337007874016
21
0.5331026771653543
0
LINE
8
BLACK
6
CONTINUOUS
10
0.8814337007874016
20
0.5331026771653543
11
0.8784077952755905
21
0.5339134645669291
0
LINE
8
BLACK
6
CONTINUOUS
10
0.8784077952755905
20
0.5339134645669291
11
0.8756948818897637
21
0.5354797637795276
0
LINE
8
BLACK
6
CONTINUOUS
10
0.8756948818897637
20
0.5354797637795276
11
0.8734797637795275
21
0.5376948818897638
0
LINE
8
BLACK
6
CONTINUOUS
10
0.8734797637795275
20
0.5376948818897638
11
0.8719134645669291
21
0.5404077952755906
0
LINE
8
BLACK
6
CONTINUOUS
10
0.8719134645669291
20
0.5404077952755906
11
0.8711026771653543
21
0.5434337007874016
0
LINE
8
BLACK
6
CONTINUOUS
10
0.8711026771653543
20
0.5434337007874016
11
0.8711026771653543
21
0.5465662992125984
0
LINE
8
BLACK
6
CONTINUOUS
10
0.8711026771653543
20
0.5465662992125984
11
0.8719134645669291
21
0.5495922047244094
0
LINE
8
BLACK
6
CONTINUOUS
10
0.8719134645669291
20
0.5495922047244094
11
0.8734797637795275
21
0.5523051181102362
0
LINE
8
BLACK
6
CONTINUOUS
10
0.8734797637795275
20
0.5523051181102362
11
0.8756948818897637
21
0.5545202362204724
0
LINE
8
BLACK
6
CONTINUOUS
10
0.8756948818897637
20
0.5545202362204724
11
0.8784077952755905
21
0.5560865354330708
0
LINE
8
BLACK
6
CONTINUOUS
10
0.8784077952755905
20
0.5560865354330708
11
0.8814337007874016
21
0.5568973228346457
0
LINE
8
BLACK
6
CONTINUOUS
10
0.8814337007874016
20
0.5568973228346457
11
0.883
21
0.5569999999999999
0
LINE
8
BLACK
6
CONTINUOUS
10
0.883
20
0.5569999999999999
11
0.9169999999999999
21
0.5569999999999999
0
LINE
8
BLACK
6
CONTINUOUS
10
0.9169999999999999
20
0.5569999999999999
11
0.9185662992125984
21
0.5568973228346457
0
LINE
8
BLACK
6
CONTINUOUS
10
0.3404724409448819
20
0.5630708661417323
11
0.322755905511811
21
0.5630708661417323
0
LINE
8
BLACK
6
CONTINUOUS
10
0.322755905511811
20
0.5630708661417323
11
0.322755905511811
21
0.6201574803149607
0
LINE
8
BLACK
6
CONTINUOUS
10
0.322755905511811
20
0.6201574803149607
11
0.3404724409448819
21
0.6201574803149607
0
LINE
8
BLACK
6
CONTINUOUS
10
0.3404724409448819
20
0.6201574803149607
11
0.3404724409448819
21
0.5630708661417323
0
LINE
8
BLACK
6
CONTINUOUS
10
0.3660629921259843
20
0.5630708661417323
11
0.3483464566929134
21
0.5630708661417323
0
LINE
8
BLACK
6
CONTINUOUS
10
0.3483464566929134
20
0.5630708661417323
11
0.3483464566929134
21
0.6201574803149607
0
LINE
8
BLACK
6
CONTINUOUS
10
0.3483464566929134
20
0.6201574803149607
11
0.3660629921259843
21
0.6201574803149607
0
LINE
8
BLACK
6
CONTINUOUS
10
0.3660629921259843
20
0.6201574803149607
11
0.3660629921259843
21
0.5630708661417323
0
LINE
8
BLACK
6
CONTINUOUS
10
0.3916535433070866
20
0.5630708661417323
11
0.3739370078740157
21
0.5630708661417323
0
LINE
8
BLACK
6
CONTINUOUS
10
0.3739370078740157
20
0.5630708661417323
11
0.3739370078740157
21
0.6201574803149607
0
LINE
8
BLACK
6
CONTINUOUS
10
0.3739370078740157
20
0.6201574803149607
11
0.3916535433070866
21
0.6201574803149607
0
LINE
8
BLACK
6
CONTINUOUS
10
0.3916535433070866
20
0.6201574803149607
11
0.3916535433070866
21
0.5630708661417323
0
LINE
8
BLACK
6
CONTINUOUS
10
0.4172440944881889
20
0.5630708661417323
11
0.3995275590551181
21
0.5630708661417323
0
LINE
8
BLACK
6
CONTINUOUS
10
0.3995275590551181
20
0.5630708661417323
11
0.3995275590551181
21
0.6201574803149607
0
LINE
8
BLACK
6
CONTINUOUS
10
0.3995275590551181
20
0.6201574803149607
11
0.4172440944881889
21
0.6201574803149607
0
LINE
8
BLACK
6
CONTINUOUS
10
0.4172440944881889
20
0.6201574803149607
11
0.4172440944881889
21
0.5630708661417323
0
LINE
8
BLACK
6
CONTINUOUS
10
0.6985662992125984
20
0.6068973228346457
11
0.7015922047244094
21
0.6060865354330709
0
LINE
8
BLACK
6
CONTINUOUS
10
0.7015922047244094
20
0.6060865354330709
11
0.7043051181102362
21
0.6045202362204725
0
LINE
8
BLACK
6
CONTINUOUS
10
0.7043051181102362
20
0.6045202362204725
11
0.7065202362204724
21
0.6023051181102362
0
LINE
8
BLACK
6
CONTINUOUS
10
0.7065202362204724
20
0.6023051181102362
11
0.7080865354330709
21
0.5995922047244094
0
LINE
8
BLACK
6
CONTINUOUS
10
0.7080865354330709
20
0.5995922047244094
11
0.7088973228346457
21
0.5965662992125984
0
LINE
8
BLACK
6
CONTINUOUS
10
0.7088973228346457
20
0.5965662992125984
11
0.7088973228346457
21
0.5934337007874015
0
LINE
8
BLACK
6
CONTINUOUS
10
0.7088973228346457
20
0.5934337007874015
11
0.7080865354330709
21
0.5904077952755905
0
LINE
8
BLACK
6
CONTINUOUS
10
0.7080865354330709
20
0.5904077952755905
11
0.7065202362204724
21
0.5876948818897638
0
LINE
8
BLACK
6
CONTINUOUS
10
0.7065202362204724
20
0.5876948818897638
11
0.7043051181102362
21
0.5854797637795276
0
LINE
8
BLACK
6
CONTINUOUS
10
0.7043051181102362
20
0.5854797637795276
11
0.7015922047244094
21
0.5839134645669292
0
LINE
8
BLACK
6
CONTINUOUS
10
0.7015922047244094
20
0.5839134645669292
11
0.6985662992125984
21
0.5831026771653544
0
LINE
8
BLACK
6
CONTINUOUS
10
0.6985662992125984
20
0.5831026771653544
11
0.697
21
0.583
0
LINE
8
BLACK
6
CONTINUOUS
10
0.697
20
0.583
11
0.663
21
0.583
0
LINE
8
BLACK
6
CONTINUOUS
10
0.663
20
0.583
11
0.6614337007874016
21
0.5831026771653544
0
LINE
8
BLACK
6
CONTINUOUS
10
0.6614337007874016
20
0.5831026771653544
11
0.6584077952755906
21
0.5839134645669292
0
LINE
8
BLACK
6
CONTINUOUS
10
0.6584077952755906
20
0.5839134645669292
11
0.6556948818897638
21
0.5854797637795276
0
LINE
8
BLACK
6
CONTINUOUS
10
0.6556948818897638
20
0.5854797637795276
11
0.6534797637795275
21
0.5876948818897638
0
LINE
8
BLACK
6
CONTINUOUS
10
0.6534797637795275
20
0.5876948818897638
11
0.6519134645669291
21
0.5904077952755905
0
LINE
8
BLACK
6
CONTINUOUS
10
0.6519134645669291
20
0.5904077952755905
11
0.6511026771653543
21
0.5934337007874015
0
LINE
8
BLACK
6
CONTINUOUS
10
0.6511026771653543
20
0.5934337007874015
11
0.6511026771653543
21
0.5965662992125984
0
LINE
8
BLACK
6
CONTINUOUS
10
0.6511026771653543
20
0.5965662992125984
11
0.6519134645669291
21
0.5995922047244094
0
LINE
8
BLACK
6
CONTINUOUS
10
0.6519134645669291
20
0.5995922047244094
11
0.6534797637795275
21
0.6023051181102362
0
LINE
8
BLACK
6
CONTINUOUS
10
0.6534797637795275
20
0.6023051181102362
11
0.6556948818897638
21
0.6045202362204725
0
LINE
8
BLACK
6
CONTINUOUS
10
0.6556948818897638
20
0.6045202362204725
11
0.6584077952755906
21
0.6060865354330709
0
LINE
8
BLACK
6
CONTINUOUS
10
0.6584077952755906
20
0.6060865354330709
11
0.6614337007874016
21
0.6068973228346457
0
LINE
8
BLACK
6
CONTINUOUS
10
0.6614337007874016
20
0.6068973228346457
11
0.663
21
0.607
0
LINE
8
BLACK
6
CONTINUOUS
10
0.663
20
0.607
11
0.697
21
0.607
0
LINE
8
BLACK
6
CONTINUOUS
10
0.697
20
0.607
11
0.6985662992125984
21
0.6068973228346457
0
LINE
8
BLACK
6
CONTINUOUS
10
0.9185662992125984
20
0.6068973228346457
11
0.9215922047244094
21
0.6060865354330709
0
LINE
8
BLACK
6
CONTINUOUS
10
0.9215922047244094
20
0.6060865354330709
11
0.9243051181102362
21
0.6045202362204725
0
LINE
8
BLACK
6
CONTINUOUS
10
0.9243051181102362
20
0.6045202362204725
11
0.9265202362204724
21
0.6023051181102362
0
LINE
8
BLACK
6
CONTINUOUS
10
0.9265202362204724
20
0.6023051181102362
11
0.9280865354330708
21
0.5995922047244094
0
LINE
8
BLACK
6
CONTINUOUS
10
0.9280865354330708
20
0.5995922047244094
11
0.9288973228346457
21
0.5965662992125984
0
LINE
8
BLACK
6
CONTINUOUS
10
0.9288973228346457
20
0.5965662992125984
11
0.9288973228346457
21
0.5934337007874015
0
LINE
8
BLACK
6
CONTINUOUS
10
0.9288973228346457
20
0.5934337007874015
11
0.9280865354330708
21
0.5904077952755905
0
LINE
8
BLACK
6
CONTINUOUS
10
0.9280865354330708
20
0.5904077952755905
11
0.9265202362204724
21
0.5876948818897638
0
LINE
8
BLACK
6
CONTINUOUS
10
0.9265202362204724
20
0.5876948818897638
11
0.9243051181102362
21
0.5854797637795276
0
LINE
8
BLACK
6
CONTINUOUS
10
0.9243051181102362
20
0.5854797637795276
11
0.9215922047244094
21
0.5839134645669292
0
LINE
8
BLACK
6
CONTINUOUS
10
0.9215922047244094
20
0.5839134645669292
11
0.9185662992125984
21
0.5831026771653544
0
LINE
8
BLACK
6
CONTINUOUS
10
0.9185662992125984
20
0.5831026771653544
11
0.9169999999999999
21
0.583
0
LINE
8
BLACK
6
CONTINUOUS
10
0.9169999999999999
20
0.583
11
0.883
21
0.583
0
LINE
8
BLACK
6
CONTINUOUS
10
0.883
20
0.583
11
0.8814337007874016
21
0.5831026771653544
0
LINE
8
BLACK
6
CONTINUOUS
10
0.8814337007874016
20
0.5831026771653544
11
0.8784077952755905
21
0.5839134645669292
0
LINE
8
BLACK
6
CONTINUOUS
10
0.8784077952755905
20
0.5839134645669292
11
0.8756948818897637
21
0.5854797637795276
0
LINE
8
BLACK
6
CONTINUOUS
10
0.8756948818897637
20
0.5854797637795276
11
0.8734797637795275
21
0.5876948818897638
0
LINE
8
BLACK
6
CONTINUOUS
10
0.8734797637795275
20
0.5876948818897638
11
0.8719134645669291
21
0.5904077952755905
0
LINE
8
BLACK
6
CONTINUOUS
10
0.8719134645669291
20
0.5904077952755905
11
0.8711026771653543
21
0.5934337007874015
0
LINE
8
BLACK
6
CONTINUOUS
10
0.8711026771653543
20
0.5934337007874015
11
0.8711026771653543
21
0.5965662992125984
0
LINE
8
BLACK
6
CONTINUOUS
10
0.8711026771653543
20
0.5965662992125984
11
0.8719134645669291
21
0.5995922047244094
0
LINE
8
BLACK
6
CONTINUOUS
10
0.8719134645669291
20
0.5995922047244094
11
0.8734797637795275
21
0.6023051181102362
0
LINE
8
BLACK
6
CONTINUOUS
10
0.8734797637795275
20
0.6023051181102362
11
0.8756948818897637
21
0.6045202362204725
0
LINE
8
BLACK
6
CONTINUOUS
10
0.8756948818897637
20
0.6045202362204725
11
0.8784077952755905
21
0.6060865354330709
0
LINE
8
BLACK
6
CONTINUOUS
10
0.8784077952755905
20
0.6060865354330709
11
0.8814337007874016
21
0.6068973228346457
0
LINE
8
BLACK
6
CONTINUOUS
10
0.8814337007874016
20
0.6068973228346457
11
0.883
21
0.607
0
LINE
8
BLACK
6
CONTINUOUS
10
0.883
20
0.607
11
0.9169999999999999
21
0.607
0
LINE
8
BLACK
6
CONTINUOUS
10
0.9169999999999999
20
0.607
11
0.9185662992125984
21
0.6068973228346457
0
LINE
8
BLACK
6
CONTINUOUS
10
0.6985662992125984
20
0.6568973228346456
11
0.7015922047244094
21
0.6560865354330708
0
LINE
8
BLACK
6
CONTINUOUS
10
0.7015922047244094
20
0.6560865354330708
11
0.7043051181102362
21
0.6545202362204724
0
LINE
8
BLACK
6
CONTINUOUS
10
0.7043051181102362
20
0.6545202362204724
11
0.7065202362204724
21
0.6523051181102362
0
LINE
8
BLACK
6
CONTINUOUS
10
0.7065202362204724
20
0.6523051181102362
11
0.7080865354330709
21
0.6495922047244095
0
LINE
8
BLACK
6
CONTINUOUS
10
0.7080865354330709
20
0.6495922047244095
11
0.7088973228346457
21
0.6465662992125984
0
LINE
8
BLACK
6
CONTINUOUS
10
0.7088973228346457
20
0.6465662992125984
11
0.7088973228346457
21
0.6434337007874016
0
LINE
8
BLACK
6
CONTINUOUS
10
0.7088973228346457
20
0.6434337007874016
11
0.7080865354330709
21
0.6404077952755906
0
LINE
8
BLACK
6
CONTINUOUS
10
0.7080865354330709
20
0.6404077952755906
11
0.7065202362204724
21
0.6376948818897638
0
LINE
8
BLACK
6
CONTINUOUS
10
0.7065202362204724
20
0.6376948818897638
11
0.7043051181102362
21
0.6354797637795275
0
LINE
8
BLACK
6
CONTINUOUS
10
0.7043051181102362
20
0.6354797637795275
11
0.7015922047244094
21
0.6339134645669291
0
LINE
8
BLACK
6
CONTINUOUS
10
0.7015922047244094
20
0.6339134645669291
11
0.6985662992125984
21
0.6331026771653543
0
LINE
8
BLACK
6
CONTINUOUS
10
0.6985662992125984
20
0.6331026771653543
11
0.697
21
0.633
0
LINE
8
BLACK
6
CONTINUOUS
10
0.697
20
0.633
11
0.663
21
0.633
0
LINE
8
BLACK
6
CONTINUOUS
10
0.663
20
0.633
11
0.6614337007874016
21
0.6331026771653543
0
LINE
8
BLACK
6
CONTINUOUS
10
0.6614337007874016
20
0.6331026771653543
11
0.6584077952755906
21
0.6339134645669291
0
LINE
8
BLACK
6
CONTINUOUS
10
0.6584077952755906
20
0.6339134645669291
11
0.6556948818897638
21
0.6354797637795275
0
LINE
8
BLACK
6
CONTINUOUS
10
0.6556948818897638
20
0.6354797637795275
11
0.6534797637795275
21
0.6376948818897638
0
LINE
8
BLACK
6
CONTINUOUS
10
0.6534797637795275
20
0.6376948818897638
11
0.6519134645669291
21
0.6404077952755906
0
LINE
8
BLACK
6
CONTINUOUS
10
0.6519134645669291
20
0.6404077952755906
11
0.6511026771653543
21
0.6434337007874016
0
LINE
8
BLACK
6
CONTINUOUS
10
0.6511026771653543
20
0.6434337007874016
11
0.6511026771653543
21
0.6465662992125984
0
LINE
8
BLACK
6
CONTINUOUS
10
0.6511026771653543
20
0.6465662992125984
11
0.6519134645669291
21
0.6495922047244095
0
LINE
8
BLACK
6
CONTINUOUS
10
0.6519134645669291
20
0.6495922047244095
11
0.6534797637795275
21
0.6523051181102362
0
LINE
8
BLACK
6
CONTINUOUS
10
0.6534797637795275
20
0.6523051181102362
11
0.6556948818897638
21
0.6545202362204724
0
LINE
8
BLACK
6
CONTINUOUS
10
0.6556948818897638
20
0.6545202362204724
11
0.6584077952755906
21
0.6560865354330708
0
LINE
8
BLACK
6
CONTINUOUS
10
0.6584077952755906
20
0.6560865354330708
11
0.6614337007874016
21
0.6568973228346456
0
LINE
8
BLACK
6
CONTINUOUS
10
0.6614337007874016
20
0.6568973228346456
11
0.663
21
0.657
0
LINE
8
BLACK
6
CONTINUOUS
10
0.663
20
0.657
11
0.697
21
0.657
0
LINE
8
BLACK
6
CONTINUOUS
10
0.697
20
0.657
11
0.6985662992125984
21
0.6568973228346456
0
LINE
8
BLACK
6
CONTINUOUS
10
0.9185662992125984
20
0.6568973228346456
11
0.9215922047244094
21
0.6560865354330708
0
LINE
8
BLACK
6
CONTINUOUS
10
0.9215922047244094
20
0.6560865354330708
11
0.9243051181102362
21
0.6545202362204724
0
LINE
8
BLACK
6
CONTINUOUS
10
0.9243051181102362
20
0.6545202362204724
11
0.9265202362204724
21
0.6523051181102362
0
LINE
8
BLACK
6
CONTINUOUS
10
0.9265202362204724
20
0.6523051181102362
11
0.9280865354330708
21
0.6495922047244095
0
LINE
8
BLACK
6
CONTINUOUS
10
0.9280865354330708
20
0.6495922047244095
11
0.9288973228346457
21
0.6465662992125984
0
LINE
8
BLACK
6
CONTINUOUS
10
0.9288973228346457
20
0.6465662992125984
11
0.9288973228346457
21
0.6434337007874016
0
LINE
8
BLACK
6
CONTINUOUS
10
0.9288973228346457
20
0.6434337007874016
11
0.9280865354330708
21
0.6404077952755906
0
LINE
8
BLACK
6
CONTINUOUS
10
0.9280865354330708
20
0.6404077952755906
11
0.9265202362204724
21
0.6376948818897638
0
LINE
8
BLACK
6
CONTINUOUS
10
0.9265202362204724
20
0.6376948818897638
11
0.9243051181102362
21
0.6354797637795275
0
LINE
8
BLACK
6
CONTINUOUS
10
0.9243051181102362
20
0.6354797637795275
11
0.9215922047244094
21
0.6339134645669291
0
LINE
8
BLACK
6
CONTINUOUS
10
0.9215922047244094
20
0.6339134645669291
11
0.9185662992125984
21
0.6331026771653543
0
LINE
8
BLACK
6
CONTINUOUS
10
0.9185662992125984
20
0.6331026771653543
11
0.9169999999999999
21
0.633
0
LINE
8
BLACK
6
CONTINUOUS
10
0.9169999999999999
20
0.633
11
0.883
21
0.633
0
LINE
8
BLACK
6
CONTINUOUS
10
0.883
20
0.633
11
0.8814337007874016
21
0.6331026771653543
0
LINE
8
BLACK
6
CONTINUOUS
10
0.8814337007874016
20
0.6331026771653543
11
0.8784077952755905
21
0.6339134645669291
0
LINE
8
BLACK
6
CONTINUOUS
10
0.8784077952755905
20
0.6339134645669291
11
0.8756948818897637
21
0.6354797637795275
0
LINE
8
BLACK
6
CONTINUOUS
10
0.8756948818897637
20
0.6354797637795275
11
0.8734797637795275
21
0.6376948818897638
0
LINE
8
BLACK
6
CONTINUOUS
10
0.8734797637795275
20
0.6376948818897638
11
0.8719134645669291
21
0.6404077952755906
0
LINE
8
BLACK
6
CONTINUOUS
10
0.8719134645669291
20
0.6404077952755906
11
0.8711026771653543
21
0.6434337007874016
0
LINE
8
BLACK
6
CONTINUOUS
10
0.8711026771653543
20
0.6434337007874016
11
0.8711026771653543
21
0.6465662992125984
0
LINE
8
BLACK
6
CONTINUOUS
10
0.8711026771653543
20
0.6465662992125984
11
0.8719134645669291
21
0.6495922047244095
0
LINE
8
BLACK
6
CONTINUOUS
10
0.8719134645669291
20
0.6495922047244095
11
0.8734797637795275
21
0.6523051181102362
0
LINE
8
BLACK
6
CONTINUOUS
10
0.8734797637795275
20
0.6523051181102362
11
0.8756948818897637
21
0.6545202362204724
0
LINE
8
BLACK
6
CONTINUOUS
10
0.8756948818897637
20
0.6545202362204724
11
0.8784077952755905
21
0.6560865354330708
0
LINE
8
BLACK
6
CONTINUOUS
10
0.8784077952755905
20
0.6560865354330708
11
0.8814337007874016
21
0.6568973228346456
0
LINE
8
BLACK
6
CONTINUOUS
10
0.8814337007874016
20
0.6568973228346456
11
0.883
21
0.657
0
LINE
8
BLACK
6
CONTINUOUS
10
0.883
20
0.657
11
0.9169999999999999
21
0.657
0
LINE
8
BLACK
6
CONTINUOUS
10
0.9169999999999999
20
0.657
11
0.9185662992125984
21
0.6568973228346456
0
LINE
8
BLACK
6
CONTINUOUS
10
0.23
20
0.6525
11
0.195
21
0.6525
0
LINE
8
BLACK
6
CONTINUOUS
10
0.195
20
0.6525
11
0.195
21
0.7075
0
LINE
8
BLACK
6
CONTINUOUS
10
0.195
20
0.7075
11
0.23
21
0.7075
0
LINE
8
BLACK
6
CONTINUOUS
10
0.23
20
0.7075
11
0.23
21
0.6525
0
LINE
8
BLACK
6
CONTINUOUS
10
0.305
20
0.6525
11
0.27
21
0.6525
0
LINE
8
BLACK
6
CONTINUOUS
10
0.27
20
0.6525
11
0.27
21
0.7075
0
LINE
8
BLACK
6
CONTINUOUS
10
0.27
20
0.7075
11
0.305
21
0.7075
0
LINE
8
BLACK
6
CONTINUOUS
10
0.305
20
0.7075
11
0.305
21
0.6525
0
LINE
8
BLACK
6
CONTINUOUS
10
0.5992
20
0.6742
11
0.5008
21
0.6742
0
LINE
8
BLACK
6
CONTINUOUS
10
0.5008
20
0.6742
11
0.5008
21
0.7746
0
LINE
8
BLACK
6
CONTINUOUS
10
0.5008
20
0.7746
11
0.5992
21
0.7746
0
LINE
8
BLACK
6
CONTINUOUS
10
0.5992
20
0.7746
11
0.5992
21
0.6742
0
LINE
8
BLACK
6
CONTINUOUS
10
0.6985662992125984
20
0.7068973228346457
11
0.7015922047244094
21
0.7060865354330709
0
LINE
8
BLACK
6
CONTINUOUS
10
0.7015922047244094
20
0.7060865354330709
11
0.7043051181102362
21
0.7045202362204724
0
LINE
8
BLACK
6
CONTINUOUS
10
0.7043051181102362
20
0.7045202362204724
11
0.7065202362204724
21
0.7023051181102362
0
LINE
8
BLACK
6
CONTINUOUS
10
0.7065202362204724
20
0.7023051181102362
11
0.7080865354330709
21
0.6995922047244094
0
LINE
8
BLACK
6
CONTINUOUS
10
0.7080865354330709
20
0.6995922047244094
11
0.7088973228346457
21
0.6965662992125984
0
LINE
8
BLACK
6
CONTINUOUS
10
0.7088973228346457
20
0.6965662992125984
11
0.7088973228346457
21
0.6934337007874015
0
LINE
8
BLACK
6
CONTINUOUS
10
0.7088973228346457
20
0.6934337007874015
11
0.7080865354330709
21
0.6904077952755905
0
LINE
8
BLACK
6
CONTINUOUS
10
0.7080865354330709
20
0.6904077952755905
11
0.7065202362204724
21
0.6876948818897638
0
LINE
8
BLACK
6
CONTINUOUS
10
0.7065202362204724
20
0.6876948818897638
11
0.7043051181102362
21
0.6854797637795276
0
LINE
8
BLACK
6
CONTINUOUS
10
0.7043051181102362
20
0.6854797637795276
11
0.7015922047244094
21
0.6839134645669291
0
LINE
8
BLACK
6
CONTINUOUS
10
0.7015922047244094
20
0.6839134645669291
11
0.6985662992125984
21
0.6831026771653543
0
LINE
8
BLACK
6
CONTINUOUS
10
0.6985662992125984
20
0.6831026771653543
11
0.697
21
0.6829999999999999
0
LINE
8
BLACK
6
CONTINUOUS
10
0.697
20
0.6829999999999999
11
0.663
21
0.6829999999999999
0
LINE
8
BLACK
6
CONTINUOUS
10
0.663
20
0.6829999999999999
11
0.6614337007874016
21
0.6831026771653543
0
LINE
8
BLACK
6
CONTINUOUS
10
0.6614337007874016
20
0.6831026771653543
11
0.6584077952755906
21
0.6839134645669291
0
LINE
8
BLACK
6
CONTINUOUS
10
0.6584077952755906
20
0.6839134645669291
11
0.6556948818897638
21
0.6854797637795276
0
LINE
8
BLACK
6
CONTINUOUS
10
0.6556948818897638
20
0.6854797637795276
11
0.6534797637795275
21
0.6876948818897638
0
LINE
8
BLACK
6
CONTINUOUS
10
0.6534797637795275
20
0.6876948818897638
11
0.6519134645669291
21
0.6904077952755905
0
LINE
8
BLACK
6
CONTINUOUS
10
0.6519134645669291
20
0.6904077952755905
11
0.6511026771653543
21
0.6934337007874015
0
LINE
8
BLACK
6
CONTINUOUS
10
0.6511026771653543
20
0.6934337007874015
11
0.6511026771653543
21
0.6965662992125984
0
LINE
8
BLACK
6
CONTINUOUS
10
0.6511026771653543
20
0.6965662992125984
11
0.6519134645669291
21
0.6995922047244094
0
LINE
8
BLACK
6
CONTINUOUS
10
0.6519134645669291
20
0.6995922047244094
11
0.6534797637795275
21
0.7023051181102362
0
LINE
8
BLACK
6
CONTINUOUS
10
0.6534797637795275
20
0.7023051181102362
11
0.6556948818897638
21
0.7045202362204724
0
LINE
8
BLACK
6
CONTINUOUS
10
0.6556948818897638
20
0.7045202362204724
11
0.6584077952755906
21
0.7060865354330709
0
LINE
8
BLACK
6
CONTINUOUS
10
0.6584077952755906
20
0.7060865354330709
11
0.6614337007874016
21
0.7068973228346457
0
LINE
8
BLACK
6
CONTINUOUS
10
0.6614337007874016
20
0.7068973228346457
11
0.663
21
0.707
0
LINE
8
BLACK
6
CONTINUOUS
10
0.663
20
0.707
11
0.697
21
0.707
0
LINE
8
BLACK
6
CONTINUOUS
10
0.697
20
0.707
11
0.6985662992125984
21
0.7068973228346457
0
LINE
8
BLACK
6
CONTINUOUS
10
0.9185662992125984
20
0.7068973228346457
11
0.9215922047244094
21
0.7060865354330709
0
LINE
8
BLACK
6
CONTINUOUS
10
0.9215922047244094
20
0.7060865354330709
11
0.9243051181102362
21
0.7045202362204724
0
LINE
8
BLACK
6
CONTINUOUS
10
0.9243051181102362
20
0.7045202362204724
11
0.9265202362204724
21
0.7023051181102362
0
LINE
8
BLACK
6
CONTINUOUS
10
0.9265202362204724
20
0.7023051181102362
11
0.9280865354330708
21
0.6995922047244094
0
LINE
8
BLACK
6
CONTINUOUS
10
0.9280865354330708
20
0.6995922047244094
11
0.9288973228346457
21
0.6965662992125984
0
LINE
8
BLACK
6
CONTINUOUS
10
0.9288973228346457
20
0.6965662992125984
11
0.9288973228346457
21
0.6934337007874015
0
LINE
8
BLACK
6
CONTINUOUS
10
0.9288973228346457
20
0.6934337007874015
11
0.9280865354330708
21
0.6904077952755905
0
LINE
8
BLACK
6
CONTINUOUS
10
0.9280865354330708
20
0.6904077952755905
11
0.9265202362204724
21
0.6876948818897638
0
LINE
8
BLACK
6
CONTINUOUS
10
0.9265202362204724
20
0.6876948818897638
11
0.9243051181102362
21
0.6854797637795276
0
LINE
8
BLACK
6
CONTINUOUS
10
0.9243051181102362
20
0.6854797637795276
11
0.9215922047244094
21
0.6839134645669291
0
LINE
8
BLACK
6
CONTINUOUS
10
0.9215922047244094
20
0.6839134645669291
11
0.9185662992125984
21
0.6831026771653543
0
LINE
8
BLACK
6
CONTINUOUS
10
0.9185662992125984
20
0.6831026771653543
11
0.9169999999999999
21
0.6829999999999999
0
LINE
8
BLACK
6
CONTINUOUS
10
0.9169999999999999
20
0.6829999999999999
11
0.883
21
0.6829999999999999
0
LINE
8
BLACK
6
CONTINUOUS
10
0.883
20
0.6829999999999999
11
0.8814337007874016
21
0.6831026771653543
0
LINE
8
BLACK
6
CONTINUOUS
10
0.8814337007874016
20
0.6831026771653543
11
0.8784077952755905
21
0.6839134645669291
0
LINE
8
BLACK
6
CONTINUOUS
10
0.8784077952755905
20
0.6839134645669291
11
0.8756948818897637
21
0.6854797637795276
0
LINE
8
BLACK
6
CONTINUOUS
10
0.8756948818897637
20
0.6854797637795276
11
0.8734797637795275
21
0.6876948818897638
0
LINE
8
BLACK
6
CONTINUOUS
10
0.8734797637795275
20
0.6876948818897638
11
0.8719134645669291
21
0.6904077952755905
0
LINE
8
BLACK
6
CONTINUOUS
10
0.8719134645669291
20
0.6904077952755905
11
0.8711026771653543
21
0.6934337007874015
0
LINE
8
BLACK
6
CONTINUOUS
10
0.8711026771653543
20
0.6934337007874015
11
0.8711026771653543
21
0.6965662992125984
0
LINE
8
BLACK
6
CONTINUOUS
10
0.8711026771653543
20
0.6965662992125984
11
0.8719134645669291
21
0.6995922047244094
0
LINE
8
BLACK
6
CONTINUOUS
10
0.8719134645669291
20
0.6995922047244094
11
0.8734797637795275
21
0.7023051181102362
0
LINE
8
BLACK
6
CONTINUOUS
10
0.8734797637795275
20
0.7023051181102362
11
0.8756948818897637
21
0.7045202362204724
0
LINE
8
BLACK
6
CONTINUOUS
10
0.8756948818897637
20
0.7045202362204724
11
0.8784077952755905
21
0.7060865354330709
0
LINE
8
BLACK
6
CONTINUOUS
10
0.8784077952755905
20
0.7060865354330709
11
0.8814337007874016
21
0.7068973228346457
0
LINE
8
BLACK
6
CONTINUOUS
10
0.8814337007874016
20
0.7068973228346457
11
0.883
21
0.707
0
LINE
8
BLACK
6
CONTINUOUS
10
0.883
20
0.707
11
0.9169999999999999
21
0.707
0
LINE
8
BLACK
6
CONTINUOUS
10
0.9169999999999999
20
0.707
11
0.9185662992125984
21
0.7068973228346457
0
LINE
8
BLACK
6
CONTINUOUS
10
0.23
20
0.7374999999999999
11
0.195
21
0.7374999999999999
0
LINE
8
BLACK
6
CONTINUOUS
10
0.195
20
0.7374999999999999
11
0.195
21
0.7925
0
LINE
8
BLACK
6
CONTINUOUS
10
0.195
20
0.7925
11
0.23
21
0.7925
0
LINE
8
BLACK
6
CONTINUOUS
10
0.23
20
0.7925
11
0.23
21
0.7374999999999999
0
LINE
8
BLACK
6
CONTINUOUS
10
0.305
20
0.7374999999999999
11
0.27
21
0.7374999999999999
0
LINE
8
BLACK
6
CONTINUOUS
10
0.27
20
0.7374999999999999
11
0.27
21
0.7925
0
LINE
8
BLACK
6
CONTINUOUS
10
0.27
20
0.7925
11
0.305
21
0.7925
0
LINE
8
BLACK
6
CONTINUOUS
10
0.305
20
0.7925
11
0.305
21
0.7374999999999999
0
LINE
8
BLACK
6
CONTINUOUS
10
0.7504999999999999
20
0.77955
11
0.6521
21
0.77955
0
LINE
8
BLACK
6
CONTINUOUS
10
0.6521
20
0.77955
11
0.6521
21
0.8504499999999999
0
LINE
8
BLACK
6
CONTINUOUS
10
0.6521
20
0.8504499999999999
11
0.7504999999999999
21
0.8504499999999999
0
LINE
8
BLACK
6
CONTINUOUS
10
0.7504999999999999
20
0.8504499999999999
11
0.7504999999999999
21
0.77955
0
LINE
8
BLACK
6
CONTINUOUS
10
0.9078999999999999
20
0.77955
11
0.8095
21
0.77955
0
LINE
8
BLACK
6
CONTINUOUS
10
0.8095
20
0.77955
11
0.8095
21
0.8504499999999999
0
LINE
8
BLACK
6
CONTINUOUS
10
0.8095
20
0.8504499999999999
11
0.9078999999999999
21
0.8504499999999999
0
LINE
8
BLACK
6
CONTINUOUS
10
0.9078999999999999
20
0.8504499999999999
11
0.9078999999999999
21
0.77955
0
LINE
8
BLACK
6
CONTINUOUS
10
1.06315
20
0.9198
11
0.95685
21
0.9198
0
LINE
8
BLACK
6
CONTINUOUS
10
0.95685
20
0.9198
11
0.95685
21
1.0202
0
LINE
8
BLACK
6
CONTINUOUS
10
0.95685
20
1.0202
11
1.06315
21
1.0202
0
LINE
8
BLACK
6
CONTINUOUS
10
1.06315
20
1.0202
11
1.06315
21
0.9198
0
LINE
8
BLACK
6
CONTINUOUS
10
0.86815
20
0.9248
11
0.76185
21
0.9248
0
LINE
8
BLACK
6
CONTINUOUS
10
0.76185
20
0.9248
11
0.76185
21
1.0251999999999999
0
LINE
8
BLACK
6
CONTINUOUS
10
0.76185
20
1.0251999999999999
11
0.86815
21
1.0251999999999999
0
LINE
8
BLACK
6
CONTINUOUS
10
0.86815
20
1.0251999999999999
11
0.86815
21
0.9248
0
LINE
8
BLACK
6
CONTINUOUS
10
0.65045
20
1.0121
11
0.57955
21
1.0121
0
LINE
8
BLACK
6
CONTINUOUS
10
0.57955
20
1.0121
11
0.57955
21
1.1105
0
LINE
8
BLACK
6
CONTINUOUS
10
0.57955
20
1.1105
11
0.65045
21
1.1105
0
LINE
8
BLACK
6
CONTINUOUS
10
0.65045
20
1.1105
11
0.65045
21
1.0121
0
LINE
8
BLACK
6
CONTINUOUS
10
0.65045
20
1.1695
11
0.57955
21
1.1695
0
LINE
8
BLACK
6
CONTINUOUS
10
0.57955
20
1.1695
11
0.57955
21
1.2679
0
LINE
8
BLACK
6
CONTINUOUS
10
0.57955
20
1.2679
11
0.65045
21
1.2679
0
LINE
8
BLACK
6
CONTINUOUS
10
0.65045
20
1.2679
11
0.65045
21
1.1695
0
LINE
8
BLACK
6
CONTINUOUS
10
1.06315
20
1.1698
11
0.95685
21
1.1698
0
LINE
8
BLACK
6
CONTINUOUS
10
0.95685
20
1.1698
11
0.95685
21
1.2702
0
LINE
8
BLACK
6
CONTINUOUS
10
0.95685
20
1.2702
11
1.06315
21
1.2702
0
LINE
8
BLACK
6
CONTINUOUS
10
1.06315
20
1.2702
11
1.06315
21
1.1698
0
LINE
8
BLACK
6
CONTINUOUS
10
0.86815
20
1.1748000000000001
11
0.76185
21
1.1748000000000001
0
LINE
8
BLACK
6
CONTINUOUS
10
0.76185
20
1.1748000000000001
11
0.76185
21
1.2751999999999999
0
LINE
8
BLACK
6
CONTINUOUS
10
0.76185
20
1.2751999999999999
11
0.86815
21
1.2751999999999999
0
LINE
8
BLACK
6
CONTINUOUS
10
0.86815
20
1.2751999999999999
11
0.86815
21
1.1748000000000001
0
CIRCLE
8
BLACK
10
0.425
20
1.355
40
0.0068897637795276
0
CIRCLE
8
BLACK
10
0.525
20
1.355
40
0.0068897637795276
0
CIRCLE
8
BLACK
10
0.625
20
1.355
40
0.0068897637795276
0
CIRCLE
8
BLACK
10
0.725
20
1.355
40
0.0068897637795276
0
CIRCLE
8
BLACK
10
0.725
20
1.4550000000000001
40
0.0068897637795276
0
CIRCLE
8
BLACK
10
0.625
20
1.4550000000000001
40
0.0068897637795276
0
CIRCLE
8
BLACK
10
0.525
20
1.4550000000000001
40
0.0068897637795276
0
CIRCLE
8
BLACK
10
0.425
20
1.4550000000000001
40
0.0068897637795276
0
CIRCLE
8
BLACK
10
0.8774999999999999
20
0.2375
40
0.0068897637795276
0
CIRCLE
8
BLACK
10
0.8774999999999999
20
0.3375
40
0.0068897637795276
0
CIRCLE
8
BLACK
10
0.6775
20
0.2375
40
0.0068897637795276
0
CIRCLE
8
BLACK
10
0.6775
20
0.3375
40
0.0068897637795276
0
CIRCLE
8
BLACK
10
0.2
20
1.3999999999999999
40
0.0068897637795276
0
CIRCLE
8
BLACK
10
0.2
20
0.2
40
0.0068897637795276
0
CIRCLE
8
BLACK
10
1.3999999999999999
20
1.3999999999999999
40
0.0068897637795276
0
CIRCLE
8
BLACK
10
0.7775
20
0.2375
40
0.0068897637795276
0
CIRCLE
8
BLACK
10
0.7775
20
0.3375
40
0.0068897637795276
0
CIRCLE
8
BLACK
10
1.3999999999999999
20
0.2
40
0.0068897637795276
0
CIRCLE
8
BLACK
10
1.3868503937007874
20
1.165
40
0.0068897637795276
0
CIRCLE
8
BLACK
10
1.1899999999999999
20
1.165
40
0.0068897637795276
0
CIRCLE
8
BLACK
10
1.3868503937007874
20
0.9675
40
0.0068897637795276
0
CIRCLE
8
BLACK
10
1.1899999999999999
20
0.9675
40
0.0068897637795276
0
CIRCLE
8
BLACK
10
0.2106496062992126
20
0.905
40
0.0068897637795276
0
CIRCLE
8
BLACK
10
0.4075
20
0.905
40
0.0068897637795276
0
CIRCLE
8
BLACK
10
0.2106496062992126
20
1.1025
40
0.0068897637795276
0
CIRCLE
8
BLACK
10
0.4075
20
1.1025
40
0.0068897637795276
0
CIRCLE
8
BLACK
10
1.175
20
1.4746850393700788
40
0.0068897637795276
0
CIRCLE
8
BLACK
10
1.075
20
1.4746850393700788
40
0.0068897637795276
0
CIRCLE
8
BLACK
10
0.975
20
1.4746850393700788
40
0.0068897637795276
0
CIRCLE
8
BLACK
10
0.875
20
1.4746850393700788
40
0.0068897637795276
0
CIRCLE
8
BLACK
10
0.875
20
1.3746850393700787
40
0.0068897637795276
0
CIRCLE
8
BLACK
10
0.975
20
1.3746850393700787
40
0.0068897637795276
0
CIRCLE
8
BLACK
10
1.075
20
1.3746850393700787
40
0.0068897637795276
0
CIRCLE
8
BLACK
10
1.175
20
1.3746850393700787
40
0.0068897637795276
  0
ENDSEC
  0
EOF
