%TF.GenerationSoftware,KiCad,Pcbnew,9.0.7+1*%
%TF.CreationDate,2026-05-12T11:12:53+00:00*%
%TF.ProjectId,BATPOWER04,42415450-4f57-4455-9230-342e6b696361,C*%
%TF.SameCoordinates,Original*%
%TF.FileFunction,Paste,Bot*%
%TF.FilePolarity,Positive*%
%FSLAX46Y46*%
G04 Gerber Fmt 4.6, Leading zero omitted, Abs format (unit mm)*
G04 Created by KiCad (PCBNEW 9.0.7+1) date 2026-05-12 11:12:53*
%MOMM*%
%LPD*%
G01*
G04 APERTURE LIST*
%ADD10R,2.499360X2.550160*%
%ADD11R,0.889000X1.397000*%
%ADD12R,1.397000X0.889000*%
%ADD13R,2.700020X2.550160*%
%ADD14R,1.800860X2.499360*%
%ADD15R,2.499360X1.800860*%
%ADD16O,1.473200X0.609600*%
%ADD17R,0.450000X1.450000*%
%ADD18R,3.000000X5.500000*%
%ADD19R,0.700000X1.300000*%
G04 APERTURE END LIST*
D10*
%TO.C,C1*%
X13970000Y13350240D03*
X13970000Y18399760D03*
%TD*%
D11*
%TO.C,C3*%
X5397500Y17272000D03*
X7302500Y17272000D03*
%TD*%
D12*
%TO.C,C5*%
X10985500Y6604000D03*
X10985500Y4699000D03*
%TD*%
D13*
%TO.C,C6*%
X25654000Y24638000D03*
X25654000Y30988000D03*
%TD*%
%TO.C,C7*%
X20701000Y24765000D03*
X20701000Y31115000D03*
%TD*%
D14*
%TO.C,D1*%
X15621000Y26957020D03*
X15621000Y30954980D03*
%TD*%
D11*
%TO.C,R1*%
X5397500Y19431000D03*
X7302500Y19431000D03*
%TD*%
D12*
%TO.C,R2*%
X19685000Y3873500D03*
X19685000Y1968500D03*
%TD*%
%TO.C,R4*%
X17145000Y3873500D03*
X17145000Y1968500D03*
%TD*%
%TO.C,R5*%
X22352000Y3873500D03*
X22352000Y1968500D03*
%TD*%
%TO.C,C2*%
X12700000Y10604500D03*
X12700000Y8699500D03*
%TD*%
D15*
%TO.C,D2*%
X17813020Y20701000D03*
X21810980Y20701000D03*
%TD*%
D16*
%TO.C,Q1*%
X17272000Y13843000D03*
X17272000Y15113000D03*
X17272000Y16383000D03*
X17272000Y17653000D03*
X22860000Y17653000D03*
X22860000Y16383000D03*
X22860000Y15113000D03*
X22860000Y13843000D03*
%TD*%
D17*
%TO.C,U1*%
X10373000Y10627000D03*
X9723000Y10627000D03*
X9073000Y10627000D03*
X8423000Y10627000D03*
X8423000Y15027000D03*
X9073000Y15027000D03*
X9723000Y15027000D03*
X10373000Y15027000D03*
%TD*%
D18*
%TO.C,L1*%
X25988000Y16121000D03*
X35988000Y16121000D03*
%TD*%
D11*
%TO.C,C4*%
X26733500Y6545200D03*
X24828500Y6545200D03*
%TD*%
D19*
%TO.C,R3*%
X26680200Y8153400D03*
X24780200Y8153400D03*
%TD*%
M02*
