%TF.GenerationSoftware,KiCad,Pcbnew,9.0.7+1*%
%TF.CreationDate,2026-05-12T11:12:53+00:00*%
%TF.ProjectId,BATPOWER04,42415450-4f57-4455-9230-342e6b696361,C*%
%TF.SameCoordinates,Original*%
%TF.FileFunction,Copper,L2,Bot*%
%TF.FilePolarity,Positive*%
%FSLAX46Y46*%
G04 Gerber Fmt 4.6, Leading zero omitted, Abs format (unit mm)*
G04 Created by KiCad (PCBNEW 9.0.7+1) date 2026-05-12 11:12:53*
%MOMM*%
%LPD*%
G01*
G04 APERTURE LIST*
%ADD10C,0.100000*%
%TA.AperFunction,NonConductor*%
%ADD11C,0.100000*%
%TD*%
%ADD12C,0.200000*%
%TA.AperFunction,NonConductor*%
%ADD13C,0.200000*%
%TD*%
%TA.AperFunction,ComponentPad*%
%ADD14R,1.651000X1.651000*%
%TD*%
%TA.AperFunction,ComponentPad*%
%ADD15C,6.000000*%
%TD*%
%TA.AperFunction,ComponentPad*%
%ADD16R,3.810000X3.810000*%
%TD*%
%TA.AperFunction,SMDPad,CuDef*%
%ADD17R,2.499360X2.550160*%
%TD*%
%TA.AperFunction,SMDPad,CuDef*%
%ADD18R,0.889000X1.397000*%
%TD*%
%TA.AperFunction,SMDPad,CuDef*%
%ADD19R,1.397000X0.889000*%
%TD*%
%TA.AperFunction,SMDPad,CuDef*%
%ADD20R,2.700020X2.550160*%
%TD*%
%TA.AperFunction,SMDPad,CuDef*%
%ADD21R,1.800860X2.499360*%
%TD*%
%TA.AperFunction,SMDPad,CuDef*%
%ADD22R,2.499360X1.800860*%
%TD*%
%TA.AperFunction,SMDPad,CuDef*%
%ADD23O,1.473200X0.609600*%
%TD*%
%TA.AperFunction,SMDPad,CuDef*%
%ADD24R,0.450000X1.450000*%
%TD*%
%TA.AperFunction,SMDPad,CuDef*%
%ADD25R,3.000000X5.500000*%
%TD*%
%TA.AperFunction,SMDPad,CuDef*%
%ADD26R,0.700000X1.300000*%
%TD*%
%TA.AperFunction,ViaPad*%
%ADD27C,0.889000*%
%TD*%
%TA.AperFunction,Conductor*%
%ADD28C,0.254000*%
%TD*%
%TA.AperFunction,Conductor*%
%ADD29C,0.300000*%
%TD*%
%TA.AperFunction,Conductor*%
%ADD30C,0.400000*%
%TD*%
%TA.AperFunction,Conductor*%
%ADD31C,1.000000*%
%TD*%
G04 APERTURE END LIST*
D10*
D11*
X1651292Y10467228D02*
X1615578Y10574371D01*
X1615578Y10574371D02*
X1579864Y10610085D01*
X1579864Y10610085D02*
X1508435Y10645799D01*
X1508435Y10645799D02*
X1401292Y10645799D01*
X1401292Y10645799D02*
X1329864Y10610085D01*
X1329864Y10610085D02*
X1294150Y10574371D01*
X1294150Y10574371D02*
X1258435Y10502942D01*
X1258435Y10502942D02*
X1258435Y10217228D01*
X1258435Y10217228D02*
X2008435Y10217228D01*
X2008435Y10217228D02*
X2008435Y10467228D01*
X2008435Y10467228D02*
X1972721Y10538657D01*
X1972721Y10538657D02*
X1937007Y10574371D01*
X1937007Y10574371D02*
X1865578Y10610085D01*
X1865578Y10610085D02*
X1794150Y10610085D01*
X1794150Y10610085D02*
X1722721Y10574371D01*
X1722721Y10574371D02*
X1687007Y10538657D01*
X1687007Y10538657D02*
X1651292Y10467228D01*
X1651292Y10467228D02*
X1651292Y10217228D01*
X1472721Y10931514D02*
X1472721Y11288657D01*
X1258435Y10860085D02*
X2008435Y11110085D01*
X2008435Y11110085D02*
X1258435Y11360085D01*
X2008435Y11502942D02*
X2008435Y11931514D01*
X1258435Y11717228D02*
X2008435Y11717228D01*
X1258435Y12181514D02*
X2008435Y12181514D01*
X2008435Y12181514D02*
X2008435Y12467228D01*
X2008435Y12467228D02*
X1972721Y12538657D01*
X1972721Y12538657D02*
X1937007Y12574371D01*
X1937007Y12574371D02*
X1865578Y12610085D01*
X1865578Y12610085D02*
X1758435Y12610085D01*
X1758435Y12610085D02*
X1687007Y12574371D01*
X1687007Y12574371D02*
X1651292Y12538657D01*
X1651292Y12538657D02*
X1615578Y12467228D01*
X1615578Y12467228D02*
X1615578Y12181514D01*
X2008435Y13074371D02*
X2008435Y13217228D01*
X2008435Y13217228D02*
X1972721Y13288657D01*
X1972721Y13288657D02*
X1901292Y13360085D01*
X1901292Y13360085D02*
X1758435Y13395800D01*
X1758435Y13395800D02*
X1508435Y13395800D01*
X1508435Y13395800D02*
X1365578Y13360085D01*
X1365578Y13360085D02*
X1294150Y13288657D01*
X1294150Y13288657D02*
X1258435Y13217228D01*
X1258435Y13217228D02*
X1258435Y13074371D01*
X1258435Y13074371D02*
X1294150Y13002943D01*
X1294150Y13002943D02*
X1365578Y12931514D01*
X1365578Y12931514D02*
X1508435Y12895800D01*
X1508435Y12895800D02*
X1758435Y12895800D01*
X1758435Y12895800D02*
X1901292Y12931514D01*
X1901292Y12931514D02*
X1972721Y13002943D01*
X1972721Y13002943D02*
X2008435Y13074371D01*
X2008435Y13645799D02*
X1258435Y13824371D01*
X1258435Y13824371D02*
X1794150Y13967228D01*
X1794150Y13967228D02*
X1258435Y14110085D01*
X1258435Y14110085D02*
X2008435Y14288657D01*
X1651292Y14574371D02*
X1651292Y14824371D01*
X1258435Y14931514D02*
X1258435Y14574371D01*
X1258435Y14574371D02*
X2008435Y14574371D01*
X2008435Y14574371D02*
X2008435Y14931514D01*
X1258435Y15681513D02*
X1615578Y15431513D01*
X1258435Y15252942D02*
X2008435Y15252942D01*
X2008435Y15252942D02*
X2008435Y15538656D01*
X2008435Y15538656D02*
X1972721Y15610085D01*
X1972721Y15610085D02*
X1937007Y15645799D01*
X1937007Y15645799D02*
X1865578Y15681513D01*
X1865578Y15681513D02*
X1758435Y15681513D01*
X1758435Y15681513D02*
X1687007Y15645799D01*
X1687007Y15645799D02*
X1651292Y15610085D01*
X1651292Y15610085D02*
X1615578Y15538656D01*
X1615578Y15538656D02*
X1615578Y15252942D01*
X2008435Y16145799D02*
X2008435Y16217228D01*
X2008435Y16217228D02*
X1972721Y16288656D01*
X1972721Y16288656D02*
X1937007Y16324371D01*
X1937007Y16324371D02*
X1865578Y16360085D01*
X1865578Y16360085D02*
X1722721Y16395799D01*
X1722721Y16395799D02*
X1544150Y16395799D01*
X1544150Y16395799D02*
X1401292Y16360085D01*
X1401292Y16360085D02*
X1329864Y16324371D01*
X1329864Y16324371D02*
X1294150Y16288656D01*
X1294150Y16288656D02*
X1258435Y16217228D01*
X1258435Y16217228D02*
X1258435Y16145799D01*
X1258435Y16145799D02*
X1294150Y16074371D01*
X1294150Y16074371D02*
X1329864Y16038656D01*
X1329864Y16038656D02*
X1401292Y16002942D01*
X1401292Y16002942D02*
X1544150Y15967228D01*
X1544150Y15967228D02*
X1722721Y15967228D01*
X1722721Y15967228D02*
X1865578Y16002942D01*
X1865578Y16002942D02*
X1937007Y16038656D01*
X1937007Y16038656D02*
X1972721Y16074371D01*
X1972721Y16074371D02*
X2008435Y16145799D01*
X1758435Y17038657D02*
X1258435Y17038657D01*
X2044150Y16860085D02*
X1508435Y16681514D01*
X1508435Y16681514D02*
X1508435Y17145799D01*
X1329864Y17860085D02*
X1294150Y17824371D01*
X1294150Y17824371D02*
X1258435Y17717228D01*
X1258435Y17717228D02*
X1258435Y17645800D01*
X1258435Y17645800D02*
X1294150Y17538657D01*
X1294150Y17538657D02*
X1365578Y17467228D01*
X1365578Y17467228D02*
X1437007Y17431514D01*
X1437007Y17431514D02*
X1579864Y17395800D01*
X1579864Y17395800D02*
X1687007Y17395800D01*
X1687007Y17395800D02*
X1829864Y17431514D01*
X1829864Y17431514D02*
X1901292Y17467228D01*
X1901292Y17467228D02*
X1972721Y17538657D01*
X1972721Y17538657D02*
X2008435Y17645800D01*
X2008435Y17645800D02*
X2008435Y17717228D01*
X2008435Y17717228D02*
X1972721Y17824371D01*
X1972721Y17824371D02*
X1937007Y17860085D01*
D12*
D13*
X30741719Y8405451D02*
X29741719Y8405451D01*
X29741719Y8405451D02*
X30456004Y8072118D01*
X30456004Y8072118D02*
X29741719Y7738785D01*
X29741719Y7738785D02*
X30741719Y7738785D01*
X30741719Y6786404D02*
X30741719Y7262594D01*
X30741719Y7262594D02*
X29741719Y7262594D01*
X30456004Y6500689D02*
X30456004Y6024499D01*
X30741719Y6595927D02*
X29741719Y6262594D01*
X29741719Y6262594D02*
X30741719Y5929261D01*
X30217909Y5262594D02*
X30265528Y5119737D01*
X30265528Y5119737D02*
X30313147Y5072118D01*
X30313147Y5072118D02*
X30408385Y5024499D01*
X30408385Y5024499D02*
X30551242Y5024499D01*
X30551242Y5024499D02*
X30646480Y5072118D01*
X30646480Y5072118D02*
X30694100Y5119737D01*
X30694100Y5119737D02*
X30741719Y5214975D01*
X30741719Y5214975D02*
X30741719Y5595927D01*
X30741719Y5595927D02*
X29741719Y5595927D01*
X29741719Y5595927D02*
X29741719Y5262594D01*
X29741719Y5262594D02*
X29789338Y5167356D01*
X29789338Y5167356D02*
X29836957Y5119737D01*
X29836957Y5119737D02*
X29932195Y5072118D01*
X29932195Y5072118D02*
X30027433Y5072118D01*
X30027433Y5072118D02*
X30122671Y5119737D01*
X30122671Y5119737D02*
X30170290Y5167356D01*
X30170290Y5167356D02*
X30217909Y5262594D01*
X30217909Y5262594D02*
X30217909Y5595927D01*
X30646480Y4595927D02*
X30694100Y4548308D01*
X30694100Y4548308D02*
X30741719Y4595927D01*
X30741719Y4595927D02*
X30694100Y4643546D01*
X30694100Y4643546D02*
X30646480Y4595927D01*
X30646480Y4595927D02*
X30741719Y4595927D01*
X30646480Y3548309D02*
X30694100Y3595928D01*
X30694100Y3595928D02*
X30741719Y3738785D01*
X30741719Y3738785D02*
X30741719Y3834023D01*
X30741719Y3834023D02*
X30694100Y3976880D01*
X30694100Y3976880D02*
X30598861Y4072118D01*
X30598861Y4072118D02*
X30503623Y4119737D01*
X30503623Y4119737D02*
X30313147Y4167356D01*
X30313147Y4167356D02*
X30170290Y4167356D01*
X30170290Y4167356D02*
X29979814Y4119737D01*
X29979814Y4119737D02*
X29884576Y4072118D01*
X29884576Y4072118D02*
X29789338Y3976880D01*
X29789338Y3976880D02*
X29741719Y3834023D01*
X29741719Y3834023D02*
X29741719Y3738785D01*
X29741719Y3738785D02*
X29789338Y3595928D01*
X29789338Y3595928D02*
X29836957Y3548309D01*
X29741719Y3214975D02*
X29741719Y2548309D01*
X29741719Y2548309D02*
X30741719Y3214975D01*
X30741719Y3214975D02*
X30741719Y2548309D01*
D14*
%TO.P,J1,1*%
%TO.N,GND*%
X10795000Y34417000D03*
%TO.P,J1,2*%
%TO.N,/Vin*%
X13335000Y34417000D03*
%TO.P,J1,3*%
X15875000Y34417000D03*
%TO.P,J1,4*%
%TO.N,GND*%
X18415000Y34417000D03*
%TO.P,J1,5*%
X18415000Y36957000D03*
%TO.P,J1,6*%
%TO.N,/Vin*%
X15875000Y36957000D03*
%TO.P,J1,7*%
X13335000Y36957000D03*
%TO.P,J1,8*%
%TO.N,GND*%
X10795000Y36957000D03*
%TD*%
%TO.P,J4,1*%
%TO.N,Net-(J4-Pad1)*%
X22288500Y6032500D03*
%TO.P,J4,2*%
%TO.N,/FB*%
X22288500Y8572500D03*
%TD*%
%TO.P,J6,1*%
%TO.N,Net-(J6-Pad1)*%
X17208500Y6032500D03*
%TO.P,J6,2*%
%TO.N,/FB*%
X17208500Y8572500D03*
%TD*%
D15*
%TO.P,P2,1*%
%TO.N,unconnected-(P2-P1-Pad1)*%
X5080000Y35560000D03*
%TD*%
%TO.P,P3,1*%
%TO.N,unconnected-(P3-P1-Pad1)*%
X5080000Y5080000D03*
%TD*%
%TO.P,P4,1*%
%TO.N,unconnected-(P4-P1-Pad1)*%
X35560000Y35560000D03*
%TD*%
D14*
%TO.P,J5,1*%
%TO.N,Net-(J5-Pad1)*%
X19748500Y6032500D03*
%TO.P,J5,2*%
%TO.N,/FB*%
X19748500Y8572500D03*
%TD*%
D15*
%TO.P,P1,1*%
%TO.N,unconnected-(P1-P1-Pad1)*%
X35560000Y5080000D03*
%TD*%
D16*
%TO.P,J3,1*%
%TO.N,GND*%
X35226000Y29591000D03*
X30226000Y29591000D03*
%TD*%
%TO.P,J7,1*%
%TO.N,/Vout*%
X35226000Y24574500D03*
X30226000Y24574500D03*
%TD*%
%TO.P,J8,1*%
%TO.N,GND*%
X5350500Y22987000D03*
X10350500Y22987000D03*
%TD*%
%TO.P,J2,1*%
%TO.N,/Vin*%
X5350500Y28003500D03*
X10350500Y28003500D03*
%TD*%
D14*
%TO.P,J9,1*%
%TO.N,GND*%
X29845000Y37457000D03*
%TO.P,J9,2*%
%TO.N,/Vout*%
X27305000Y37457000D03*
%TO.P,J9,3*%
X24765000Y37457000D03*
%TO.P,J9,4*%
%TO.N,GND*%
X22225000Y37457000D03*
%TO.P,J9,5*%
X22225000Y34917000D03*
%TO.P,J9,6*%
%TO.N,/Vout*%
X24765000Y34917000D03*
%TO.P,J9,7*%
X27305000Y34917000D03*
%TO.P,J9,8*%
%TO.N,GND*%
X29845000Y34917000D03*
%TD*%
D17*
%TO.P,C1,1*%
%TO.N,/Vin*%
X13970000Y13350240D03*
%TO.P,C1,2*%
%TO.N,GND*%
X13970000Y18399760D03*
%TD*%
D18*
%TO.P,C3,1*%
%TO.N,/Vin*%
X5397500Y17272000D03*
%TO.P,C3,2*%
%TO.N,/ADJ*%
X7302500Y17272000D03*
%TD*%
D19*
%TO.P,C5,1*%
%TO.N,/FB*%
X10985500Y6604000D03*
%TO.P,C5,2*%
%TO.N,GND*%
X10985500Y4699000D03*
%TD*%
D20*
%TO.P,C6,1*%
%TO.N,/Vout*%
X25654000Y24638000D03*
%TO.P,C6,2*%
%TO.N,GND*%
X25654000Y30988000D03*
%TD*%
%TO.P,C7,1*%
%TO.N,/Vout*%
X20701000Y24765000D03*
%TO.P,C7,2*%
%TO.N,GND*%
X20701000Y31115000D03*
%TD*%
D21*
%TO.P,D1,1*%
%TO.N,GND*%
X15621000Y26957020D03*
%TO.P,D1,2*%
%TO.N,/Vin*%
X15621000Y30954980D03*
%TD*%
D18*
%TO.P,R1,1*%
%TO.N,/Vin*%
X5397500Y19431000D03*
%TO.P,R1,2*%
%TO.N,/ADJ*%
X7302500Y19431000D03*
%TD*%
D19*
%TO.P,R2,1*%
%TO.N,Net-(J5-Pad1)*%
X19685000Y3873500D03*
%TO.P,R2,2*%
%TO.N,GND*%
X19685000Y1968500D03*
%TD*%
%TO.P,R4,1*%
%TO.N,Net-(J6-Pad1)*%
X17145000Y3873500D03*
%TO.P,R4,2*%
%TO.N,GND*%
X17145000Y1968500D03*
%TD*%
%TO.P,R5,1*%
%TO.N,Net-(J4-Pad1)*%
X22352000Y3873500D03*
%TO.P,R5,2*%
%TO.N,GND*%
X22352000Y1968500D03*
%TD*%
%TO.P,C2,1*%
%TO.N,/Vin*%
X12700000Y10604500D03*
%TO.P,C2,2*%
%TO.N,GND*%
X12700000Y8699500D03*
%TD*%
D22*
%TO.P,D2,1*%
%TO.N,GND*%
X17813020Y20701000D03*
%TO.P,D2,2*%
%TO.N,Net-(D2-K)*%
X21810980Y20701000D03*
%TD*%
D23*
%TO.P,Q1,1*%
%TO.N,/Vin*%
X17272000Y13843000D03*
%TO.P,Q1,2*%
X17272000Y15113000D03*
%TO.P,Q1,3*%
X17272000Y16383000D03*
%TO.P,Q1,4*%
%TO.N,Net-(Q1-G)*%
X17272000Y17653000D03*
%TO.P,Q1,5*%
%TO.N,Net-(D2-K)*%
X22860000Y17653000D03*
%TO.P,Q1,6*%
X22860000Y16383000D03*
%TO.P,Q1,7*%
X22860000Y15113000D03*
%TO.P,Q1,8*%
X22860000Y13843000D03*
%TD*%
D24*
%TO.P,U1,1*%
%TO.N,Net-(D2-K)*%
X10373000Y10627000D03*
%TO.P,U1,2*%
%TO.N,GND*%
X9723000Y10627000D03*
%TO.P,U1,3*%
%TO.N,unconnected-(U1-NC-Pad3)*%
X9073000Y10627000D03*
%TO.P,U1,4*%
%TO.N,/FB*%
X8423000Y10627000D03*
%TO.P,U1,5*%
%TO.N,/ADJ*%
X8423000Y15027000D03*
%TO.P,U1,6*%
%TO.N,GND*%
X9073000Y15027000D03*
%TO.P,U1,7*%
%TO.N,Net-(Q1-G)*%
X9723000Y15027000D03*
%TO.P,U1,8*%
%TO.N,/Vin*%
X10373000Y15027000D03*
%TD*%
D25*
%TO.P,L1,1*%
%TO.N,Net-(D2-K)*%
X25988000Y16121000D03*
%TO.P,L1,2*%
%TO.N,/Vout*%
X35988000Y16121000D03*
%TD*%
D18*
%TO.P,C4,1*%
%TO.N,/Vout*%
X26733500Y6545200D03*
%TO.P,C4,2*%
%TO.N,/FB*%
X24828500Y6545200D03*
%TD*%
D26*
%TO.P,R3,1*%
%TO.N,/Vout*%
X26680200Y8153400D03*
%TO.P,R3,2*%
%TO.N,/FB*%
X24780200Y8153400D03*
%TD*%
D27*
%TO.N,GND*%
X32512000Y10668000D03*
X25476200Y11607800D03*
X21056600Y2032000D03*
X23693341Y2338341D03*
X19253200Y13665200D03*
X14909800Y2032000D03*
X19151600Y16789400D03*
X20701000Y15316200D03*
X11176000Y18288000D03*
X25450800Y10210800D03*
X18796000Y28448000D03*
X11049000Y8153400D03*
X14173200Y8077200D03*
X13716000Y25146000D03*
X9398000Y17399000D03*
X20650200Y13563600D03*
X28244800Y10490200D03*
X25834999Y3922050D03*
X10922000Y20066000D03*
X13970000Y20828000D03*
X15748000Y20320000D03*
X24079200Y10236200D03*
X21844000Y28702000D03*
X28041600Y3860800D03*
X18084800Y10388600D03*
X14859000Y4622800D03*
X13716000Y23368000D03*
X16256000Y22606000D03*
X11150600Y2971800D03*
X20701000Y16789400D03*
X18415000Y2006600D03*
X19202400Y15265400D03*
X12852400Y4521200D03*
X16510000Y24892000D03*
X9753600Y8610600D03*
%TD*%
D28*
%TO.N,GND*%
X19151600Y18207990D02*
X19151600Y16789400D01*
D29*
X9723000Y10627000D02*
X9723000Y8692000D01*
D30*
X25326999Y9852001D02*
X24133091Y9852001D01*
D28*
X14909800Y2032000D02*
X18389600Y2032000D01*
D29*
X9723000Y8692000D02*
X9730500Y8699500D01*
D30*
X25834999Y3051199D02*
X25834999Y3922050D01*
D28*
X25450800Y10210800D02*
X24206200Y10210800D01*
D30*
X24326800Y2971800D02*
X25755600Y2971800D01*
D28*
X24168099Y10248901D02*
X24155398Y10236200D01*
X20701000Y16789400D02*
X20701000Y16764000D01*
X16510000Y26162000D02*
X18796000Y28448000D01*
X10287000Y17399000D02*
X11176000Y18288000D01*
X12852400Y4521200D02*
X13481017Y4521200D01*
D29*
X9073000Y17074000D02*
X9398000Y17399000D01*
D28*
X13481017Y4521200D02*
X13709617Y4749800D01*
D30*
X25755600Y2971800D02*
X25834999Y3051199D01*
D28*
X24168099Y9887009D02*
X24168099Y10248901D01*
X14986000Y23368000D02*
X13716000Y23368000D01*
X14732000Y4749800D02*
X14859000Y4622800D01*
X9753600Y8610600D02*
X10591800Y8610600D01*
D30*
X25834999Y9344001D02*
X25326999Y9852001D01*
D28*
X9398000Y17399000D02*
X10287000Y17399000D01*
X17813020Y19546570D02*
X19151600Y18207990D01*
X18389600Y2032000D02*
X18415000Y2006600D01*
X14173200Y8077200D02*
X16484600Y10388600D01*
X10985500Y4699000D02*
X10985500Y3136900D01*
X24206200Y10210800D02*
X24168099Y10248901D01*
X10922000Y20066000D02*
X13208000Y20066000D01*
D29*
X9073000Y15027000D02*
X9073000Y21709500D01*
D28*
X23926800Y10388600D02*
X24079200Y10236200D01*
X16510000Y24892000D02*
X14986000Y23368000D01*
D29*
X9073000Y21709500D02*
X10350500Y22987000D01*
D28*
X20701000Y15113000D02*
X19253200Y13665200D01*
X16510000Y24892000D02*
X16510000Y26162000D01*
X13709617Y4749800D02*
X14732000Y4749800D01*
D29*
X9753600Y8661400D02*
X9753600Y8610600D01*
D30*
X22225000Y1968500D02*
X23323500Y1968500D01*
D29*
X9073000Y15027000D02*
X9073000Y17074000D01*
D28*
X20701000Y15316200D02*
X20701000Y15113000D01*
X13716000Y25146000D02*
X16256000Y25146000D01*
X24155398Y10236200D02*
X24079200Y10236200D01*
X16256000Y25146000D02*
X16510000Y24892000D01*
X28041600Y3860800D02*
X28041600Y10287000D01*
X13208000Y20066000D02*
X13970000Y20828000D01*
X10985500Y3136900D02*
X11150600Y2971800D01*
X15748000Y20320000D02*
X15748000Y22098000D01*
D29*
X9730500Y8699500D02*
X12700000Y8699500D01*
D28*
X17813020Y20701000D02*
X17813020Y19546570D01*
X21056600Y2032000D02*
X23387000Y2032000D01*
D30*
X25834999Y3922050D02*
X25834999Y9344001D01*
D28*
X20701000Y16764000D02*
X19202400Y15265400D01*
X17456183Y10388600D02*
X18084800Y10388600D01*
X16484600Y10388600D02*
X17456183Y10388600D01*
X24133091Y9852001D02*
X24168099Y9887009D01*
X18084800Y10388600D02*
X23926800Y10388600D01*
X28041600Y10287000D02*
X28244800Y10490200D01*
X10591800Y8610600D02*
X11049000Y8153400D01*
D29*
X9723000Y8692000D02*
X9753600Y8661400D01*
D28*
X15748000Y22098000D02*
X16256000Y22606000D01*
X23387000Y2032000D02*
X23693341Y2338341D01*
D30*
X23323500Y1968500D02*
X24326800Y2971800D01*
D31*
%TO.N,/Vin*%
X7946001Y30980001D02*
X5287000Y28321000D01*
X13335000Y36957000D02*
X13335000Y34417000D01*
X13970000Y13350240D02*
X13970000Y11075160D01*
X13720570Y30954980D02*
X13695549Y30980001D01*
X13970000Y11075160D02*
X13546849Y10652009D01*
X13335000Y34417000D02*
X15875000Y34417000D01*
X15875000Y31208980D02*
X15621000Y30954980D01*
X13695549Y30980001D02*
X7946001Y30980001D01*
D29*
X10373000Y15027000D02*
X12318640Y15027000D01*
D31*
X15875000Y36957000D02*
X15875000Y34417000D01*
X13546849Y10652009D02*
X12700000Y10652009D01*
X15621000Y30954980D02*
X13720570Y30954980D01*
D29*
X12318640Y15027000D02*
X13970000Y13375640D01*
X13970000Y13375640D02*
X13970000Y13350240D01*
D31*
X15875000Y36957000D02*
X15875000Y31208980D01*
D30*
%TO.N,/Vout*%
X31242000Y15621000D02*
X35988000Y15621000D01*
X26733500Y11112500D02*
X26733500Y8255000D01*
X26733500Y11112500D02*
X31242000Y15621000D01*
X26733500Y8255000D02*
X26733500Y6545200D01*
%TO.N,/FB*%
X15240000Y6604000D02*
X17208500Y8572500D01*
X22288500Y8572500D02*
X24511000Y8572500D01*
X8393999Y9538799D02*
X8393999Y10627000D01*
X24511000Y8572500D02*
X24828500Y8255000D01*
X9887000Y6604000D02*
X8393999Y8097001D01*
X17208500Y8572500D02*
X22288500Y8572500D01*
X10985500Y6604000D02*
X9887000Y6604000D01*
X10985500Y6604000D02*
X15240000Y6604000D01*
X17208500Y8572500D02*
X19748500Y8572500D01*
X24828500Y8255000D02*
X24828500Y6545200D01*
X8393999Y8097001D02*
X8393999Y9538799D01*
D28*
%TO.N,/ADJ*%
X8423000Y15027000D02*
X8423000Y16850000D01*
X8001000Y17272000D02*
X7302500Y17272000D01*
D30*
X7300000Y19431000D02*
X7300000Y17476000D01*
D28*
X8423000Y16850000D02*
X8001000Y17272000D01*
D30*
%TO.N,Net-(D2-K)*%
X11905733Y9652000D02*
X10668000Y9652000D01*
X10402001Y9917999D02*
X10402001Y10627000D01*
X10668000Y9652000D02*
X10402001Y9917999D01*
X15987187Y11547634D02*
X21504434Y11547634D01*
X21504434Y11547634D02*
X22174200Y12217400D01*
X22174200Y13055600D02*
X22777400Y13055600D01*
X22860000Y13138200D02*
X22860000Y13843000D01*
X11905733Y9652000D02*
X14091553Y9652000D01*
X22174200Y12217400D02*
X22174200Y13055600D01*
X14091553Y9652000D02*
X15987187Y11547634D01*
X22777400Y13055600D02*
X22860000Y13138200D01*
%TO.N,Net-(J4-Pad1)*%
X22352000Y5969000D02*
X22288500Y6032500D01*
X22352000Y3873500D02*
X22352000Y5969000D01*
%TO.N,Net-(J5-Pad1)*%
X19685000Y5969000D02*
X19748500Y6032500D01*
X19685000Y3873500D02*
X19685000Y5969000D01*
%TO.N,Net-(J6-Pad1)*%
X17208500Y3937000D02*
X17145000Y3873500D01*
X17208500Y6032500D02*
X17208500Y3937000D01*
D29*
%TO.N,Net-(Q1-G)*%
X16840200Y17653000D02*
X15697200Y16510000D01*
D30*
X16840200Y17653000D02*
X17272000Y17653000D01*
D29*
X9723000Y16052000D02*
X9723000Y15027000D01*
X15697200Y16510000D02*
X10178798Y16510000D01*
X9723000Y16054202D02*
X9723000Y16052000D01*
X10178798Y16510000D02*
X9723000Y16054202D01*
%TD*%
%TA.AperFunction,Conductor*%
%TO.N,Net-(D2-K)*%
G36*
X24018127Y21823998D02*
G01*
X24035027Y21810992D01*
X27078051Y19028797D01*
X27110226Y19001793D01*
X27127109Y18988801D01*
X27161396Y18964657D01*
X27161407Y18964650D01*
X27289683Y18906071D01*
X27289691Y18906067D01*
X27357809Y18886067D01*
X27395682Y18880622D01*
X27460262Y18851129D01*
X27494646Y18802927D01*
X27498452Y18793463D01*
X27502793Y18774142D01*
X27557941Y18644337D01*
X27559422Y18641890D01*
X27562397Y18634496D01*
X27563903Y18618984D01*
X27571500Y18587474D01*
X27571500Y12979204D01*
X27551498Y12911083D01*
X27534595Y12890109D01*
X27254391Y12609905D01*
X27192079Y12575879D01*
X27165296Y12573000D01*
X22097000Y12573000D01*
X22028879Y12593002D01*
X21982386Y12646658D01*
X21971000Y12699000D01*
X21971000Y18288000D01*
X20446000Y18288000D01*
X20377879Y18308002D01*
X20331386Y18361658D01*
X20320000Y18414000D01*
X20320000Y21718000D01*
X20340002Y21786121D01*
X20393658Y21832614D01*
X20446000Y21844000D01*
X23950006Y21844000D01*
X24018127Y21823998D01*
G37*
%TD.AperFunction*%
%TD*%
%TA.AperFunction,Conductor*%
%TO.N,/Vout*%
G36*
X37788121Y26649998D02*
G01*
X37834614Y26596342D01*
X37846000Y26544000D01*
X37846000Y12572000D01*
X37825998Y12503879D01*
X37772342Y12457386D01*
X37720000Y12446000D01*
X30607000Y12446000D01*
X28193000Y12446000D01*
X28124879Y12466002D01*
X28078386Y12519658D01*
X28067000Y12572000D01*
X28067000Y18795999D01*
X28067000Y18796000D01*
X28018551Y18840295D01*
X27981773Y18901022D01*
X27978294Y18919821D01*
X27972220Y18976328D01*
X27972219Y18976329D01*
X27972219Y18976335D01*
X27922929Y19108489D01*
X27838403Y19221403D01*
X27725489Y19305929D01*
X27593335Y19355219D01*
X27534915Y19361500D01*
X27497400Y19361499D01*
X27429283Y19381499D01*
X27412398Y19394492D01*
X23622000Y22860000D01*
X19176000Y22860000D01*
X19107879Y22880002D01*
X19061386Y22933658D01*
X19050000Y22986000D01*
X19050000Y26544000D01*
X19070002Y26612121D01*
X19123658Y26658614D01*
X19176000Y26670000D01*
X37720000Y26670000D01*
X37788121Y26649998D01*
G37*
%TD.AperFunction*%
%TD*%
%TA.AperFunction,Conductor*%
%TO.N,GND*%
G36*
X39842691Y39864593D02*
G01*
X39878655Y39815093D01*
X39883500Y39784500D01*
X39883500Y855500D01*
X39864593Y797309D01*
X39815093Y761345D01*
X39784500Y756500D01*
X855500Y756500D01*
X797309Y775407D01*
X761345Y824907D01*
X756500Y855500D01*
X756500Y9572728D01*
X775407Y9630919D01*
X824907Y9666883D01*
X855500Y9671728D01*
X2305396Y9671728D01*
X2363587Y9652821D01*
X2370227Y9647548D01*
X2383369Y9636160D01*
X2511660Y9577572D01*
X2579777Y9557571D01*
X2579783Y9557570D01*
X2719372Y9537500D01*
X2719377Y9537500D01*
X7577500Y9537500D01*
X7593919Y9539265D01*
X7653797Y9526685D01*
X7694845Y9481312D01*
X7703499Y9440832D01*
X7703499Y8311489D01*
X7684592Y8253298D01*
X7635092Y8217334D01*
X7573906Y8217334D01*
X7541694Y8234961D01*
X7519350Y8253298D01*
X7465969Y8297107D01*
X7139149Y8515482D01*
X7139148Y8515482D01*
X7139146Y8515484D01*
X6961884Y8610231D01*
X6792497Y8700771D01*
X6429353Y8851190D01*
X6429346Y8851191D01*
X6429344Y8851193D01*
X6239632Y8908741D01*
X6053215Y8965290D01*
X5667703Y9041973D01*
X5589468Y9049678D01*
X5276540Y9080500D01*
X5276532Y9080500D01*
X4883468Y9080500D01*
X4883460Y9080500D01*
X4598980Y9052480D01*
X4492297Y9041973D01*
X4106785Y8965290D01*
X4106782Y8965289D01*
X3730655Y8851193D01*
X3730649Y8851190D01*
X3730647Y8851190D01*
X3367503Y8700771D01*
X3367486Y8700762D01*
X3367484Y8700761D01*
X3020853Y8515484D01*
X2883972Y8424022D01*
X2694031Y8297107D01*
X2390188Y8047750D01*
X2112250Y7769812D01*
X1897760Y7508454D01*
X1862894Y7465970D01*
X1644515Y7139146D01*
X1459238Y6792515D01*
X1459225Y6792488D01*
X1308806Y6429344D01*
X1194710Y6053217D01*
X1118026Y5667699D01*
X1079500Y5276539D01*
X1079500Y4883460D01*
X1118026Y4492300D01*
X1194710Y4106782D01*
X1308806Y3730655D01*
X1459225Y3367511D01*
X1459238Y3367484D01*
X1644515Y3020853D01*
X1862894Y2694029D01*
X2112245Y2390193D01*
X2390193Y2112245D01*
X2694029Y1862894D01*
X3020853Y1644515D01*
X3367484Y1459238D01*
X3367511Y1459225D01*
X3730655Y1308806D01*
X4106782Y1194710D01*
X4492302Y1118026D01*
X4492298Y1118026D01*
X4883460Y1079500D01*
X4883468Y1079500D01*
X5276540Y1079500D01*
X5667699Y1118026D01*
X6053217Y1194710D01*
X6429344Y1308806D01*
X6792488Y1459225D01*
X6792492Y1459226D01*
X6792497Y1459229D01*
X6792503Y1459232D01*
X6792515Y1459238D01*
X7139146Y1644515D01*
X7465970Y1862894D01*
X7573261Y1950945D01*
X29144355Y1950945D01*
X29144356Y1950945D01*
X31339082Y1950945D01*
X31339083Y1950945D01*
X31339083Y5276539D01*
X31559500Y5276539D01*
X31559500Y4883460D01*
X31598026Y4492300D01*
X31674710Y4106782D01*
X31788806Y3730655D01*
X31939225Y3367511D01*
X31939238Y3367484D01*
X32124515Y3020853D01*
X32342894Y2694029D01*
X32592245Y2390193D01*
X32870193Y2112245D01*
X33174029Y1862894D01*
X33500853Y1644515D01*
X33847484Y1459238D01*
X33847511Y1459225D01*
X34210655Y1308806D01*
X34586782Y1194710D01*
X34972302Y1118026D01*
X34972298Y1118026D01*
X35363460Y1079500D01*
X35363468Y1079500D01*
X35756540Y1079500D01*
X36147699Y1118026D01*
X36533217Y1194710D01*
X36909344Y1308806D01*
X37272488Y1459225D01*
X37272492Y1459226D01*
X37272497Y1459229D01*
X37272503Y1459232D01*
X37272515Y1459238D01*
X37619146Y1644515D01*
X37945970Y1862894D01*
X38249806Y2112245D01*
X38249812Y2112250D01*
X38527750Y2390188D01*
X38777107Y2694031D01*
X38940457Y2938500D01*
X38995484Y3020853D01*
X39180761Y3367484D01*
X39180762Y3367486D01*
X39180771Y3367503D01*
X39331190Y3730647D01*
X39331190Y3730649D01*
X39331193Y3730655D01*
X39445289Y4106782D01*
X39445290Y4106785D01*
X39521973Y4492297D01*
X39539958Y4674899D01*
X39560500Y4883460D01*
X39560500Y5276539D01*
X39521973Y5667699D01*
X39521973Y5667703D01*
X39445290Y6053215D01*
X39331190Y6429353D01*
X39180771Y6792497D01*
X39089454Y6963339D01*
X38995484Y7139146D01*
X38995482Y7139149D01*
X38777107Y7465969D01*
X38527750Y7769812D01*
X38249812Y8047750D01*
X37945969Y8297107D01*
X37619149Y8515482D01*
X37619148Y8515482D01*
X37619146Y8515484D01*
X37441884Y8610231D01*
X37272497Y8700771D01*
X36909353Y8851190D01*
X36909346Y8851191D01*
X36909344Y8851193D01*
X36719632Y8908741D01*
X36533215Y8965290D01*
X36147703Y9041973D01*
X36069468Y9049678D01*
X35756540Y9080500D01*
X35756532Y9080500D01*
X35363468Y9080500D01*
X35363460Y9080500D01*
X35078980Y9052480D01*
X34972297Y9041973D01*
X34586785Y8965290D01*
X34586782Y8965289D01*
X34210655Y8851193D01*
X34210649Y8851190D01*
X34210647Y8851190D01*
X33847503Y8700771D01*
X33847486Y8700762D01*
X33847484Y8700761D01*
X33500853Y8515484D01*
X33363972Y8424022D01*
X33174031Y8297107D01*
X32870188Y8047750D01*
X32592250Y7769812D01*
X32377760Y7508454D01*
X32342894Y7465970D01*
X32124515Y7139146D01*
X31939238Y6792515D01*
X31939225Y6792488D01*
X31788806Y6429344D01*
X31674710Y6053217D01*
X31598026Y5667699D01*
X31559500Y5276539D01*
X31339083Y5276539D01*
X31339083Y9001723D01*
X29144355Y9001723D01*
X29144355Y1950945D01*
X7573261Y1950945D01*
X7769806Y2112245D01*
X7769812Y2112250D01*
X8047750Y2390188D01*
X8297107Y2694031D01*
X8460457Y2938500D01*
X8515484Y3020853D01*
X8700761Y3367484D01*
X8700762Y3367486D01*
X8700771Y3367503D01*
X8851190Y3730647D01*
X8851190Y3730649D01*
X8851193Y3730655D01*
X8965289Y4106782D01*
X8965290Y4106785D01*
X9041973Y4492297D01*
X9059958Y4674899D01*
X9080500Y4883460D01*
X9080500Y5276539D01*
X9041973Y5667699D01*
X9041973Y5667703D01*
X8965290Y6053215D01*
X8864053Y6386949D01*
X8865254Y6448120D01*
X8902183Y6496905D01*
X8960733Y6514666D01*
X9018542Y6494620D01*
X9028793Y6485689D01*
X9446831Y6067653D01*
X9488859Y6039571D01*
X9488870Y6039564D01*
X9492697Y6037008D01*
X9559926Y5992087D01*
X9626547Y5964492D01*
X9631260Y5962539D01*
X9631269Y5962535D01*
X9685584Y5940037D01*
X9685587Y5940036D01*
X9707720Y5935633D01*
X9823762Y5912551D01*
X9823502Y5911248D01*
X9874229Y5889061D01*
X9887722Y5874386D01*
X9936593Y5809101D01*
X9936599Y5809095D01*
X10049512Y5724569D01*
X10181659Y5675282D01*
X10181670Y5675280D01*
X10221545Y5670993D01*
X10240085Y5669000D01*
X10240086Y5669000D01*
X10240087Y5669000D01*
X11730908Y5669000D01*
X11730911Y5669000D01*
X11730914Y5669001D01*
X11769861Y5673187D01*
X11789336Y5675281D01*
X11789339Y5675281D01*
X11921488Y5724570D01*
X11978585Y5767312D01*
X12034403Y5809097D01*
X12082861Y5873829D01*
X12132869Y5909082D01*
X12162114Y5913500D01*
X15308010Y5913500D01*
X15396944Y5931190D01*
X15441412Y5940036D01*
X15441413Y5940036D01*
X15567069Y5992084D01*
X15567080Y5992090D01*
X15638139Y6039571D01*
X15680168Y6067654D01*
X15723496Y6110982D01*
X15778013Y6138759D01*
X15838445Y6129188D01*
X15881710Y6085923D01*
X15892500Y6040978D01*
X15892500Y5160091D01*
X15892501Y5160087D01*
X15898781Y5101663D01*
X15898781Y5101660D01*
X15948070Y4969511D01*
X16032595Y4856599D01*
X16032601Y4856593D01*
X16085075Y4817312D01*
X16120328Y4767304D01*
X16119454Y4706124D01*
X16099765Y4674503D01*
X16100341Y4674072D01*
X16011569Y4555487D01*
X15962282Y4423340D01*
X15962282Y4423339D01*
X15962281Y4423335D01*
X15956946Y4373708D01*
X15956000Y4364912D01*
X15956000Y3382091D01*
X15956001Y3382087D01*
X15962281Y3323663D01*
X15962281Y3323660D01*
X16011570Y3191511D01*
X16096095Y3078599D01*
X16096099Y3078595D01*
X16209012Y2994069D01*
X16341159Y2944782D01*
X16341170Y2944780D01*
X16381045Y2940493D01*
X16399585Y2938500D01*
X16399586Y2938500D01*
X16399587Y2938500D01*
X17890408Y2938500D01*
X17890411Y2938500D01*
X17890414Y2938501D01*
X17929361Y2942687D01*
X17948836Y2944781D01*
X17948839Y2944781D01*
X18080988Y2994070D01*
X18193900Y3078595D01*
X18193903Y3078597D01*
X18278429Y3191511D01*
X18278430Y3191512D01*
X18322241Y3308978D01*
X18360291Y3356893D01*
X18419238Y3373291D01*
X18476566Y3351910D01*
X18507757Y3308979D01*
X18551570Y3191512D01*
X18636095Y3078599D01*
X18636099Y3078595D01*
X18749012Y2994069D01*
X18881159Y2944782D01*
X18881170Y2944780D01*
X18921045Y2940493D01*
X18939585Y2938500D01*
X18939586Y2938500D01*
X18939587Y2938500D01*
X20430408Y2938500D01*
X20430411Y2938500D01*
X20430414Y2938501D01*
X20469361Y2942687D01*
X20488836Y2944781D01*
X20488839Y2944781D01*
X20620988Y2994070D01*
X20733900Y3078595D01*
X20733903Y3078597D01*
X20818429Y3191511D01*
X20818430Y3191512D01*
X20867717Y3323659D01*
X20867718Y3323663D01*
X20867719Y3323665D01*
X20874000Y3382085D01*
X20873999Y4364914D01*
X20867719Y4423335D01*
X20867717Y4423340D01*
X20839684Y4498498D01*
X20818429Y4555489D01*
X20769424Y4620951D01*
X20749688Y4678865D01*
X20767762Y4737320D01*
X20806206Y4766967D01*
X20805273Y4768676D01*
X20811485Y4772068D01*
X20826082Y4782995D01*
X20924403Y4856597D01*
X20939247Y4876426D01*
X20989255Y4911679D01*
X21050434Y4910805D01*
X21097753Y4876426D01*
X21112593Y4856601D01*
X21112599Y4856595D01*
X21225514Y4772068D01*
X21231727Y4768676D01*
X21230725Y4766841D01*
X21270842Y4734972D01*
X21287229Y4676022D01*
X21267575Y4620951D01*
X21218569Y4555487D01*
X21169282Y4423340D01*
X21169282Y4423339D01*
X21169281Y4423335D01*
X21163946Y4373708D01*
X21163000Y4364912D01*
X21163000Y3382091D01*
X21163001Y3382087D01*
X21169281Y3323663D01*
X21169281Y3323660D01*
X21218570Y3191511D01*
X21303095Y3078599D01*
X21303099Y3078595D01*
X21416012Y2994069D01*
X21548159Y2944782D01*
X21548170Y2944780D01*
X21588045Y2940493D01*
X21606585Y2938500D01*
X21606586Y2938500D01*
X21606587Y2938500D01*
X23097408Y2938500D01*
X23097411Y2938500D01*
X23097414Y2938501D01*
X23136361Y2942687D01*
X23155836Y2944781D01*
X23155839Y2944781D01*
X23287988Y2994070D01*
X23400900Y3078595D01*
X23400903Y3078597D01*
X23485429Y3191511D01*
X23485430Y3191512D01*
X23534717Y3323659D01*
X23534718Y3323663D01*
X23534719Y3323665D01*
X23541000Y3382085D01*
X23540999Y4364914D01*
X23534719Y4423335D01*
X23534717Y4423340D01*
X23506684Y4498498D01*
X23485429Y4555489D01*
X23400903Y4668403D01*
X23400902Y4668403D01*
X23396659Y4674072D01*
X23397764Y4674899D01*
X23373474Y4722561D01*
X23383039Y4782995D01*
X23411925Y4817313D01*
X23464398Y4856593D01*
X23464403Y4856597D01*
X23548929Y4969511D01*
X23548930Y4969512D01*
X23598217Y5101659D01*
X23598218Y5101663D01*
X23598219Y5101665D01*
X23604500Y5160085D01*
X23604499Y6904914D01*
X23598219Y6963335D01*
X23548929Y7095489D01*
X23464403Y7208403D01*
X23444575Y7223246D01*
X23409321Y7273254D01*
X23410193Y7334433D01*
X23444575Y7381754D01*
X23464397Y7396592D01*
X23464399Y7396594D01*
X23464403Y7396597D01*
X23548138Y7508454D01*
X23548930Y7509512D01*
X23598217Y7641659D01*
X23598217Y7641660D01*
X23598219Y7641665D01*
X23604500Y7700085D01*
X23604500Y7783000D01*
X23609345Y7797911D01*
X23609345Y7813593D01*
X23618561Y7826278D01*
X23623407Y7841191D01*
X23636092Y7850407D01*
X23645309Y7863093D01*
X23660221Y7867938D01*
X23672907Y7877155D01*
X23703500Y7882000D01*
X23840701Y7882000D01*
X23898892Y7863093D01*
X23934856Y7813593D01*
X23939701Y7783000D01*
X23939701Y7473929D01*
X23933459Y7439332D01*
X23899781Y7349037D01*
X23899781Y7349036D01*
X23899781Y7349035D01*
X23895951Y7313407D01*
X23893500Y7290612D01*
X23893500Y5799791D01*
X23893501Y5799787D01*
X23899781Y5741363D01*
X23899781Y5741360D01*
X23949070Y5609211D01*
X24033595Y5496299D01*
X24033599Y5496295D01*
X24146512Y5411769D01*
X24278659Y5362482D01*
X24278670Y5362480D01*
X24318545Y5358193D01*
X24337085Y5356200D01*
X24337086Y5356200D01*
X24337087Y5356200D01*
X25319908Y5356200D01*
X25319911Y5356200D01*
X25319914Y5356201D01*
X25358861Y5360387D01*
X25378336Y5362481D01*
X25378339Y5362481D01*
X25510488Y5411770D01*
X25623400Y5496295D01*
X25623403Y5496297D01*
X25701746Y5600952D01*
X25751755Y5636205D01*
X25812934Y5635331D01*
X25860254Y5600952D01*
X25938597Y5496297D01*
X25938599Y5496295D01*
X26051512Y5411769D01*
X26183659Y5362482D01*
X26183670Y5362480D01*
X26223545Y5358193D01*
X26242085Y5356200D01*
X26242086Y5356200D01*
X26242087Y5356200D01*
X27224908Y5356200D01*
X27224911Y5356200D01*
X27224914Y5356201D01*
X27263861Y5360387D01*
X27283336Y5362481D01*
X27283339Y5362481D01*
X27415488Y5411770D01*
X27528400Y5496295D01*
X27528403Y5496297D01*
X27584542Y5571290D01*
X27612930Y5609212D01*
X27662217Y5741359D01*
X27662218Y5741363D01*
X27662219Y5741365D01*
X27668500Y5799785D01*
X27668499Y7290614D01*
X27662219Y7349035D01*
X27644481Y7396592D01*
X27612930Y7481186D01*
X27612929Y7481189D01*
X27540443Y7578018D01*
X27520709Y7635930D01*
X27520699Y7637344D01*
X27520699Y8850309D01*
X27520699Y8850314D01*
X27514419Y8908735D01*
X27514417Y8908741D01*
X27479840Y9001449D01*
X27479837Y9001454D01*
X27465129Y9040889D01*
X27439534Y9075078D01*
X27436160Y9081244D01*
X27431722Y9104736D01*
X27424010Y9127367D01*
X27424000Y9128781D01*
X27424000Y10785478D01*
X27442907Y10843669D01*
X27452996Y10855482D01*
X28519018Y11921504D01*
X28573535Y11949281D01*
X28589022Y11950500D01*
X37719996Y11950500D01*
X37720000Y11950500D01*
X37804258Y11959558D01*
X37825324Y11961823D01*
X37851494Y11967516D01*
X37877665Y11973209D01*
X37978179Y12006663D01*
X37978182Y12006664D01*
X38096822Y12082909D01*
X38096825Y12082911D01*
X38150481Y12129404D01*
X38150798Y12129679D01*
X38152221Y12131413D01*
X38242840Y12235992D01*
X38301427Y12364281D01*
X38321429Y12432402D01*
X38337535Y12544422D01*
X38341500Y12571994D01*
X38341500Y26543996D01*
X38341499Y26544005D01*
X38330177Y26649323D01*
X38318791Y26701665D01*
X38285337Y26802179D01*
X38209089Y26920825D01*
X38162596Y26974481D01*
X38162594Y26974482D01*
X38162322Y26974796D01*
X38160604Y26976206D01*
X38056008Y27066840D01*
X37927719Y27125427D01*
X37859598Y27145429D01*
X37789799Y27155464D01*
X37720005Y27165500D01*
X37720000Y27165500D01*
X19176000Y27165500D01*
X19070677Y27154177D01*
X19018335Y27142791D01*
X18917821Y27109337D01*
X18917818Y27109335D01*
X18917817Y27109335D01*
X18851693Y27066840D01*
X18799175Y27033089D01*
X18745519Y26986596D01*
X18745518Y26986594D01*
X18745200Y26986319D01*
X18743774Y26984582D01*
X18653160Y26880008D01*
X18617617Y26802179D01*
X18594572Y26751716D01*
X18574571Y26683599D01*
X18574570Y26683593D01*
X18554500Y26544005D01*
X18554500Y22986003D01*
X18554499Y22986003D01*
X18565823Y22880675D01*
X18577209Y22828335D01*
X18610664Y22727817D01*
X18686909Y22609177D01*
X18733683Y22555195D01*
X18735435Y22553759D01*
X18839989Y22463161D01*
X18968283Y22404572D01*
X19036400Y22384571D01*
X19036406Y22384570D01*
X19175995Y22364500D01*
X19176000Y22364500D01*
X19985407Y22364500D01*
X20009668Y22356617D01*
X20034637Y22351392D01*
X20038345Y22347299D01*
X20043598Y22345593D01*
X20058592Y22324954D01*
X20075721Y22306052D01*
X20076315Y22300561D01*
X20079562Y22296093D01*
X20079562Y22270580D01*
X20082308Y22245222D01*
X20079562Y22240551D01*
X20079562Y22234907D01*
X20051882Y22192138D01*
X20051038Y22191373D01*
X20015519Y22160596D01*
X20015518Y22160594D01*
X19923160Y22054008D01*
X19923160Y22054007D01*
X19864572Y21925716D01*
X19844571Y21857599D01*
X19844570Y21857593D01*
X19824500Y21718005D01*
X19824500Y18414003D01*
X19824499Y18414003D01*
X19835823Y18308675D01*
X19847209Y18256335D01*
X19880664Y18155817D01*
X19956909Y18037177D01*
X20003683Y17983195D01*
X20005435Y17981759D01*
X20109989Y17891161D01*
X20238283Y17832572D01*
X20306400Y17812571D01*
X20306406Y17812570D01*
X20445995Y17792500D01*
X20446000Y17792500D01*
X21376500Y17792500D01*
X21434691Y17773593D01*
X21470655Y17724093D01*
X21475500Y17693500D01*
X21475500Y12699003D01*
X21483133Y12628000D01*
X21483700Y12617418D01*
X21483700Y12544422D01*
X21464793Y12486231D01*
X21454704Y12474418D01*
X21247416Y12267130D01*
X21192899Y12239353D01*
X21177412Y12238134D01*
X18625636Y12238134D01*
X18567445Y12257041D01*
X18531481Y12306541D01*
X18527644Y12351226D01*
X18529500Y12364132D01*
X18529500Y16754275D01*
X18529472Y16756291D01*
X18529322Y16767562D01*
X18529141Y16774306D01*
X18528609Y16787531D01*
X18501095Y16925855D01*
X18477476Y16992807D01*
X18412108Y17117775D01*
X18402846Y17127373D01*
X18376045Y17182373D01*
X18386690Y17242625D01*
X18391771Y17251119D01*
X18408587Y17276285D01*
X18408587Y17276286D01*
X18468536Y17421018D01*
X18468537Y17421020D01*
X18499100Y17574670D01*
X18499100Y17731330D01*
X18468537Y17884980D01*
X18408586Y18029716D01*
X18321550Y18159974D01*
X18210774Y18270750D01*
X18080516Y18357786D01*
X17935780Y18417737D01*
X17782130Y18448300D01*
X16761870Y18448300D01*
X16608220Y18417737D01*
X16586019Y18408541D01*
X16463488Y18357788D01*
X16463477Y18357782D01*
X16333226Y18270750D01*
X16222449Y18159973D01*
X16135417Y18029722D01*
X16135411Y18029711D01*
X16075463Y17884981D01*
X16058747Y17800946D01*
X16031653Y17750257D01*
X15460892Y17179496D01*
X15406375Y17151719D01*
X15390888Y17150500D01*
X10241882Y17150500D01*
X10115714Y17150500D01*
X9991971Y17125886D01*
X9972387Y17117774D01*
X9899990Y17087786D01*
X9875408Y17077604D01*
X9770503Y17007509D01*
X9274991Y16511997D01*
X9225491Y16462497D01*
X9221817Y16456998D01*
X9173769Y16419117D01*
X9112630Y16416713D01*
X9061756Y16450704D01*
X9040576Y16508107D01*
X9040500Y16511997D01*
X9040500Y16910816D01*
X9040500Y16910818D01*
X9016770Y17030118D01*
X9014644Y17035250D01*
X8992883Y17087786D01*
X8970222Y17142496D01*
X8902644Y17243633D01*
X8816633Y17329644D01*
X8394634Y17751643D01*
X8394633Y17751644D01*
X8320848Y17800946D01*
X8293500Y17819220D01*
X8289840Y17821176D01*
X8247428Y17865277D01*
X8237499Y17908491D01*
X8237499Y18017409D01*
X8237499Y18017414D01*
X8231219Y18075835D01*
X8181929Y18207989D01*
X8118910Y18292172D01*
X8099174Y18350086D01*
X8117248Y18408541D01*
X8118911Y18410829D01*
X8124083Y18417737D01*
X8181929Y18495011D01*
X8181930Y18495012D01*
X8231217Y18627159D01*
X8231217Y18627160D01*
X8231219Y18627165D01*
X8237500Y18685585D01*
X8237499Y20176414D01*
X8231219Y20234835D01*
X8181929Y20366989D01*
X8097403Y20479903D01*
X7984489Y20564429D01*
X7984487Y20564429D01*
X7984487Y20564430D01*
X7852340Y20613717D01*
X7852335Y20613719D01*
X7793915Y20620000D01*
X6864601Y20619999D01*
X6851961Y20624106D01*
X6838688Y20623451D01*
X6826500Y20632378D01*
X6806411Y20638906D01*
X6787475Y20656931D01*
X6784170Y20661036D01*
X6760529Y20697825D01*
X6714036Y20751481D01*
X6714034Y20751482D01*
X6607448Y20843840D01*
X6479159Y20902427D01*
X6411038Y20922429D01*
X6341239Y20932464D01*
X6271445Y20942500D01*
X6271440Y20942500D01*
X3577576Y20942500D01*
X3556468Y20949357D01*
X3534480Y20952372D01*
X3528707Y20958377D01*
X3519385Y20961407D01*
X3490323Y20994726D01*
X3487806Y20999419D01*
X3487132Y21001229D01*
X3487126Y21001247D01*
X3470849Y21031051D01*
X3470686Y21031357D01*
X3470649Y21031562D01*
X3465183Y21043529D01*
X3456739Y21066170D01*
X3450500Y21100761D01*
X3450500Y24873237D01*
X3456740Y24907829D01*
X3462917Y24924393D01*
X3465623Y24930927D01*
X3503427Y25013706D01*
X3523429Y25081827D01*
X3530894Y25133752D01*
X3540505Y25200589D01*
X3567501Y25255497D01*
X3621616Y25284050D01*
X3638497Y25285500D01*
X12383496Y25285500D01*
X12383500Y25285500D01*
X12467758Y25294558D01*
X12488824Y25296823D01*
X12514994Y25302516D01*
X12541165Y25308209D01*
X12641679Y25341663D01*
X12641682Y25341664D01*
X12760322Y25417909D01*
X12760325Y25417911D01*
X12813981Y25464404D01*
X12814298Y25464679D01*
X12815721Y25466413D01*
X12906340Y25570992D01*
X12964927Y25699281D01*
X12984929Y25767402D01*
X12992957Y25823241D01*
X13005000Y25906994D01*
X13005000Y29123500D01*
X13023907Y29181691D01*
X13073407Y29217655D01*
X13104000Y29222500D01*
X14597692Y29222500D01*
X14609018Y29221179D01*
X14609079Y29221743D01*
X14615234Y29221081D01*
X14615235Y29221081D01*
X14673655Y29214800D01*
X14673657Y29214800D01*
X14673658Y29214800D01*
X16568338Y29214800D01*
X16568341Y29214800D01*
X16568344Y29214801D01*
X16626765Y29221081D01*
X16632922Y29221743D01*
X16632982Y29221179D01*
X16644307Y29222500D01*
X16891996Y29222500D01*
X16892000Y29222500D01*
X16976258Y29231558D01*
X16997324Y29233823D01*
X17023494Y29239516D01*
X17049665Y29245209D01*
X17150179Y29278663D01*
X17150182Y29278664D01*
X17268822Y29354909D01*
X17268825Y29354911D01*
X17322481Y29401404D01*
X17322798Y29401679D01*
X17324221Y29403413D01*
X17414840Y29507992D01*
X17473427Y29636281D01*
X17493429Y29704402D01*
X17501457Y29760241D01*
X17513500Y29843994D01*
X17513500Y37846996D01*
X17513499Y37847005D01*
X17502177Y37952323D01*
X17490791Y38004665D01*
X17457337Y38105179D01*
X17381089Y38223825D01*
X17381084Y38223831D01*
X17344971Y38265508D01*
X17344966Y38265512D01*
X17334596Y38277481D01*
X17334594Y38277482D01*
X17274664Y38329412D01*
X23449000Y38329412D01*
X23449000Y36584591D01*
X23449001Y36584587D01*
X23455281Y36526163D01*
X23455281Y36526160D01*
X23504570Y36394011D01*
X23589095Y36281099D01*
X23589101Y36281093D01*
X23608926Y36266253D01*
X23644179Y36216245D01*
X23643305Y36155066D01*
X23608926Y36107747D01*
X23589097Y36092903D01*
X23589095Y36092900D01*
X23504569Y35979987D01*
X23455282Y35847840D01*
X23455280Y35847829D01*
X23449000Y35789412D01*
X23449000Y34044591D01*
X23449001Y34044587D01*
X23455281Y33986163D01*
X23455281Y33986160D01*
X23504570Y33854011D01*
X23589095Y33741099D01*
X23589099Y33741095D01*
X23702012Y33656569D01*
X23834159Y33607282D01*
X23834170Y33607280D01*
X23874045Y33602993D01*
X23892585Y33601000D01*
X23892586Y33601000D01*
X23892587Y33601000D01*
X25637408Y33601000D01*
X25637411Y33601000D01*
X25637414Y33601001D01*
X25676361Y33605187D01*
X25695836Y33607281D01*
X25695839Y33607281D01*
X25827988Y33656570D01*
X25940900Y33741095D01*
X25940903Y33741097D01*
X25955747Y33760926D01*
X26005755Y33796179D01*
X26066934Y33795305D01*
X26114253Y33760926D01*
X26129093Y33741101D01*
X26129099Y33741095D01*
X26242012Y33656569D01*
X26374159Y33607282D01*
X26374170Y33607280D01*
X26414045Y33602993D01*
X26432585Y33601000D01*
X26432586Y33601000D01*
X26432587Y33601000D01*
X28177408Y33601000D01*
X28177411Y33601000D01*
X28177414Y33601001D01*
X28216361Y33605187D01*
X28235836Y33607281D01*
X28235839Y33607281D01*
X28367988Y33656570D01*
X28480900Y33741095D01*
X28480903Y33741097D01*
X28565429Y33854011D01*
X28565430Y33854012D01*
X28614717Y33986159D01*
X28614718Y33986163D01*
X28614719Y33986165D01*
X28621000Y34044585D01*
X28620999Y35756539D01*
X31559500Y35756539D01*
X31559500Y35363460D01*
X31598026Y34972300D01*
X31674710Y34586782D01*
X31788806Y34210655D01*
X31939225Y33847511D01*
X31939238Y33847484D01*
X32124515Y33500853D01*
X32342894Y33174029D01*
X32592245Y32870193D01*
X32870193Y32592245D01*
X33174029Y32342894D01*
X33500853Y32124515D01*
X33847484Y31939238D01*
X33847511Y31939225D01*
X34210655Y31788806D01*
X34586782Y31674710D01*
X34972302Y31598026D01*
X34972298Y31598026D01*
X35363460Y31559500D01*
X35363468Y31559500D01*
X35756540Y31559500D01*
X36147699Y31598026D01*
X36533217Y31674710D01*
X36909344Y31788806D01*
X37272488Y31939225D01*
X37272492Y31939226D01*
X37272497Y31939229D01*
X37272503Y31939232D01*
X37272515Y31939238D01*
X37619146Y32124515D01*
X37945970Y32342894D01*
X38249806Y32592245D01*
X38249812Y32592250D01*
X38527750Y32870188D01*
X38777107Y33174031D01*
X38886294Y33337441D01*
X38995484Y33500853D01*
X39180761Y33847484D01*
X39180762Y33847486D01*
X39180771Y33847503D01*
X39331190Y34210647D01*
X39331190Y34210649D01*
X39331193Y34210655D01*
X39445289Y34586782D01*
X39445290Y34586785D01*
X39521973Y34972297D01*
X39532480Y35078980D01*
X39560500Y35363460D01*
X39560500Y35756539D01*
X39535982Y36005459D01*
X39521973Y36147703D01*
X39445290Y36533215D01*
X39331190Y36909353D01*
X39180771Y37272497D01*
X38995482Y37619149D01*
X38777107Y37945969D01*
X38527750Y38249812D01*
X38249812Y38527750D01*
X37945969Y38777107D01*
X37619149Y38995482D01*
X37619148Y38995482D01*
X37619146Y38995484D01*
X37441884Y39090231D01*
X37272497Y39180771D01*
X36909353Y39331190D01*
X36909346Y39331191D01*
X36909344Y39331193D01*
X36756279Y39377624D01*
X36533215Y39445290D01*
X36147703Y39521973D01*
X36069468Y39529678D01*
X35756540Y39560500D01*
X35756532Y39560500D01*
X35363468Y39560500D01*
X35363460Y39560500D01*
X35078980Y39532480D01*
X34972297Y39521973D01*
X34586785Y39445290D01*
X34586782Y39445289D01*
X34210655Y39331193D01*
X34210649Y39331190D01*
X34210647Y39331190D01*
X33847503Y39180771D01*
X33847486Y39180762D01*
X33847484Y39180761D01*
X33500853Y38995484D01*
X33337441Y38886294D01*
X33174031Y38777107D01*
X32870188Y38527750D01*
X32592250Y38249812D01*
X32348109Y37952324D01*
X32342894Y37945970D01*
X32124515Y37619146D01*
X31939238Y37272515D01*
X31939225Y37272488D01*
X31788806Y36909344D01*
X31674710Y36533217D01*
X31598026Y36147699D01*
X31559500Y35756539D01*
X28620999Y35756539D01*
X28620999Y35789414D01*
X28614719Y35847835D01*
X28614717Y35847840D01*
X28575000Y35954327D01*
X28565429Y35979989D01*
X28480903Y36092903D01*
X28461074Y36107747D01*
X28425821Y36157754D01*
X28426693Y36218933D01*
X28461075Y36266254D01*
X28480897Y36281092D01*
X28480899Y36281094D01*
X28480903Y36281097D01*
X28565429Y36394011D01*
X28565430Y36394012D01*
X28614717Y36526159D01*
X28614718Y36526163D01*
X28614719Y36526165D01*
X28621000Y36584585D01*
X28620999Y38329414D01*
X28614719Y38387835D01*
X28614717Y38387840D01*
X28575000Y38494327D01*
X28565429Y38519989D01*
X28480903Y38632903D01*
X28367989Y38717429D01*
X28367987Y38717429D01*
X28367987Y38717430D01*
X28235840Y38766717D01*
X28235835Y38766719D01*
X28177415Y38773000D01*
X26432586Y38772999D01*
X26374165Y38766719D01*
X26374162Y38766718D01*
X26374160Y38766718D01*
X26242014Y38717430D01*
X26242011Y38717429D01*
X26129097Y38632903D01*
X26129095Y38632900D01*
X26129092Y38632897D01*
X26114254Y38613075D01*
X26064246Y38577821D01*
X26003067Y38578693D01*
X25955746Y38613075D01*
X25940907Y38632897D01*
X25940903Y38632903D01*
X25827989Y38717429D01*
X25827987Y38717429D01*
X25827987Y38717430D01*
X25695840Y38766717D01*
X25695835Y38766719D01*
X25637415Y38773000D01*
X23892586Y38772999D01*
X23834165Y38766719D01*
X23834162Y38766718D01*
X23834160Y38766718D01*
X23702014Y38717430D01*
X23702011Y38717429D01*
X23589097Y38632903D01*
X23589095Y38632900D01*
X23504569Y38519987D01*
X23455282Y38387840D01*
X23455280Y38387829D01*
X23449000Y38329412D01*
X17274664Y38329412D01*
X17228008Y38369840D01*
X17099719Y38428427D01*
X17031598Y38448429D01*
X16961799Y38458464D01*
X16892005Y38468500D01*
X16892000Y38468500D01*
X12572000Y38468500D01*
X12466677Y38457177D01*
X12414335Y38445791D01*
X12313821Y38412337D01*
X12313818Y38412335D01*
X12313817Y38412335D01*
X12275685Y38387829D01*
X12195175Y38336089D01*
X12141519Y38289596D01*
X12141518Y38289594D01*
X12141200Y38289319D01*
X12139774Y38287582D01*
X12049160Y38183008D01*
X12013617Y38105179D01*
X11990572Y38054716D01*
X11970571Y37986599D01*
X11970570Y37986593D01*
X11950500Y37847005D01*
X11950500Y32598500D01*
X11931593Y32540309D01*
X11882093Y32504345D01*
X11851500Y32499500D01*
X7916069Y32499500D01*
X7857878Y32518407D01*
X7821914Y32567907D01*
X7821914Y32629093D01*
X7846063Y32668501D01*
X8047750Y32870188D01*
X8297107Y33174031D01*
X8406294Y33337441D01*
X8515484Y33500853D01*
X8700761Y33847484D01*
X8700762Y33847486D01*
X8700771Y33847503D01*
X8851190Y34210647D01*
X8851190Y34210649D01*
X8851193Y34210655D01*
X8965289Y34586782D01*
X8965290Y34586785D01*
X9041973Y34972297D01*
X9052480Y35078980D01*
X9080500Y35363460D01*
X9080500Y35756539D01*
X9055982Y36005459D01*
X9041973Y36147703D01*
X8965290Y36533215D01*
X8851190Y36909353D01*
X8700771Y37272497D01*
X8515482Y37619149D01*
X8297107Y37945969D01*
X8047750Y38249812D01*
X7769812Y38527750D01*
X7465969Y38777107D01*
X7139149Y38995482D01*
X7139148Y38995482D01*
X7139146Y38995484D01*
X6961884Y39090231D01*
X6792497Y39180771D01*
X6429353Y39331190D01*
X6429346Y39331191D01*
X6429344Y39331193D01*
X6276279Y39377624D01*
X6053215Y39445290D01*
X5667703Y39521973D01*
X5589468Y39529678D01*
X5276540Y39560500D01*
X5276532Y39560500D01*
X4883468Y39560500D01*
X4883460Y39560500D01*
X4598980Y39532480D01*
X4492297Y39521973D01*
X4106785Y39445290D01*
X4106782Y39445289D01*
X3730655Y39331193D01*
X3730649Y39331190D01*
X3730647Y39331190D01*
X3367503Y39180771D01*
X3367486Y39180762D01*
X3367484Y39180761D01*
X3020853Y38995484D01*
X2857441Y38886294D01*
X2694031Y38777107D01*
X2390188Y38527750D01*
X2112250Y38249812D01*
X1868109Y37952324D01*
X1862894Y37945970D01*
X1644515Y37619146D01*
X1459238Y37272515D01*
X1459225Y37272488D01*
X1308806Y36909344D01*
X1194710Y36533217D01*
X1118026Y36147699D01*
X1079500Y35756539D01*
X1079500Y35363460D01*
X1118026Y34972300D01*
X1194710Y34586782D01*
X1308806Y34210655D01*
X1459225Y33847511D01*
X1459238Y33847484D01*
X1644515Y33500853D01*
X1862894Y33174029D01*
X2112245Y32870193D01*
X2390193Y32592245D01*
X2694029Y32342894D01*
X3020853Y32124515D01*
X3367484Y31939238D01*
X3367511Y31939225D01*
X3730655Y31788806D01*
X4106780Y31674710D01*
X4389432Y31618487D01*
X4442816Y31588590D01*
X4468432Y31533025D01*
X4468110Y31507300D01*
X4457500Y31433505D01*
X4457500Y31074500D01*
X4438593Y31016309D01*
X4389093Y30980345D01*
X4358500Y30975500D01*
X888000Y30975500D01*
X866080Y30973143D01*
X806205Y30985722D01*
X765155Y31031093D01*
X756500Y31071576D01*
X756500Y39784500D01*
X775407Y39842691D01*
X824907Y39878655D01*
X855500Y39883500D01*
X39784500Y39883500D01*
X39842691Y39864593D01*
G37*
%TD.AperFunction*%
%TA.AperFunction,Conductor*%
G36*
X26541169Y12058593D02*
G01*
X26577133Y12009093D01*
X26577133Y11947907D01*
X26552982Y11908496D01*
X26197154Y11552668D01*
X26146661Y11477100D01*
X26121586Y11439573D01*
X26071026Y11317508D01*
X26071022Y11317504D01*
X26071024Y11317504D01*
X26069537Y11313916D01*
X26043000Y11180508D01*
X26043000Y9250671D01*
X26024093Y9192480D01*
X26003330Y9171419D01*
X25979797Y9153803D01*
X25979795Y9153800D01*
X25895269Y9040887D01*
X25845982Y8908740D01*
X25845982Y8908739D01*
X25845981Y8908735D01*
X25839795Y8851193D01*
X25839700Y8850312D01*
X25839700Y7602609D01*
X25830454Y7574153D01*
X25821615Y7545567D01*
X25821022Y7545123D01*
X25820793Y7544418D01*
X25796574Y7526822D01*
X25772633Y7508900D01*
X25771892Y7508889D01*
X25771293Y7508454D01*
X25741341Y7508454D01*
X25711453Y7508028D01*
X25710849Y7508454D01*
X25710107Y7508454D01*
X25661449Y7543278D01*
X25640442Y7571340D01*
X25620709Y7629252D01*
X25620699Y7630664D01*
X25620699Y8850309D01*
X25620699Y8850314D01*
X25614419Y8908735D01*
X25614417Y8908740D01*
X25565427Y9040090D01*
X25565129Y9040889D01*
X25480603Y9153803D01*
X25367689Y9238329D01*
X25367687Y9238329D01*
X25367687Y9238330D01*
X25235540Y9287617D01*
X25235535Y9287619D01*
X25177115Y9293900D01*
X24383286Y9293899D01*
X24324865Y9287619D01*
X24324862Y9287618D01*
X24324861Y9287618D01*
X24275593Y9269242D01*
X24240996Y9263000D01*
X23703499Y9263000D01*
X23645308Y9281907D01*
X23609344Y9331407D01*
X23604499Y9362000D01*
X23604499Y9444909D01*
X23604499Y9444914D01*
X23598219Y9503335D01*
X23598217Y9503340D01*
X23550633Y9630919D01*
X23548929Y9635489D01*
X23464403Y9748403D01*
X23351489Y9832929D01*
X23351487Y9832929D01*
X23351487Y9832930D01*
X23219340Y9882217D01*
X23219335Y9882219D01*
X23160915Y9888500D01*
X21416086Y9888499D01*
X21357665Y9882219D01*
X21357662Y9882218D01*
X21357660Y9882218D01*
X21225514Y9832930D01*
X21225511Y9832929D01*
X21112597Y9748403D01*
X21112595Y9748400D01*
X21112592Y9748397D01*
X21097754Y9728575D01*
X21047746Y9693321D01*
X20986567Y9694193D01*
X20939246Y9728575D01*
X20924407Y9748397D01*
X20924403Y9748403D01*
X20811489Y9832929D01*
X20811487Y9832929D01*
X20811487Y9832930D01*
X20679340Y9882217D01*
X20679335Y9882219D01*
X20620915Y9888500D01*
X18876086Y9888499D01*
X18817665Y9882219D01*
X18817662Y9882218D01*
X18817660Y9882218D01*
X18685514Y9832930D01*
X18685511Y9832929D01*
X18572597Y9748403D01*
X18572595Y9748400D01*
X18572592Y9748397D01*
X18557754Y9728575D01*
X18507746Y9693321D01*
X18446567Y9694193D01*
X18399246Y9728575D01*
X18384407Y9748397D01*
X18384403Y9748403D01*
X18271489Y9832929D01*
X18271487Y9832929D01*
X18271487Y9832930D01*
X18139340Y9882217D01*
X18139335Y9882219D01*
X18080915Y9888500D01*
X16336086Y9888499D01*
X16277665Y9882219D01*
X16277662Y9882218D01*
X16277660Y9882218D01*
X16145514Y9832930D01*
X16145511Y9832929D01*
X16032597Y9748403D01*
X16032595Y9748400D01*
X15948069Y9635487D01*
X15898782Y9503340D01*
X15898780Y9503329D01*
X15892500Y9444912D01*
X15892500Y8274022D01*
X15873593Y8215831D01*
X15863509Y8204024D01*
X15359573Y7700087D01*
X14982982Y7323496D01*
X14928465Y7295719D01*
X14912978Y7294500D01*
X12162114Y7294500D01*
X12103923Y7313407D01*
X12082861Y7334171D01*
X12068988Y7352701D01*
X12034403Y7398903D01*
X11921489Y7483429D01*
X11921487Y7483429D01*
X11921487Y7483430D01*
X11789340Y7532717D01*
X11789335Y7532719D01*
X11730915Y7539000D01*
X10240086Y7538999D01*
X10181665Y7532719D01*
X10181662Y7532718D01*
X10181661Y7532718D01*
X10122476Y7510643D01*
X10061468Y7487888D01*
X10000341Y7485269D01*
X9956871Y7510641D01*
X9113493Y8354019D01*
X9085718Y8408535D01*
X9084499Y8424022D01*
X9084499Y9312500D01*
X9103406Y9370691D01*
X9152906Y9406655D01*
X9183498Y9411500D01*
X9344908Y9411500D01*
X9344911Y9411500D01*
X9344914Y9411501D01*
X9383861Y9415687D01*
X9403336Y9417781D01*
X9403339Y9417781D01*
X9535488Y9467070D01*
X9592585Y9509812D01*
X9648403Y9551597D01*
X9648405Y9551600D01*
X9652995Y9556190D01*
X9662430Y9560997D01*
X9669095Y9569224D01*
X9689076Y9574574D01*
X9707512Y9583967D01*
X9717971Y9582310D01*
X9728199Y9585049D01*
X9743388Y9578285D01*
X9767944Y9574396D01*
X9785316Y9563112D01*
X9794617Y9555576D01*
X9797597Y9551597D01*
X9823073Y9532525D01*
X9824567Y9531315D01*
X9826265Y9528699D01*
X9844563Y9509394D01*
X9865653Y9477832D01*
X10227825Y9115658D01*
X10227831Y9115653D01*
X10303398Y9065162D01*
X10340921Y9040089D01*
X10340928Y9040086D01*
X10394264Y9017994D01*
X10466584Y8988037D01*
X10466587Y8988036D01*
X10488720Y8983633D01*
X10599988Y8961500D01*
X10599992Y8961500D01*
X14159563Y8961500D01*
X14248497Y8979190D01*
X14292965Y8988036D01*
X14292966Y8988036D01*
X14418622Y9040084D01*
X14418633Y9040090D01*
X14486668Y9085551D01*
X14531721Y9115654D01*
X16244206Y10828138D01*
X16298723Y10855915D01*
X16314210Y10857134D01*
X21572444Y10857134D01*
X21661378Y10874824D01*
X21705846Y10883670D01*
X21705847Y10883670D01*
X21831503Y10935718D01*
X21831514Y10935724D01*
X21899549Y10981185D01*
X21944602Y11011288D01*
X22710546Y11777232D01*
X22724955Y11798797D01*
X22786113Y11890326D01*
X22826489Y11987802D01*
X22838164Y12015988D01*
X22838164Y12015990D01*
X22838327Y12016383D01*
X22878062Y12062910D01*
X22929792Y12077500D01*
X26482978Y12077500D01*
X26541169Y12058593D01*
G37*
%TD.AperFunction*%
%TD*%
%TA.AperFunction,Conductor*%
%TO.N,/Vin*%
G36*
X16960121Y37952998D02*
G01*
X17006614Y37899342D01*
X17018000Y37847000D01*
X17018000Y29844000D01*
X16997998Y29775879D01*
X16944342Y29729386D01*
X16892000Y29718000D01*
X12509500Y29718000D01*
X12509500Y25907000D01*
X12489498Y25838879D01*
X12435842Y25792386D01*
X12383500Y25781000D01*
X3048000Y25781000D01*
X3048000Y25221425D01*
X3027998Y25153304D01*
X3022867Y25145914D01*
X3010569Y25129487D01*
X2961281Y24997336D01*
X2955000Y24938922D01*
X2955000Y21035093D01*
X2955002Y21035072D01*
X2961279Y20976671D01*
X2961281Y20976664D01*
X3010570Y20844511D01*
X3010571Y20844509D01*
X3022870Y20828080D01*
X3047679Y20761560D01*
X3048000Y20752574D01*
X3048000Y20447000D01*
X6271440Y20447000D01*
X6339561Y20426998D01*
X6386054Y20373342D01*
X6396158Y20303068D01*
X6389496Y20276968D01*
X6373781Y20234835D01*
X6367500Y20176422D01*
X6367500Y18685593D01*
X6367502Y18685572D01*
X6373779Y18627171D01*
X6373781Y18627164D01*
X6423070Y18495012D01*
X6473977Y18427008D01*
X6498787Y18360488D01*
X6483695Y18291114D01*
X6473977Y18275992D01*
X6423070Y18207987D01*
X6373781Y18075836D01*
X6367500Y18017422D01*
X6367500Y16526593D01*
X6367502Y16526572D01*
X6373779Y16468171D01*
X6373781Y16468164D01*
X6423070Y16336012D01*
X6507596Y16223096D01*
X6620511Y16138570D01*
X6620509Y16138570D01*
X6649035Y16127931D01*
X6705870Y16085383D01*
X6730679Y16018862D01*
X6731000Y16009876D01*
X6731000Y14224000D01*
X7616102Y14224000D01*
X7684223Y14203998D01*
X7730716Y14150342D01*
X7734158Y14142031D01*
X7763070Y14064512D01*
X7847596Y13951596D01*
X7960512Y13867070D01*
X8092664Y13817781D01*
X8092662Y13817781D01*
X8151083Y13811500D01*
X8151085Y13811500D01*
X8694906Y13811500D01*
X8694930Y13811502D01*
X8734531Y13815759D01*
X8761465Y13815759D01*
X8801081Y13811500D01*
X8801085Y13811500D01*
X9344906Y13811500D01*
X9344930Y13811502D01*
X9384531Y13815759D01*
X9411465Y13815759D01*
X9451081Y13811500D01*
X9451085Y13811500D01*
X9994906Y13811500D01*
X9994927Y13811502D01*
X10053328Y13817779D01*
X10053335Y13817781D01*
X10185487Y13867070D01*
X10185489Y13867071D01*
X10222983Y13895139D01*
X10298403Y13951596D01*
X10340666Y14008054D01*
X10382929Y14064511D01*
X10432219Y14196665D01*
X10438500Y14255085D01*
X10438499Y15743500D01*
X10458501Y15811621D01*
X10512157Y15858114D01*
X10564499Y15869500D01*
X15760286Y15869500D01*
X15884028Y15894114D01*
X15884033Y15894116D01*
X15901102Y15901186D01*
X16000591Y15942396D01*
X16022373Y15956950D01*
X16051993Y15976741D01*
X16051998Y15976745D01*
X16089794Y16002000D01*
X16129000Y16002000D01*
X16129000Y16035996D01*
X16913799Y16820795D01*
X16976111Y16854821D01*
X17002894Y16857700D01*
X17782135Y16857700D01*
X17883419Y16877847D01*
X17954133Y16871519D01*
X18010200Y16827964D01*
X18033819Y16761012D01*
X18034000Y16754268D01*
X18034000Y12364134D01*
X18013998Y12296013D01*
X17960342Y12249520D01*
X17908000Y12238134D01*
X15919179Y12238134D01*
X15807908Y12216000D01*
X15785775Y12211598D01*
X15733724Y12190037D01*
X15660113Y12159547D01*
X15660112Y12159546D01*
X15547018Y12083980D01*
X13842442Y10379403D01*
X13780132Y10345380D01*
X13753349Y10342500D01*
X11218501Y10342500D01*
X11150380Y10362502D01*
X11103887Y10416158D01*
X11092501Y10468500D01*
X11092501Y10695005D01*
X11092501Y10695007D01*
X11092501Y10695008D01*
X11090920Y10702952D01*
X11088499Y10727534D01*
X11088499Y11398906D01*
X11088499Y11398914D01*
X11082219Y11457335D01*
X11032929Y11589489D01*
X10948403Y11702403D01*
X10835489Y11786929D01*
X10703335Y11836219D01*
X10644915Y11842500D01*
X10101086Y11842499D01*
X10101077Y11842498D01*
X10101076Y11842498D01*
X10101067Y11842497D01*
X10061469Y11838240D01*
X10034533Y11838240D01*
X9994915Y11842500D01*
X9451086Y11842499D01*
X9451077Y11842498D01*
X9451076Y11842498D01*
X9451067Y11842497D01*
X9411469Y11838240D01*
X9384533Y11838240D01*
X9344915Y11842500D01*
X8801086Y11842499D01*
X8801077Y11842498D01*
X8801076Y11842498D01*
X8801067Y11842497D01*
X8761469Y11838240D01*
X8734533Y11838240D01*
X8694915Y11842500D01*
X8151086Y11842499D01*
X8117061Y11838841D01*
X8092671Y11836220D01*
X8092669Y11836219D01*
X8092665Y11836219D01*
X7960511Y11786929D01*
X7909904Y11749045D01*
X7847596Y11702403D01*
X7763070Y11589487D01*
X7713781Y11457336D01*
X7707500Y11398922D01*
X7707500Y10727532D01*
X7705079Y10702954D01*
X7703499Y10695008D01*
X7703499Y10695007D01*
X7703499Y10159000D01*
X7683497Y10090879D01*
X7629841Y10044386D01*
X7577499Y10033000D01*
X2719377Y10033000D01*
X2651256Y10053002D01*
X2604763Y10106658D01*
X2593377Y10159000D01*
X2593377Y18405585D01*
X888000Y18405585D01*
X819879Y18425587D01*
X773386Y18479243D01*
X762000Y18531585D01*
X762000Y30354000D01*
X782002Y30422121D01*
X835658Y30468614D01*
X888000Y30480000D01*
X4953000Y30480000D01*
X4953000Y31433500D01*
X4973002Y31501621D01*
X5026658Y31548114D01*
X5079000Y31559500D01*
X5276538Y31559500D01*
X5667688Y31598025D01*
X5667698Y31598026D01*
X5667703Y31598027D01*
X5669425Y31598369D01*
X6053201Y31674706D01*
X6053212Y31674709D01*
X6053215Y31674710D01*
X6429353Y31788810D01*
X6429357Y31788811D01*
X6792497Y31939229D01*
X6885840Y31989122D01*
X6945236Y32004000D01*
X12446000Y32004000D01*
X12446000Y37847000D01*
X12466002Y37915121D01*
X12519658Y37961614D01*
X12572000Y37973000D01*
X16892000Y37973000D01*
X16960121Y37952998D01*
G37*
%TD.AperFunction*%
%TD*%
M02*
