M48
; DRILL file {KiCad 9.0.7+1} date 2026-05-12T11:12:53+0000
; FORMAT={3:3/ absolute / metric / suppress leading zeros}
; #@! TF.CreationDate,2026-05-12T11:12:53+00:00
; #@! TF.GenerationSoftware,Kicad,Pcbnew,9.0.7+1
; #@! TF.FileFunction,Plated,1,2,PTH
FMAT,2
METRIC,TZ
; #@! TA.AperFunction,Plated,PTH,ViaDrill
T1C0.635
; #@! TA.AperFunction,Plated,PTH,ComponentDrill
T2C0.900
; #@! TA.AperFunction,Plated,PTH,ComponentDrill
T3C1.300
; #@! TA.AperFunction,Plated,PTH,ComponentDrill
T4C3.000
%
G90
G05
T1
X9398Y17399
X9754Y8611
X10922Y20066
X11049Y8153
X11151Y2972
X11176Y18288
X12852Y4521
X13716Y25146
X13716Y23368
X13970Y20828
X14173Y8077
X14859Y4623
X14910Y2032
X15748Y20320
X16256Y22606
X16510Y24892
X18085Y10389
X18415Y2007
X18796Y28448
X19152Y16789
X19202Y15265
X19253Y13665
X20650Y13564
X20701Y16789
X20701Y15316
X21057Y2032
X21844Y28702
X23693Y2338
X24079Y10236
X25451Y10211
X25476Y11608
X25835Y3922
X28042Y3861
X28245Y10490
X32512Y10668
T2
X10795Y36957
X10795Y34417
X13335Y36957
X13335Y34417
X15875Y36957
X15875Y34417
X17209Y8573
X17209Y6033
X18415Y36957
X18415Y34417
X19749Y8573
X19749Y6033
X22225Y37457
X22225Y34917
X22289Y8573
X22289Y6033
X24765Y37457
X24765Y34917
X27305Y37457
X27305Y34917
X29845Y37457
X29845Y34917
T3
X5351Y28003
X5351Y22987
X10351Y28003
X10351Y22987
X30226Y29591
X30226Y24575
X35226Y29591
X35226Y24575
T4
X5080Y35560
X5080Y5080
X35560Y35560
X35560Y5080
M30
